SplineFontDB: 3.2
FontName: Georgia
FullName: Georgia
FamilyName: Georgia
Weight: Book
Copyright: Typeface and data copyright 1996 Microsoft Corporation. All Rights Reserved.
Version: 2.05
ItalicAngle: 0
UnderlinePosition: -230
UnderlineWidth: 101
Ascent: 1638
Descent: 410
InvalidEm: 0
sfntRevision: 0x00010000
LayerCount: 2
Layer: 0 1 "Back" 1
Layer: 1 1 "Fore" 0
XUID: [1021 973 -970365626 7978043]
StyleMap: 0x0040
FSType: 0
OS2Version: 1
OS2_WeightWidthSlopeOnly: 0
OS2_UseTypoMetrics: 0
CreationTime: 823878739
ModificationTime: 1574591746
PfmFamily: 17
TTFWeight: 400
TTFWidth: 5
LineGap: 0
VLineGap: 0
Panose: 2 4 5 2 5 4 5 2 3 3
OS2TypoAscent: 1549
OS2TypoAOffset: 0
OS2TypoDescent: -444
OS2TypoDOffset: 0
OS2TypoLinegap: 198
OS2WinAscent: 1878
OS2WinAOffset: 0
OS2WinDescent: 449
OS2WinDOffset: 0
HheadAscent: 1878
HheadAOffset: 0
HheadDescent: -449
HheadDOffset: 0
OS2SubXSize: 1434
OS2SubYSize: 1331
OS2SubXOff: 0
OS2SubYOff: 155
OS2SupXSize: 1434
OS2SupYSize: 1331
OS2SupXOff: 0
OS2SupYOff: 542
OS2StrikeYSize: 101
OS2StrikeYPos: 594
OS2FamilyClass: 1027
OS2Vendor: 'MS  '
OS2CodePages: 2000009f.00000000
OS2UnicodeRanges: 00000287.00000000.00000000.00000000
DEI: 91125
TtTable: prep
NPUSHB
 20
 0
 202
 1
 31
 224
 47
 224
 2
 64
 210
 42
 45
 54
 0
 228
 16
 228
 32
 228
 3
PUSHW_1
 -64
NPUSHB
 50
 228
 29
 37
 54
 143
 228
 1
 15
 220
 31
 220
 63
 220
 79
 220
 4
 31
 209
 47
 209
 63
 209
 79
 209
 95
 209
 111
 209
 6
 31
 208
 47
 208
 63
 208
 79
 208
 4
 204
 203
 16
 31
 205
 207
 26
 31
 206
 207
 26
 31
PUSHW_1
 -64
NPUSHB
 35
 207
 19
 25
 54
 169
 156
 39
 31
 154
 156
 26
 31
 155
 156
 39
 31
 156
 146
 39
 31
 143
 153
 1
 16
 158
 32
 158
 144
 158
 3
 32
 158
 160
 158
 2
PUSHW_1
 -64
NPUSHB
 27
 158
 19
 25
 54
 167
 150
 8
 31
 151
 152
 39
 31
 152
 150
 25
 31
 149
 150
 25
 31
 150
 151
 32
 31
 192
 231
 1
PUSHW_1
 -64
NPUSHB
 20
 163
 44
 46
 54
 163
 146
 8
 31
 148
 146
 39
 31
 147
 146
 39
 31
 145
 146
 39
 31
PUSHW_1
 -64
NPUSHB
 40
 146

StartChar: .notdef
Encoding: 65536 -1 0
Width: 2048
Flags: W
LayerCount: 2
Fore
SplineSet
256 0 m 1,0,-1
 256 1536 l 1,1,-1
 1792 1536 l 1,2,-1
 1792 0 l 1,3,-1
 256 0 l 1,0,-1
384 128 m 1,4,-1
 1664 128 l 1,5,-1
 1664 1408 l 1,6,-1
 384 1408 l 1,7,-1
 384 128 l 1,4,-1
EndSplineSet
EndChar

StartChar: exclam
Encoding: 33 33 4
Width: 1406
VWidth: 512
GlyphClass: 2
Flags: W
LayerCount: 2
Fore
SplineSet
1084 515 m 1,0,-1
 124 515 l 1,1,-1
 124 131 l 1,2,-1
 1084 131 l 1,3,-1
 1084 259 l 1,4,-1
 1148 259 l 1,5,-1
 1148 387 l 1,6,-1
 1084 387 l 1,7,-1
 1084 515 l 1,0,-1
1116 643 m 2,8,9
 1156 643 1156 643 1184 615 c 128,-1,10
 1212 587 1212 587 1212 547 c 2,11,-1
 1212 515 l 1,12,-1
 1228 515 l 2,13,14
 1248 515 1248 515 1262 501 c 128,-1,15
 1276 487 1276 487 1276 467 c 2,16,-1
 1276 179 l 2,17,18
 1276 159 1276 159 1262 145 c 128,-1,19
 1248 131 1248 131 1228 131 c 2,20,-1
 1212 131 l 1,21,-1
 1212 99 l 2,22,23
 1212 59 1212 59 1184 31 c 128,-1,24
 1156 3 1156 3 1116 3 c 2,25,-1
 92 3 l 2,26,27
 52 3 52 3 24 31 c 128,-1,28
 -4 59 -4 59 -4 99 c 2,29,-1
 -4 547 l 2,30,31
 -4 587 -4 587 24 615 c 128,-1,32
 52 643 52 643 92 643 c 2,33,-1
 1116 643 l 2,8,9
1020 451 m 1,34,-1
 1020 195 l 1,35,-1
 188 195 l 1,36,-1
 188 451 l 1,37,-1
 1020 451 l 1,34,-1
EndSplineSet
EndChar

StartChar: quotedbl
Encoding: 34 34 5
Width: 1408
VWidth: 512
GlyphClass: 2
Flags: W
LayerCount: 2
Fore
SplineSet
1086 512 m 1,0,-1
 126 512 l 1,1,-1
 126 128 l 1,2,-1
 1086 128 l 1,3,-1
 1086 256 l 1,4,-1
 1150 256 l 1,5,-1
 1150 384 l 1,6,-1
 1086 384 l 1,7,-1
 1086 512 l 1,0,-1
1118 640 m 2,8,9
 1158 640 1158 640 1186 612 c 128,-1,10
 1214 584 1214 584 1214 544 c 2,11,-1
 1214 512 l 1,12,-1
 1230 512 l 2,13,14
 1250 512 1250 512 1264 498 c 128,-1,15
 1278 484 1278 484 1278 464 c 2,16,-1
 1278 176 l 2,17,18
 1278 156 1278 156 1264 142 c 128,-1,19
 1250 128 1250 128 1230 128 c 2,20,-1
 1214 128 l 1,21,-1
 1214 96 l 2,22,23
 1214 56 1214 56 1186 28 c 128,-1,24
 1158 0 1158 0 1118 0 c 2,25,-1
 466 0 l 4,26,-1
 94 0 l 2,27,28
 54 0 54 0 26 28 c 128,-1,29
 -2 56 -2 56 -2 96 c 2,30,-1
 -2 544 l 2,31,32
 -2 584 -2 584 26 612 c 128,-1,33
 54 640 54 640 94 640 c 2,34,-1
 1118 640 l 2,8,9
830 448 m 1,35,-1
 830 192 l 1,36,-1
 190 192 l 1,37,-1
 190 448 l 1,38,-1
 830 448 l 1,35,-1
EndSplineSet
EndChar

StartChar: numbersign
Encoding: 35 35 6
Width: 1410
VWidth: 512
GlyphClass: 2
Flags: W
LayerCount: 2
Fore
SplineSet
1088 512 m 5,0,-1
 128 512 l 5,1,-1
 128 128 l 5,2,-1
 1088 128 l 5,3,-1
 1088 256 l 5,4,-1
 1152 256 l 5,5,-1
 1152 384 l 5,6,-1
 1088 384 l 5,7,-1
 1088 512 l 5,0,-1
1120 640 m 6,8,9
 1160 640 1160 640 1188 612 c 132,-1,10
 1216 584 1216 584 1216 544 c 6,11,-1
 1216 512 l 5,12,-1
 1232 512 l 6,13,14
 1252 512 1252 512 1266 498 c 132,-1,15
 1280 484 1280 484 1280 464 c 6,16,-1
 1280 176 l 6,17,18
 1280 156 1280 156 1266 142 c 132,-1,19
 1252 128 1252 128 1232 128 c 6,20,-1
 1216 128 l 5,21,-1
 1216 96 l 6,22,23
 1216 56 1216 56 1188 28 c 132,-1,24
 1160 0 1160 0 1120 0 c 6,25,-1
 96 0 l 6,26,27
 56 0 56 0 28 28 c 132,-1,28
 0 56 0 56 0 96 c 6,29,-1
 0 544 l 6,30,31
 0 584 0 584 28 612 c 132,-1,32
 56 640 56 640 96 640 c 6,33,-1
 1120 640 l 6,8,9
640 448 m 5,34,-1
 640 192 l 5,35,-1
 192 192 l 5,36,-1
 192 448 l 5,37,-1
 640 448 l 5,34,-1
EndSplineSet
EndChar

StartChar: dollar
Encoding: 36 36 7
Width: 1412
VWidth: 512
GlyphClass: 2
Flags: W
LayerCount: 2
Fore
SplineSet
1090 513 m 1,0,-1
 130 513 l 1,1,-1
 130 129 l 1,2,-1
 1090 129 l 1,3,-1
 1090 257 l 1,4,-1
 1154 257 l 1,5,-1
 1154 385 l 1,6,-1
 1090 385 l 1,7,-1
 1090 513 l 1,0,-1
1122 641 m 2,8,9
 1162 641 1162 641 1190 613 c 128,-1,10
 1218 585 1218 585 1218 545 c 2,11,-1
 1218 513 l 1,12,-1
 1234 513 l 2,13,14
 1254 513 1254 513 1268 499 c 128,-1,15
 1282 485 1282 485 1282 465 c 2,16,-1
 1282 177 l 2,17,18
 1282 157 1282 157 1268 143 c 128,-1,19
 1254 129 1254 129 1234 129 c 2,20,-1
 1218 129 l 1,21,-1
 1218 97 l 2,22,23
 1218 57 1218 57 1190 29 c 128,-1,24
 1162 1 1162 1 1122 1 c 2,25,-1
 98 1 l 2,26,27
 58 1 58 1 30 29 c 128,-1,28
 2 57 2 57 2 97 c 2,29,-1
 2 545 l 2,30,31
 2 585 2 585 30 613 c 128,-1,32
 58 641 58 641 98 641 c 2,33,-1
 1122 641 l 2,8,9
450 449 m 1,34,-1
 450 193 l 1,35,-1
 194 193 l 1,36,-1
 194 449 l 1,37,-1
 450 449 l 1,34,-1
EndSplineSet
EndChar

StartChar: percent
Encoding: 37 37 8
Width: 1674
GlyphClass: 2
Flags: W
LayerCount: 2
Fore
SplineSet
788 1083 m 0,0,1
 788 907 788 907 693 810 c 128,-1,2
 598 713 598 713 448 713 c 256,3,4
 298 713 298 713 203.5 810 c 128,-1,5
 109 907 109 907 109 1083 c 0,6,7
 109 1249 109 1249 201.5 1351 c 128,-1,8
 294 1453 294 1453 449 1453 c 0,9,10
 602 1453 602 1453 695 1351 c 128,-1,11
 788 1249 788 1249 788 1083 c 0,0,1
619 1083 m 0,12,13
 619 1213 619 1213 576 1296 c 128,-1,14
 533 1379 533 1379 449 1379 c 0,15,16
 363 1379 363 1379 320.5 1296 c 128,-1,17
 278 1213 278 1213 278 1083 c 0,18,19
 278 950 278 950 321 868.5 c 128,-1,20
 364 787 364 787 448 787 c 256,21,22
 532 787 532 787 575.5 868.5 c 128,-1,23
 619 950 619 950 619 1083 c 0,12,13
1565 338 m 0,24,25
 1565 162 1565 162 1470 65 c 128,-1,26
 1375 -32 1375 -32 1225 -32 c 256,27,28
 1075 -32 1075 -32 980.5 65 c 128,-1,29
 886 162 886 162 886 338 c 0,30,31
 886 504 886 504 978.5 606 c 128,-1,32
 1071 708 1071 708 1226 708 c 0,33,34
 1379 708 1379 708 1472 606 c 128,-1,35
 1565 504 1565 504 1565 338 c 0,24,25
1396 338 m 0,36,37
 1396 468 1396 468 1353 551 c 128,-1,38
 1310 634 1310 634 1226 634 c 0,39,40
 1140 634 1140 634 1097.5 551 c 128,-1,41
 1055 468 1055 468 1055 338 c 0,42,43
 1055 205 1055 205 1098 123.5 c 128,-1,44
 1141 42 1141 42 1225 42 c 256,45,46
 1309 42 1309 42 1352.5 123.5 c 128,-1,47
 1396 205 1396 205 1396 338 c 0,36,37
1499 1424 m 1,48,-1
 320 0 l 1,49,-1
 182 0 l 1,50,-1
 1358 1424 l 1,51,-1
 1499 1424 l 1,48,-1
EndSplineSet
EndChar

StartChar: ampersand
Encoding: 38 38 9
Width: 1408
VWidth: 512
GlyphClass: 2
Flags: W
LayerCount: 2
Fore
SplineSet
1086 513 m 5,0,-1
 126 513 l 5,1,-1
 126 129 l 5,2,-1
 1086 129 l 5,3,-1
 1086 257 l 5,4,-1
 1150 257 l 5,5,-1
 1150 385 l 5,6,-1
 1086 385 l 5,7,-1
 1086 513 l 5,0,-1
1118 641 m 6,8,9
 1158 641 1158 641 1186 613 c 132,-1,10
 1214 585 1214 585 1214 545 c 6,11,-1
 1214 513 l 5,12,-1
 1230 513 l 6,13,14
 1250 513 1250 513 1264 499 c 132,-1,15
 1278 485 1278 485 1278 465 c 6,16,-1
 1278 177 l 6,17,18
 1278 157 1278 157 1264 143 c 132,-1,19
 1250 129 1250 129 1230 129 c 6,20,-1
 1214 129 l 5,21,-1
 1214 97 l 6,22,23
 1214 57 1214 57 1186 29 c 132,-1,24
 1158 1 1158 1 1118 1 c 6,25,-1
 94 1 l 6,26,27
 54 1 54 1 26 29 c 132,-1,28
 -2 57 -2 57 -2 97 c 6,29,-1
 -2 545 l 6,30,31
 -2 585 -2 585 26 613 c 132,-1,32
 54 641 54 641 94 641 c 6,33,-1
 1118 641 l 6,8,9
EndSplineSet
EndChar

StartChar: quotesingle
Encoding: 39 39 10
Width: 441
GlyphClass: 2
Flags: W
LayerCount: 2
Fore
SplineSet
333 1417 m 0,0,1
 333 1377 333 1377 307 1263 c 128,-1,2
 281 1149 281 1149 249 967 c 1,3,-1
 188 967 l 1,4,5
 161 1137 161 1137 134.5 1257.5 c 128,-1,6
 108 1378 108 1378 108 1417 c 0,7,8
 108 1463 108 1463 136 1496 c 128,-1,9
 164 1529 164 1529 221 1529 c 0,10,11
 275 1529 275 1529 304 1496 c 128,-1,12
 333 1463 333 1463 333 1417 c 0,0,1
EndSplineSet
EndChar

StartChar: parenleft
Encoding: 40 40 11
Width: 768
GlyphClass: 2
Flags: W
LayerCount: 2
Fore
SplineSet
701 -328 m 1,0,1
 428 -294 428 -294 272.5 -53 c 128,-1,2
 117 188 117 188 117 596 c 0,3,4
 117 1011 117 1011 272.5 1253.5 c 128,-1,5
 428 1496 428 1496 701 1532 c 1,6,-1
 701 1449 l 1,7,8
 509 1414 509 1414 409 1204 c 128,-1,9
 309 994 309 994 309 594 c 0,10,11
 309 213 309 213 407 1.5 c 128,-1,12
 505 -210 505 -210 701 -246 c 1,13,-1
 701 -328 l 1,0,1
EndSplineSet
EndChar

StartChar: parenright
Encoding: 41 41 12
Width: 768
GlyphClass: 2
Flags: W
LayerCount: 2
Fore
SplineSet
651 596 m 0,0,1
 651 188 651 188 495.5 -53 c 128,-1,2
 340 -294 340 -294 67 -328 c 1,3,-1
 67 -246 l 1,4,5
 263 -210 263 -210 361 1.5 c 128,-1,6
 459 213 459 213 459 594 c 0,7,8
 459 994 459 994 359 1204 c 128,-1,9
 259 1414 259 1414 67 1449 c 1,10,-1
 67 1532 l 1,11,12
 340 1496 340 1496 495.5 1253.5 c 128,-1,13
 651 1011 651 1011 651 596 c 0,0,1
EndSplineSet
EndChar

StartChar: asterisk
Encoding: 42 42 13
Width: 967
GlyphClass: 2
Flags: W
LayerCount: 2
Fore
SplineSet
882 1099 m 0,0,1
 882 1062 882 1062 861 1045 c 128,-1,2
 840 1028 840 1028 807 1028 c 0,3,4
 785 1028 785 1028 701.5 1049.5 c 128,-1,5
 618 1071 618 1071 514 1083 c 1,6,7
 559 1021 559 1021 598 979.5 c 128,-1,8
 637 938 637 938 663 910 c 0,9,10
 690 881 690 881 705 859 c 128,-1,11
 720 837 720 837 720 812 c 0,12,13
 720 785 720 785 696 765 c 128,-1,14
 672 745 672 745 645 745 c 0,15,16
 627 745 627 745 611 755.5 c 128,-1,17
 595 766 595 766 584 785 c 0,18,19
 568 814 568 814 552.5 878 c 128,-1,20
 537 942 537 942 484 1066 c 1,21,22
 436 947 436 947 417 877.5 c 128,-1,23
 398 808 398 808 384 785 c 0,24,25
 371 765 371 765 357.5 755 c 128,-1,26
 344 745 344 745 323 745 c 0,27,28
 295 745 295 745 271.5 764 c 128,-1,29
 248 783 248 783 248 812 c 0,30,31
 248 836 248 836 262 857 c 128,-1,32
 276 878 276 878 305 910 c 0,33,34
 330 936 330 936 371.5 981 c 128,-1,35
 413 1026 413 1026 454 1083 c 1,36,37
 356 1073 356 1073 271.5 1050.5 c 128,-1,38
 187 1028 187 1028 161 1028 c 0,39,40
 128 1028 128 1028 107 1044.5 c 128,-1,41
 86 1061 86 1061 86 1099 c 0,42,43
 86 1133 86 1133 107 1151.5 c 128,-1,44
 128 1170 128 1170 161 1170 c 0,45,46
 191 1170 191 1170 266.5 1149 c 128,-1,47
 342 1128 342 1128 454 1117 c 1,48,49
 415 1170 415 1170 372 1217.5 c 128,-1,50
 329 1265 329 1265 305 1290 c 0,51,52
 277 1320 277 1320 262.5 1341.5 c 128,-1,53
 248 1363 248 1363 248 1388 c 0,54,55
 248 1415 248 1415 272 1435 c 128,-1,56
 296 1455 296 1455 323 1455 c 0,57,58
 341 1455 341 1455 356.5 1445 c 128,-1,59
 372 1435 372 1435 384 1415 c 0,60,61
 398 1391 398 1391 421 1307.5 c 128,-1,62
 444 1224 444 1224 484 1134 c 1,63,64
 529 1236 529 1236 549.5 1312.5 c 128,-1,65
 570 1389 570 1389 584 1415 c 0,66,67
 595 1434 595 1434 610.5 1444.5 c 128,-1,68
 626 1455 626 1455 645 1455 c 0,69,70
 673 1455 673 1455 696.5 1436 c 128,-1,71
 720 1417 720 1417 720 1388 c 0,72,73
 720 1347 720 1347 664.5 1292 c 128,-1,74
 609 1237 609 1237 514 1117 c 1,75,76
 622 1129 622 1129 701.5 1149.5 c 128,-1,77
 781 1170 781 1170 807 1170 c 0,78,79
 840 1170 840 1170 861 1152 c 128,-1,80
 882 1134 882 1134 882 1099 c 0,0,1
EndSplineSet
EndChar

StartChar: plus
Encoding: 43 43 14
Width: 1317
GlyphClass: 2
Flags: W
LayerCount: 2
Fore
SplineSet
1173 497 m 1,0,-1
 722 497 l 1,1,-1
 722 46 l 1,2,-1
 595 46 l 1,3,-1
 595 497 l 1,4,-1
 144 497 l 1,5,-1
 144 622 l 1,6,-1
 595 622 l 1,7,-1
 595 1073 l 1,8,-1
 722 1073 l 1,9,-1
 722 622 l 1,10,-1
 1173 622 l 1,11,-1
 1173 497 l 1,0,-1
EndSplineSet
EndChar

StartChar: comma
Encoding: 44 44 15
Width: 552
GlyphClass: 2
Flags: W
LayerCount: 2
Fore
SplineSet
429 35 m 0,0,1
 429 -37 429 -37 396.5 -101 c 128,-1,2
 364 -165 364 -165 322 -211 c 0,3,4
 279 -259 279 -259 231 -296 c 128,-1,5
 183 -333 183 -333 143 -354 c 1,6,-1
 97 -287 l 1,7,8
 145 -257 145 -257 183 -227 c 128,-1,9
 221 -197 221 -197 245 -167 c 0,10,11
 275 -132 275 -132 296 -91 c 128,-1,12
 317 -50 317 -50 323 2 c 1,13,-1
 272 2 l 2,14,15
 205 2 205 2 167.5 37 c 128,-1,16
 130 72 130 72 130 131 c 0,17,18
 130 173 130 173 164 212.5 c 128,-1,19
 198 252 198 252 257 252 c 0,20,21
 343 252 343 252 386 194.5 c 128,-1,22
 429 137 429 137 429 35 c 0,0,1
EndSplineSet
EndChar

StartChar: hyphen
Encoding: 45 45 16
AltUni2: 0000ad.ffffffff.0
Width: 766
GlyphClass: 2
Flags: W
LayerCount: 2
Fore
SplineSet
681 465 m 1,0,-1
 85 465 l 1,1,-1
 85 622 l 1,2,-1
 681 622 l 1,3,-1
 681 465 l 1,0,-1
EndSplineSet
EndChar

StartChar: period
Encoding: 46 46 17
Width: 552
GlyphClass: 2
Flags: W
LayerCount: 2
Fore
SplineSet
415 115 m 256,0,1
 415 59 415 59 374.5 19.5 c 128,-1,2
 334 -20 334 -20 278 -20 c 256,3,4
 222 -20 222 -20 181.5 19.5 c 128,-1,5
 141 59 141 59 141 115 c 256,6,7
 141 171 141 171 181.5 211.5 c 128,-1,8
 222 252 222 252 278 252 c 256,9,10
 334 252 334 252 374.5 211.5 c 128,-1,11
 415 171 415 171 415 115 c 256,0,1
EndSplineSet
EndChar

StartChar: slash
Encoding: 47 47 18
Width: 960
GlyphClass: 2
Flags: W
LayerCount: 2
Fore
SplineSet
870 1523 m 1,0,-1
 179 -424 l 1,1,-1
 49 -424 l 1,2,-1
 738 1523 l 1,3,-1
 870 1523 l 1,0,-1
EndSplineSet
EndChar

StartChar: zero
Encoding: 48 48 19
Width: 1257
GlyphClass: 2
Flags: W
LayerCount: 2
Fore
SplineSet
1027 934 m 0,0,1
 1091 857 1091 857 1122.5 753.5 c 128,-1,2
 1154 650 1154 650 1154 537 c 0,3,4
 1154 401 1154 401 1115 293.5 c 128,-1,5
 1076 186 1076 186 1008 115 c 0,6,7
 938 42 938 42 842 5 c 128,-1,8
 746 -32 746 -32 628 -32 c 0,9,10
 499 -32 499 -32 398 11 c 128,-1,11
 297 54 297 54 234 129 c 0,12,13
 168 207 168 207 135.5 311.5 c 128,-1,14
 103 416 103 416 103 537 c 0,15,16
 103 656 103 656 134.5 756 c 128,-1,17
 166 856 166 856 233 937 c 0,18,19
 297 1015 297 1015 398 1060 c 128,-1,20
 499 1105 499 1105 629 1105 c 0,21,22
 766 1105 766 1105 864 1059 c 128,-1,23
 962 1013 962 1013 1027 934 c 0,0,1
933 537 m 0,24,25
 933 775 933 775 851.5 906 c 128,-1,26
 770 1037 770 1037 630 1037 c 0,27,28
 488 1037 488 1037 406 906 c 128,-1,29
 324 775 324 775 324 537 c 0,30,31
 324 311 324 311 402.5 173.5 c 128,-1,32
 481 36 481 36 628 36 c 256,33,34
 775 36 775 36 854 173.5 c 128,-1,35
 933 311 933 311 933 537 c 0,24,25
EndSplineSet
EndChar

StartChar: one
Encoding: 49 49 20
Width: 880
GlyphClass: 2
Flags: W
LayerCount: 2
Fore
SplineSet
809 0 m 1,0,-1
 135 0 l 1,1,-1
 135 71 l 1,2,3
 165 73 165 73 228.5 79.5 c 128,-1,4
 292 86 292 86 316 93 c 0,5,6
 347 103 347 103 363.5 125.5 c 128,-1,7
 380 148 380 148 380 193 c 2,8,-1
 380 895 l 1,9,-1
 131 895 l 1,10,-1
 131 979 l 1,11,-1
 186 979 l 2,12,13
 294 979 294 979 379.5 1019 c 128,-1,14
 465 1059 465 1059 502 1105 c 1,15,-1
 585 1105 l 1,16,17
 582 1040 582 1040 579 953 c 128,-1,18
 576 866 576 866 576 797 c 2,19,-1
 576 204 l 2,20,21
 576 169 576 169 591.5 141.5 c 128,-1,22
 607 114 607 114 636 101 c 0,23,24
 662 90 662 90 721 81 c 128,-1,25
 780 72 780 72 809 71 c 1,26,-1
 809 0 l 1,0,-1
EndSplineSet
EndChar

StartChar: two
Encoding: 50 50 21
Width: 1144
GlyphClass: 2
Flags: W
LayerCount: 2
Fore
SplineSet
1047 0 m 1,0,-1
 110 0 l 1,1,-1
 110 136 l 1,2,3
 137 167 137 167 185 205.5 c 128,-1,4
 233 244 233 244 299 289 c 0,5,6
 339 316 339 316 395 348 c 128,-1,7
 451 380 451 380 522 418 c 0,8,9
 601 460 601 460 643.5 492 c 128,-1,10
 686 524 686 524 721 571 c 0,11,12
 744 602 744 602 758 648.5 c 128,-1,13
 772 695 772 695 772 781 c 0,14,15
 772 906 772 906 705 964.5 c 128,-1,16
 638 1023 638 1023 533 1023 c 0,17,18
 468 1023 468 1023 410 997.5 c 128,-1,19
 352 972 352 972 323 927 c 1,20,21
 330 895 330 895 340.5 851 c 128,-1,22
 351 807 351 807 351 765 c 0,23,24
 351 727 351 727 319.5 697.5 c 128,-1,25
 288 668 288 668 226 668 c 0,26,27
 176 668 176 668 149 702.5 c 128,-1,28
 122 737 122 737 122 795 c 0,29,30
 122 849 122 849 152 903.5 c 128,-1,31
 182 958 182 958 238 1004 c 0,32,33
 293 1049 293 1049 374 1077 c 128,-1,34
 455 1105 455 1105 549 1105 c 0,35,36
 754 1105 754 1105 874.5 1013.5 c 128,-1,37
 995 922 995 922 995 769 c 0,38,39
 995 696 995 696 973.5 636 c 128,-1,40
 952 576 952 576 904 530 c 0,41,42
 851 479 851 479 780 442.5 c 128,-1,43
 709 406 709 406 563 341 c 0,44,45
 476 302 476 302 401 259.5 c 128,-1,46
 326 217 326 217 278 177 c 1,47,-1
 1047 177 l 1,48,-1
 1047 0 l 1,0,-1
EndSplineSet
EndChar

StartChar: three
Encoding: 51 51 22
Width: 1130
GlyphClass: 2
Flags: W
LayerCount: 2
Fore
SplineSet
487 -365 m 0,0,1
 393 -365 393 -365 315 -341.5 c 128,-1,2
 237 -318 237 -318 181 -278 c 256,3,4
 125 -238 125 -238 94.5 -186 c 128,-1,5
 64 -134 64 -134 64 -79 c 0,6,7
 64 -30 64 -30 88 9.5 c 128,-1,8
 112 49 112 49 165 49 c 0,9,10
 225 49 225 49 256.5 19.5 c 128,-1,11
 288 -10 288 -10 288 -48 c 0,12,13
 288 -80 288 -80 277.5 -129 c 128,-1,14
 267 -178 267 -178 261 -199 c 1,15,16
 268 -208 268 -208 286.5 -223 c 128,-1,17
 305 -238 305 -238 332 -250 c 0,18,19
 364 -265 364 -265 399 -274 c 128,-1,20
 434 -283 434 -283 498 -283 c 0,21,22
 558 -283 558 -283 613.5 -263 c 128,-1,23
 669 -243 669 -243 711 -199 c 0,24,25
 755 -153 755 -153 779.5 -91.5 c 128,-1,26
 804 -30 804 -30 804 70 c 0,27,28
 804 124 804 124 792.5 177 c 128,-1,29
 781 230 781 230 750 269 c 256,30,31
 719 308 719 308 665.5 329.5 c 128,-1,32
 612 351 612 351 530 351 c 2,33,-1
 399 351 l 1,34,-1
 399 466 l 1,35,-1
 486 466 l 2,36,37
 624 466 624 466 685 542 c 128,-1,38
 746 618 746 618 746 771 c 0,39,40
 746 896 746 896 687 959.5 c 128,-1,41
 628 1023 628 1023 520 1023 c 0,42,43
 468 1023 468 1023 434.5 1010.5 c 128,-1,44
 401 998 401 998 380 986 c 0,45,46
 355 972 355 972 339 955 c 128,-1,47
 323 938 323 938 315 930 c 1,48,49
 322 898 322 898 332 851.5 c 128,-1,50
 342 805 342 805 342 763 c 0,51,52
 342 726 342 726 310.5 696.5 c 128,-1,53
 279 667 279 667 218 667 c 0,54,55
 165 667 165 667 140.5 705 c 128,-1,56
 116 743 116 743 116 793 c 0,57,58
 116 845 116 845 145 899 c 128,-1,59
 174 953 174 953 231 1000 c 256,60,61
 288 1047 288 1047 370 1076 c 128,-1,62
 452 1105 452 1105 559 1105 c 0,63,64
 682 1105 682 1105 762.5 1068.5 c 128,-1,65
 843 1032 843 1032 889 980 c 0,66,67
 934 929 934 929 951 873 c 128,-1,68
 968 817 968 817 968 777 c 0,69,70
 968 727 968 727 954 676.5 c 128,-1,71
 940 626 940 626 908 583 c 0,72,73
 873 536 873 536 815.5 497.5 c 128,-1,74
 758 459 758 459 671 435 c 1,75,-1
 671 419 l 1,76,77
 727 414 727 414 790.5 394 c 128,-1,78
 854 374 854 374 905 335 c 0,79,80
 958 294 958 294 992 229.5 c 128,-1,81
 1026 165 1026 165 1026 66 c 0,82,83
 1026 -126 1026 -126 872 -245.5 c 128,-1,84
 718 -365 718 -365 487 -365 c 0,0,1
EndSplineSet
EndChar

StartChar: four
Encoding: 52 52 23
Width: 1157
GlyphClass: 2
Flags: W
LayerCount: 2
Fore
SplineSet
1084 90 m 1,0,-1
 881 90 l 1,1,-1
 881 -365 l 1,2,-1
 689 -365 l 1,3,-1
 689 90 l 1,4,-1
 49 90 l 1,5,-1
 49 244 l 1,6,-1
 750 1099 l 1,7,-1
 881 1099 l 1,8,-1
 881 221 l 1,9,-1
 1084 221 l 1,10,-1
 1084 90 l 1,0,-1
689 221 m 1,11,-1
 689 876 l 1,12,-1
 149 221 l 1,13,-1
 689 221 l 1,11,-1
EndSplineSet
EndChar

StartChar: five
Encoding: 53 53 24
Width: 1082
GlyphClass: 2
Flags: W
LayerCount: 2
Fore
SplineSet
843 469 m 256,0,1
 909 417 909 417 952.5 335 c 128,-1,2
 996 253 996 253 996 130 c 0,3,4
 996 -85 996 -85 849 -225 c 128,-1,5
 702 -365 702 -365 476 -365 c 0,6,7
 301 -365 301 -365 180 -282 c 128,-1,8
 59 -199 59 -199 59 -89 c 0,9,10
 59 -38 59 -38 84 0 c 128,-1,11
 109 38 109 38 161 38 c 0,12,13
 221 38 221 38 252.5 6.5 c 128,-1,14
 284 -25 284 -25 284 -62 c 0,15,16
 284 -94 284 -94 273 -142 c 128,-1,17
 262 -190 262 -190 256 -213 c 1,18,19
 264 -220 264 -220 282 -232 c 128,-1,20
 300 -244 300 -244 325 -255 c 0,21,22
 351 -266 351 -266 388.5 -274.5 c 128,-1,23
 426 -283 426 -283 476 -283 c 0,24,25
 540 -283 540 -283 597 -257 c 128,-1,26
 654 -231 654 -231 693 -180 c 0,27,28
 736 -124 736 -124 757.5 -52.5 c 128,-1,29
 779 19 779 19 779 129 c 0,30,31
 779 270 779 270 700.5 362.5 c 128,-1,32
 622 455 622 455 494 455 c 0,33,34
 414 455 414 455 344.5 425 c 128,-1,35
 275 395 275 395 220 325 c 1,36,-1
 153 351 l 1,37,-1
 238 1073 l 1,38,-1
 954 1073 l 1,39,-1
 954 895 l 1,40,-1
 319 895 l 1,41,-1
 267 471 l 1,42,43
 312 503 312 503 385.5 534.5 c 128,-1,44
 459 566 459 566 547 566 c 0,45,46
 620 566 620 566 698.5 543.5 c 128,-1,47
 777 521 777 521 843 469 c 256,0,1
EndSplineSet
EndChar

StartChar: six
Encoding: 54 54 25
Width: 1159
GlyphClass: 2
Flags: W
LayerCount: 2
Fore
SplineSet
1075 461 m 0,0,1
 1075 357 1075 357 1037.5 266 c 128,-1,2
 1000 175 1000 175 937 111 c 0,3,4
 864 38 864 38 775.5 3 c 128,-1,5
 687 -32 687 -32 591 -32 c 0,6,7
 480 -32 480 -32 390 9 c 128,-1,8
 300 50 300 50 237 125 c 0,9,10
 173 201 173 201 138 311 c 128,-1,11
 103 421 103 421 103 558 c 0,12,13
 103 915 103 915 315.5 1160 c 128,-1,14
 528 1405 528 1405 885 1454 c 1,15,-1
 903 1364 l 1,16,-1
 813 1348 l 1,17,18
 596 1278 596 1278 477.5 1130 c 128,-1,19
 359 982 359 982 324 771 c 1,20,21
 410 846 410 846 494 877 c 128,-1,22
 578 908 578 908 671 908 c 0,23,24
 838 908 838 908 956.5 780 c 128,-1,25
 1075 652 1075 652 1075 461 c 0,0,1
858 434 m 0,26,27
 858 596 858 596 783.5 694 c 128,-1,28
 709 792 709 792 584 792 c 0,29,30
 509 792 509 792 444.5 764 c 128,-1,31
 380 736 380 736 320 670 c 1,32,33
 319 658 319 658 317 614.5 c 128,-1,34
 315 571 315 571 315 546 c 0,35,36
 315 312 315 312 391.5 179.5 c 128,-1,37
 468 47 468 47 593 47 c 0,38,39
 712 47 712 47 785 150.5 c 128,-1,40
 858 254 858 254 858 434 c 0,26,27
EndSplineSet
EndChar

StartChar: seven
Encoding: 55 55 26
Width: 1029
GlyphClass: 2
Flags: W
LayerCount: 2
Fore
SplineSet
1029 1008 m 1,0,-1
 316 -365 l 1,1,-1
 191 -365 l 1,2,-1
 862 905 l 1,3,-1
 469 905 l 2,4,5
 382 905 382 905 333 903 c 128,-1,6
 284 901 284 901 243 884 c 0,7,8
 212 871 212 871 187.5 817.5 c 128,-1,9
 163 764 163 764 150 681 c 1,10,-1
 89 681 l 1,11,-1
 89 1073 l 1,12,-1
 1029 1073 l 1,13,-1
 1029 1008 l 1,0,-1
EndSplineSet
EndChar

StartChar: eight
Encoding: 56 56 27
Width: 1221
GlyphClass: 2
Flags: W
LayerCount: 2
Fore
SplineSet
1117 376 m 0,0,1
 1117 208 1117 208 972 87 c 128,-1,2
 827 -34 827 -34 591 -34 c 0,3,4
 370 -34 370 -34 237 77 c 128,-1,5
 104 188 104 188 104 363 c 0,6,7
 104 492 104 492 182.5 578.5 c 128,-1,8
 261 665 261 665 415 725 c 1,9,10
 288 796 288 796 225 881 c 128,-1,11
 162 966 162 966 162 1073 c 0,12,13
 162 1236 162 1236 300.5 1346 c 128,-1,14
 439 1456 439 1456 632 1456 c 256,15,16
 825 1456 825 1456 944.5 1352 c 128,-1,17
 1064 1248 1064 1248 1064 1091 c 0,18,19
 1064 990 1064 990 998 899.5 c 128,-1,20
 932 809 932 809 804 751 c 1,21,22
 970 680 970 680 1043.5 594 c 128,-1,23
 1117 508 1117 508 1117 376 c 0,0,1
875 1102 m 0,24,25
 875 1224 875 1224 802.5 1300.5 c 128,-1,26
 730 1377 730 1377 617 1377 c 256,27,28
 504 1377 504 1377 432 1303.5 c 128,-1,29
 360 1230 360 1230 360 1121 c 0,30,31
 360 1016 360 1016 442 943 c 128,-1,32
 524 870 524 870 734 787 c 1,33,34
 809 835 809 835 842 914 c 128,-1,35
 875 993 875 993 875 1102 c 0,24,25
917 329 m 0,36,37
 917 392 917 392 890 439.5 c 128,-1,38
 863 487 863 487 812 526 c 0,39,40
 763 564 763 564 675.5 605.5 c 128,-1,41
 588 647 588 647 486 690 c 1,42,43
 390 638 390 638 345 557.5 c 128,-1,44
 300 477 300 477 300 374 c 0,45,46
 300 227 300 227 386.5 136.5 c 128,-1,47
 473 46 473 46 617 46 c 0,48,49
 755 46 755 46 836 126 c 128,-1,50
 917 206 917 206 917 329 c 0,36,37
EndSplineSet
EndChar

StartChar: nine
Encoding: 57 57 28
Width: 1159
GlyphClass: 2
Flags: W
LayerCount: 2
Fore
SplineSet
1056 516 m 0,0,1
 1056 342 1056 342 1001 188.5 c 128,-1,2
 946 35 946 35 843 -81 c 0,3,4
 742 -195 742 -195 596.5 -270.5 c 128,-1,5
 451 -346 451 -346 271 -370 c 1,6,-1
 253 -280 l 1,7,-1
 343 -264 l 1,8,9
 558 -196 558 -196 679 -55 c 128,-1,10
 800 86 800 86 835 303 c 1,11,12
 753 233 753 233 671.5 200.5 c 128,-1,13
 590 168 590 168 488 168 c 0,14,15
 325 168 325 168 204.5 295 c 128,-1,16
 84 422 84 422 84 615 c 0,17,18
 84 822 84 822 223.5 964 c 128,-1,19
 363 1106 363 1106 568 1106 c 0,20,21
 791 1106 791 1106 923.5 947 c 128,-1,22
 1056 788 1056 788 1056 516 c 0,0,1
844 528 m 0,23,24
 844 762 844 762 767.5 894.5 c 128,-1,25
 691 1027 691 1027 566 1027 c 0,26,27
 447 1027 447 1027 374 924.5 c 128,-1,28
 301 822 301 822 301 642 c 0,29,30
 301 480 301 480 375.5 382 c 128,-1,31
 450 284 450 284 575 284 c 0,32,33
 653 284 653 284 718 312.5 c 128,-1,34
 783 341 783 341 839 404 c 0,35,36
 839 408 839 408 840.5 420 c 128,-1,37
 842 432 842 432 842 454 c 0,38,39
 842 468 842 468 843 488 c 128,-1,40
 844 508 844 508 844 528 c 0,23,24
EndSplineSet
EndChar

StartChar: colon
Encoding: 58 58 29
Width: 640
GlyphClass: 2
Flags: W
LayerCount: 2
Fore
SplineSet
457 853 m 256,0,1
 457 797 457 797 416.5 757 c 128,-1,2
 376 717 376 717 320 717 c 256,3,4
 264 717 264 717 223.5 757 c 128,-1,5
 183 797 183 797 183 853 c 256,6,7
 183 909 183 909 223 949.5 c 128,-1,8
 263 990 263 990 320 990 c 256,9,10
 377 990 377 990 417 949.5 c 128,-1,11
 457 909 457 909 457 853 c 256,0,1
457 115 m 256,12,13
 457 59 457 59 416.5 19.5 c 128,-1,14
 376 -20 376 -20 320 -20 c 256,15,16
 264 -20 264 -20 223.5 19.5 c 128,-1,17
 183 59 183 59 183 115 c 256,18,19
 183 171 183 171 223.5 211.5 c 128,-1,20
 264 252 264 252 320 252 c 256,21,22
 376 252 376 252 416.5 211.5 c 128,-1,23
 457 171 457 171 457 115 c 256,12,13
EndSplineSet
EndChar

StartChar: semicolon
Encoding: 59 59 30
AltUni2: 00037e.ffffffff.0
Width: 640
GlyphClass: 2
Flags: W
LayerCount: 2
Fore
SplineSet
457 853 m 256,0,1
 457 797 457 797 416.5 757 c 128,-1,2
 376 717 376 717 320 717 c 256,3,4
 264 717 264 717 223.5 757 c 128,-1,5
 183 797 183 797 183 853 c 256,6,7
 183 909 183 909 223 949.5 c 128,-1,8
 263 990 263 990 320 990 c 256,9,10
 377 990 377 990 417 949.5 c 128,-1,11
 457 909 457 909 457 853 c 256,0,1
474 35 m 0,12,13
 474 -37 474 -37 441.5 -100.5 c 128,-1,14
 409 -164 409 -164 367 -211 c 0,15,16
 324 -259 324 -259 276 -296 c 128,-1,17
 228 -333 228 -333 188 -354 c 1,18,-1
 142 -287 l 1,19,20
 190 -257 190 -257 227.5 -226.5 c 128,-1,21
 265 -196 265 -196 290 -167 c 0,22,23
 320 -132 320 -132 341 -91 c 128,-1,24
 362 -50 362 -50 368 2 c 1,25,-1
 317 2 l 2,26,27
 250 2 250 2 212.5 37 c 128,-1,28
 175 72 175 72 175 131 c 0,29,30
 175 173 175 173 209 212.5 c 128,-1,31
 243 252 243 252 302 252 c 0,32,33
 388 252 388 252 431 194.5 c 128,-1,34
 474 137 474 137 474 35 c 0,12,13
EndSplineSet
EndChar

StartChar: less
Encoding: 60 60 31
Width: 1317
GlyphClass: 2
Flags: W
LayerCount: 2
Fore
SplineSet
1118 22 m 1,0,-1
 193 503 l 1,1,-1
 193 616 l 1,2,-1
 1118 1097 l 1,3,-1
 1118 960 l 1,4,-1
 349 560 l 1,5,-1
 1118 159 l 1,6,-1
 1118 22 l 1,0,-1
EndSplineSet
EndChar

StartChar: equal
Encoding: 61 61 32
Width: 1317
GlyphClass: 2
Flags: W
LayerCount: 2
Fore
SplineSet
1163 683 m 1,0,-1
 154 683 l 1,1,-1
 154 808 l 1,2,-1
 1163 808 l 1,3,-1
 1163 683 l 1,0,-1
1163 311 m 1,4,-1
 154 311 l 1,5,-1
 154 436 l 1,6,-1
 1163 436 l 1,7,-1
 1163 311 l 1,4,-1
EndSplineSet
EndChar

StartChar: greater
Encoding: 62 62 33
Width: 1317
GlyphClass: 2
Flags: W
LayerCount: 2
Fore
SplineSet
1124 503 m 1,0,-1
 199 22 l 1,1,-1
 199 159 l 1,2,-1
 968 560 l 1,3,-1
 199 960 l 1,4,-1
 199 1097 l 1,5,-1
 1124 616 l 1,6,-1
 1124 503 l 1,0,-1
EndSplineSet
EndChar

StartChar: question
Encoding: 63 63 34
Width: 980
GlyphClass: 2
Flags: W
LayerCount: 2
Fore
SplineSet
771 1329 m 0,0,1
 826 1271 826 1271 852.5 1198.5 c 128,-1,2
 879 1126 879 1126 879 1041 c 0,3,4
 879 856 879 856 761 739 c 128,-1,5
 643 622 643 622 437 598 c 1,6,-1
 437 377 l 1,7,-1
 345 377 l 1,8,-1
 345 756 l 1,9,10
 408 761 408 761 470 776.5 c 128,-1,11
 532 792 532 792 581 827 c 0,12,13
 632 864 632 864 660.5 916.5 c 128,-1,14
 689 969 689 969 689 1063 c 0,15,16
 689 1213 689 1213 625.5 1293 c 128,-1,17
 562 1373 562 1373 440 1373 c 0,18,19
 394 1373 394 1373 359.5 1359.5 c 128,-1,20
 325 1346 325 1346 309 1334 c 1,21,22
 314 1310 314 1310 322.5 1265 c 128,-1,23
 331 1220 331 1220 331 1196 c 0,24,25
 331 1159 331 1159 299 1128.5 c 128,-1,26
 267 1098 267 1098 206 1098 c 0,27,28
 152 1098 152 1098 129 1135 c 128,-1,29
 106 1172 106 1172 106 1221 c 0,30,31
 106 1261 106 1261 128 1299.5 c 128,-1,32
 150 1338 150 1338 197 1374 c 0,33,34
 237 1406 237 1406 305.5 1429 c 128,-1,35
 374 1452 374 1452 448 1452 c 0,36,37
 554 1452 554 1452 636 1418.5 c 128,-1,38
 718 1385 718 1385 771 1329 c 0,0,1
531 115 m 256,39,40
 531 59 531 59 490.5 19.5 c 128,-1,41
 450 -20 450 -20 394 -20 c 256,42,43
 338 -20 338 -20 297.5 19.5 c 128,-1,44
 257 59 257 59 257 115 c 256,45,46
 257 171 257 171 297.5 211.5 c 128,-1,47
 338 252 338 252 394 252 c 256,48,49
 450 252 450 252 490.5 211.5 c 128,-1,50
 531 171 531 171 531 115 c 256,39,40
EndSplineSet
EndChar

StartChar: at
Encoding: 64 64 35
Width: 1902
GlyphClass: 2
Flags: W
LayerCount: 2
Fore
SplineSet
1530 -119 m 1,0,1
 1430 -206 1430 -206 1292.5 -259.5 c 128,-1,2
 1155 -313 1155 -313 986 -313 c 0,3,4
 835 -313 835 -313 689 -264.5 c 128,-1,5
 543 -216 543 -216 426 -117 c 0,6,7
 310 -18 310 -18 239 129.5 c 128,-1,8
 168 277 168 277 168 477 c 0,9,10
 168 648 168 648 232 809 c 128,-1,11
 296 970 296 970 415 1096 c 0,12,13
 530 1219 530 1219 699.5 1294.5 c 128,-1,14
 869 1370 869 1370 1069 1370 c 0,15,16
 1242 1370 1242 1370 1369 1314.5 c 128,-1,17
 1496 1259 1496 1259 1577 1168 c 0,18,19
 1658 1078 1658 1078 1698.5 961 c 128,-1,20
 1739 844 1739 844 1739 717 c 0,21,22
 1739 473 1739 473 1605 304.5 c 128,-1,23
 1471 136 1471 136 1266 136 c 0,24,25
 1181 136 1181 136 1122 178.5 c 128,-1,26
 1063 221 1063 221 1056 298 c 1,27,-1
 1049 300 l 1,28,29
 1001 227 1001 227 939.5 183.5 c 128,-1,30
 878 140 878 140 815 140 c 0,31,32
 774 140 774 140 731.5 153.5 c 128,-1,33
 689 167 689 167 656 198 c 0,34,35
 623 231 623 231 603.5 284 c 128,-1,36
 584 337 584 337 584 415 c 0,37,38
 584 488 584 488 617.5 578.5 c 128,-1,39
 651 669 651 669 708 751 c 0,40,41
 765 834 765 834 855.5 895 c 128,-1,42
 946 956 946 956 1051 956 c 0,43,44
 1107 956 1107 956 1150.5 924.5 c 128,-1,45
 1194 893 1194 893 1204 832 c 1,46,-1
 1210 832 l 1,47,-1
 1253 944 l 1,48,-1
 1402 944 l 1,49,-1
 1213 406 l 2,50,51
 1204 381 1204 381 1198.5 348.5 c 128,-1,52
 1193 316 1193 316 1193 297 c 0,53,54
 1193 246 1193 246 1219 222.5 c 128,-1,55
 1245 199 1245 199 1286 199 c 0,56,57
 1441 199 1441 199 1545 344.5 c 128,-1,58
 1649 490 1649 490 1649 728 c 0,59,60
 1649 846 1649 846 1612 946.5 c 128,-1,61
 1575 1047 1575 1047 1499 1124 c 0,62,63
 1426 1200 1426 1200 1315 1244 c 128,-1,64
 1204 1288 1204 1288 1061 1288 c 0,65,66
 925 1288 925 1288 796 1235 c 128,-1,67
 667 1182 667 1182 561 1079 c 0,68,69
 458 979 458 979 394 830 c 128,-1,70
 330 681 330 681 330 493 c 0,71,72
 330 312 330 312 380 174.5 c 128,-1,73
 430 37 430 37 521 -56 c 0,74,75
 610 -146 610 -146 731 -191 c 128,-1,76
 852 -236 852 -236 993 -236 c 0,77,78
 1152 -236 1152 -236 1276 -193 c 128,-1,79
 1400 -150 1400 -150 1499 -68 c 1,80,-1
 1530 -119 l 1,0,1
1182 742 m 1,81,82
 1168 823 1168 823 1137 860 c 128,-1,83
 1106 897 1106 897 1046 897 c 0,84,85
 982 897 982 897 928.5 845.5 c 128,-1,86
 875 794 875 794 838 723 c 0,87,88
 799 649 799 649 777.5 561.5 c 128,-1,89
 756 474 756 474 756 400 c 0,90,91
 756 315 756 315 776.5 269.5 c 128,-1,92
 797 224 797 224 844 224 c 0,93,94
 912 224 912 224 966 271 c 128,-1,95
 1020 318 1020 318 1067 404 c 1,96,-1
 1182 742 l 1,81,82
EndSplineSet
EndChar

StartChar: A
Encoding: 65 65 36
Width: 1374
GlyphClass: 2
Flags: W
LayerCount: 2
Fore
SplineSet
1421 0 m 1,0,-1
 830 0 l 1,1,-1
 830 71 l 1,2,3
 908 76 908 76 959.5 91 c 128,-1,4
 1011 106 1011 106 1011 128 c 0,5,6
 1011 137 1011 137 1009 150 c 128,-1,7
 1007 163 1007 163 1003 173 c 2,8,-1
 885 491 l 1,9,-1
 388 491 l 1,10,11
 360 421 360 421 342.5 369 c 128,-1,12
 325 317 325 317 311 273 c 0,13,14
 298 230 298 230 293 203 c 128,-1,15
 288 176 288 176 288 159 c 0,16,17
 288 119 288 119 351 97 c 128,-1,18
 414 75 414 75 493 71 c 1,19,-1
 493 0 l 1,20,-1
 -41 0 l 1,21,-1
 -41 71 l 1,22,23
 -15 73 -15 73 24 82.5 c 128,-1,24
 63 92 63 92 88 108 c 0,25,26
 128 135 128 135 150 164.5 c 128,-1,27
 172 194 172 194 193 246 c 0,28,29
 300 513 300 513 429 846 c 128,-1,30
 558 1179 558 1179 659 1439 c 1,31,-1
 739 1439 l 1,32,-1
 1212 215 l 2,33,34
 1227 176 1227 176 1246 152 c 128,-1,35
 1265 128 1265 128 1299 105 c 0,36,37
 1322 91 1322 91 1359 81.5 c 128,-1,38
 1396 72 1396 72 1421 71 c 1,39,-1
 1421 0 l 1,0,-1
849 580 m 1,40,-1
 634 1130 l 1,41,-1
 423 580 l 1,42,-1
 849 580 l 1,40,-1
EndSplineSet
EndChar

StartChar: B
Encoding: 66 66 37
Width: 1339
GlyphClass: 2
Flags: W
LayerCount: 2
Fore
SplineSet
1104 661 m 0,0,1
 1166 619 1166 619 1207 551 c 128,-1,2
 1248 483 1248 483 1248 386 c 0,3,4
 1248 287 1248 287 1205 214 c 128,-1,5
 1162 141 1162 141 1093 94 c 0,6,7
 1026 48 1026 48 941.5 24 c 128,-1,8
 857 0 857 0 767 0 c 2,9,-1
 95 0 l 1,10,-1
 95 71 l 1,11,12
 119 73 119 73 165 79.5 c 128,-1,13
 211 86 211 86 231 95 c 0,14,15
 262 109 262 109 275 132.5 c 128,-1,16
 288 156 288 156 288 193 c 2,17,-1
 288 1213 l 2,18,19
 288 1247 288 1247 276.5 1273 c 128,-1,20
 265 1299 265 1299 231 1315 c 0,21,22
 201 1330 201 1330 164 1338 c 128,-1,23
 127 1346 127 1346 102 1348 c 1,24,-1
 102 1419 l 1,25,-1
 757 1419 l 2,26,27
 833 1419 833 1419 902.5 1404 c 128,-1,28
 972 1389 972 1389 1035 1351 c 0,29,30
 1094 1316 1094 1316 1132 1256 c 128,-1,31
 1170 1196 1170 1196 1170 1110 c 0,32,33
 1170 1035 1170 1035 1143 976.5 c 128,-1,34
 1116 918 1116 918 1067 876 c 0,35,36
 1021 836 1021 836 961.5 808.5 c 128,-1,37
 902 781 902 781 833 766 c 1,38,-1
 833 757 l 1,39,40
 894 750 894 750 969.5 726.5 c 128,-1,41
 1045 703 1045 703 1104 661 c 0,0,1
863 875 m 0,42,43
 900 918 900 918 914.5 969 c 128,-1,44
 929 1020 929 1020 929 1090 c 0,45,46
 929 1207 929 1207 865 1273.5 c 128,-1,47
 801 1340 801 1340 663 1340 c 0,48,49
 631 1340 631 1340 582.5 1338.5 c 128,-1,50
 534 1337 534 1337 501 1336 c 1,51,-1
 501 791 l 1,52,-1
 628 791 l 2,53,54
 710 791 710 791 768.5 812 c 128,-1,55
 827 833 827 833 863 875 c 0,42,43
1001 422 m 0,56,57
 1001 548 1001 548 916.5 629 c 128,-1,58
 832 710 832 710 675 710 c 0,59,60
 611 710 611 710 567 708.5 c 128,-1,61
 523 707 523 707 501 706 c 1,62,-1
 501 206 l 2,63,64
 501 143 501 143 552 111 c 128,-1,65
 603 79 603 79 694 79 c 0,66,67
 843 79 843 79 922 166 c 128,-1,68
 1001 253 1001 253 1001 422 c 0,56,57
EndSplineSet
EndChar

StartChar: C
Encoding: 67 67 38
Width: 1315
GlyphClass: 2
Flags: W
LayerCount: 2
Fore
SplineSet
723 -33 m 0,0,1
 596 -33 596 -33 479.5 17 c 128,-1,2
 363 67 363 67 273 161 c 0,3,4
 184 255 184 255 131 390.5 c 128,-1,5
 78 526 78 526 78 696 c 256,6,7
 78 866 78 866 130 1004.5 c 128,-1,8
 182 1143 182 1143 274 1243 c 0,9,10
 365 1342 365 1342 489 1396 c 128,-1,11
 613 1450 613 1450 754 1450 c 0,12,13
 859 1450 859 1450 944 1424 c 128,-1,14
 1029 1398 1029 1398 1106 1351 c 1,15,-1
 1147 1419 l 1,16,-1
 1227 1419 l 1,17,-1
 1236 913 l 1,18,-1
 1154 913 l 1,19,20
 1138 987 1138 987 1106 1073.5 c 128,-1,21
 1074 1160 1074 1160 1031 1220 c 0,22,23
 983 1288 983 1288 917 1326.5 c 128,-1,24
 851 1365 851 1365 766 1365 c 0,25,26
 669 1365 669 1365 585.5 1322 c 128,-1,27
 502 1279 502 1279 441 1195 c 0,28,29
 383 1114 383 1114 350 989 c 128,-1,30
 317 864 317 864 317 710 c 0,31,32
 317 574 317 574 351.5 460.5 c 128,-1,33
 386 347 386 347 450 261 c 0,34,35
 514 176 514 176 601.5 128 c 128,-1,36
 689 80 689 80 797 80 c 0,37,38
 878 80 878 80 946 105.5 c 128,-1,39
 1014 131 1014 131 1064 173 c 0,40,41
 1114 217 1114 217 1152 273 c 128,-1,42
 1190 329 1190 329 1214 395 c 1,43,-1
 1289 359 l 1,44,45
 1203 148 1203 148 1061 57.5 c 128,-1,46
 919 -33 919 -33 723 -33 c 0,0,1
EndSplineSet
EndChar

StartChar: D
Encoding: 68 68 39
Width: 1534
GlyphClass: 2
Flags: W
LayerCount: 2
Fore
SplineSet
1457 701 m 0,0,1
 1457 520 1457 520 1389 387 c 128,-1,2
 1321 254 1321 254 1212 169 c 0,3,4
 1102 84 1102 84 965 42 c 128,-1,5
 828 0 828 0 682 0 c 2,6,-1
 94 0 l 1,7,-1
 94 71 l 1,8,9
 123 71 123 71 169.5 76.5 c 128,-1,10
 216 82 216 82 231 89 c 0,11,12
 261 102 261 102 274.5 127.5 c 128,-1,13
 288 153 288 153 288 189 c 2,14,-1
 288 1213 l 2,15,16
 288 1247 288 1247 276.5 1274 c 128,-1,17
 265 1301 265 1301 231 1317 c 0,18,19
 200 1332 200 1332 164 1339 c 128,-1,20
 128 1346 128 1346 102 1348 c 1,21,-1
 102 1419 l 1,22,-1
 722 1419 l 2,23,24
 850 1419 850 1419 974 1379.5 c 128,-1,25
 1098 1340 1098 1340 1190 1273 c 0,26,27
 1315 1184 1315 1184 1386 1040 c 128,-1,28
 1457 896 1457 896 1457 701 c 0,0,1
1212 702 m 0,29,30
 1212 845 1212 845 1174 960.5 c 128,-1,31
 1136 1076 1136 1076 1063 1162 c 0,32,33
 994 1244 994 1244 893.5 1291 c 128,-1,34
 793 1338 793 1338 670 1338 c 0,35,36
 629 1338 629 1338 577.5 1336.5 c 128,-1,37
 526 1335 526 1335 501 1334 c 1,38,-1
 501 243 l 2,39,40
 501 152 501 152 554 117 c 128,-1,41
 607 82 607 82 717 82 c 0,42,43
 844 82 844 82 939 127 c 128,-1,44
 1034 172 1034 172 1093 252 c 0,45,46
 1155 336 1155 336 1183.5 446.5 c 128,-1,47
 1212 557 1212 557 1212 702 c 0,29,30
EndSplineSet
EndChar

StartChar: E
Encoding: 69 69 40
Width: 1338
GlyphClass: 2
Flags: W
LayerCount: 2
Fore
SplineSet
1291 418 m 1,0,-1
 1264 0 l 1,1,-1
 86 0 l 1,2,-1
 86 71 l 1,3,4
 116 73 116 73 166 79.5 c 128,-1,5
 216 86 216 86 231 93 c 0,6,7
 263 108 263 108 275.5 132 c 128,-1,8
 288 156 288 156 288 193 c 2,9,-1
 288 1213 l 2,10,11
 288 1246 288 1246 277 1271.5 c 128,-1,12
 266 1297 266 1297 231 1313 c 0,13,14
 204 1326 204 1326 158.5 1336 c 128,-1,15
 113 1346 113 1346 86 1348 c 1,16,-1
 86 1419 l 1,17,-1
 1184 1419 l 1,18,-1
 1184 1077 l 1,19,-1
 1109 1077 l 1,20,21
 1089 1153 1089 1153 1022.5 1238.5 c 128,-1,22
 956 1324 956 1324 896 1332 c 0,23,24
 865 1336 865 1336 822 1338 c 128,-1,25
 779 1340 779 1340 724 1340 c 2,26,-1
 501 1340 l 1,27,-1
 501 776 l 1,28,-1
 661 776 l 2,29,30
 738 776 738 776 773.5 790.5 c 128,-1,31
 809 805 809 805 836 839 c 0,32,33
 858 868 858 868 873.5 916.5 c 128,-1,34
 889 965 889 965 894 1008 c 1,35,-1
 969 1008 l 1,36,-1
 969 453 l 1,37,-1
 894 453 l 1,38,39
 890 501 890 501 872.5 554.5 c 128,-1,40
 855 608 855 608 836 632 c 0,41,42
 805 671 805 671 765.5 683 c 128,-1,43
 726 695 726 695 661 695 c 2,44,-1
 501 695 l 1,45,-1
 501 269 l 2,46,47
 501 205 501 205 510 168 c 128,-1,48
 519 131 519 131 545 112 c 256,49,50
 571 93 571 93 616 87.5 c 128,-1,51
 661 82 661 82 744 82 c 0,52,53
 777 82 777 82 831 82 c 128,-1,54
 885 82 885 82 922 86 c 0,55,56
 960 90 960 90 1000.5 100.5 c 128,-1,57
 1041 111 1041 111 1058 129 c 0,58,59
 1104 177 1104 177 1154.5 274.5 c 128,-1,60
 1205 372 1205 372 1219 418 c 1,61,-1
 1291 418 l 1,0,-1
EndSplineSet
EndChar

StartChar: F
Encoding: 70 70 41
Width: 1227
GlyphClass: 2
Flags: W
LayerCount: 2
Fore
SplineSet
1199 1064 m 1,0,-1
 1124 1064 l 1,1,2
 1103 1143 1103 1143 1036.5 1233 c 128,-1,3
 970 1323 970 1323 909 1332 c 0,4,5
 878 1336 878 1336 835.5 1338 c 128,-1,6
 793 1340 793 1340 739 1340 c 2,7,-1
 501 1340 l 1,8,-1
 501 770 l 1,9,-1
 664 770 l 2,10,11
 738 770 738 770 779 785.5 c 128,-1,12
 820 801 820 801 849 833 c 0,13,14
 869 855 869 855 885.5 901.5 c 128,-1,15
 902 948 902 948 907 1001 c 1,16,-1
 983 1001 l 1,17,-1
 983 444 l 1,18,-1
 907 444 l 1,19,20
 904 488 904 488 886.5 544 c 128,-1,21
 869 600 869 600 849 625 c 0,22,23
 819 662 819 662 773.5 675.5 c 128,-1,24
 728 689 728 689 664 689 c 2,25,-1
 501 689 l 1,26,-1
 501 200 l 2,27,28
 501 167 501 167 514 141 c 128,-1,29
 527 115 527 115 560 99 c 0,30,31
 575 92 575 92 625 82 c 128,-1,32
 675 72 675 72 701 71 c 1,33,-1
 701 0 l 1,34,-1
 86 0 l 1,35,-1
 86 71 l 1,36,37
 116 73 116 73 166 77.5 c 128,-1,38
 216 82 216 82 231 89 c 0,39,40
 261 102 261 102 274.5 127.5 c 128,-1,41
 288 153 288 153 288 189 c 2,42,-1
 288 1213 l 2,43,44
 288 1246 288 1246 277 1271.5 c 128,-1,45
 266 1297 266 1297 231 1313 c 0,46,47
 204 1326 204 1326 158.5 1336 c 128,-1,48
 113 1346 113 1346 86 1348 c 1,49,-1
 86 1419 l 1,50,-1
 1199 1419 l 1,51,-1
 1199 1064 l 1,0,-1
EndSplineSet
EndChar

StartChar: G
Encoding: 71 71 42
Width: 1485
GlyphClass: 2
Flags: W
LayerCount: 2
Fore
SplineSet
1471 567 m 1,0,1
 1447 564 1447 564 1406.5 557.5 c 128,-1,2
 1366 551 1366 551 1341 539 c 0,3,4
 1311 524 1311 524 1298.5 496.5 c 128,-1,5
 1286 469 1286 469 1286 432 c 2,6,-1
 1286 322 l 2,7,8
 1286 202 1286 202 1287.5 160 c 128,-1,9
 1289 118 1289 118 1291 91 c 1,10,11
 1158 31 1158 31 1026 -1 c 128,-1,12
 894 -33 894 -33 767 -33 c 0,13,14
 631 -33 631 -33 505 18 c 128,-1,15
 379 69 379 69 285 163 c 0,16,17
 190 258 190 258 134 394 c 128,-1,18
 78 530 78 530 78 698 c 0,19,20
 78 860 78 860 131.5 998.5 c 128,-1,21
 185 1137 185 1137 283 1239 c 0,22,23
 378 1339 378 1339 509.5 1394.5 c 128,-1,24
 641 1450 641 1450 791 1450 c 0,25,26
 911 1450 911 1450 1000 1421 c 128,-1,27
 1089 1392 1089 1392 1157 1351 c 1,28,-1
 1198 1419 l 1,29,-1
 1278 1419 l 1,30,-1
 1287 923 l 1,31,-1
 1205 923 l 1,32,33
 1184 1005 1184 1005 1153 1084.5 c 128,-1,34
 1122 1164 1122 1164 1073 1227 c 256,35,36
 1024 1290 1024 1290 953.5 1327.5 c 128,-1,37
 883 1365 883 1365 785 1365 c 0,38,39
 678 1365 678 1365 594 1321.5 c 128,-1,40
 510 1278 510 1278 448 1192 c 0,41,42
 387 1109 387 1109 354 985 c 128,-1,43
 321 861 321 861 321 708 c 0,44,45
 321 573 321 573 353.5 453.5 c 128,-1,46
 386 334 386 334 448 247 c 0,47,48
 510 158 510 158 603 107 c 128,-1,49
 696 56 696 56 814 56 c 0,50,51
 902 56 902 56 974.5 83 c 128,-1,52
 1047 110 1047 110 1077 140 c 1,53,54
 1085 192 1085 192 1085.5 245 c 128,-1,55
 1086 298 1086 298 1086 335 c 2,56,-1
 1086 413 l 2,57,58
 1086 455 1086 455 1074.5 487.5 c 128,-1,59
 1063 520 1063 520 1027 535 c 0,60,61
 994 550 994 550 937.5 557.5 c 128,-1,62
 881 565 881 565 849 567 c 1,63,-1
 849 640 l 1,64,-1
 1471 640 l 1,65,-1
 1471 567 l 1,0,1
EndSplineSet
EndChar

StartChar: H
Encoding: 72 72 43
Width: 1669
GlyphClass: 2
Flags: W
LayerCount: 2
Fore
SplineSet
1567 0 m 1,0,-1
 978 0 l 1,1,-1
 978 71 l 1,2,3
 1002 73 1002 73 1047.5 77 c 128,-1,4
 1093 81 1093 81 1110 89 c 0,5,6
 1140 101 1140 101 1154 125.5 c 128,-1,7
 1168 150 1168 150 1168 189 c 2,8,-1
 1168 694 l 1,9,-1
 501 694 l 1,10,-1
 501 200 l 2,11,12
 501 165 501 165 512.5 141 c 128,-1,13
 524 117 524 117 558 99 c 0,14,15
 575 90 575 90 618.5 81 c 128,-1,16
 662 72 662 72 687 71 c 1,17,-1
 687 0 l 1,18,-1
 98 0 l 1,19,-1
 98 71 l 1,20,21
 122 73 122 73 167.5 77 c 128,-1,22
 213 81 213 81 230 89 c 0,23,24
 260 101 260 101 274 125.5 c 128,-1,25
 288 150 288 150 288 189 c 2,26,-1
 288 1213 l 2,27,28
 288 1245 288 1245 275 1271.5 c 128,-1,29
 262 1298 262 1298 230 1313 c 0,30,31
 203 1326 203 1326 164.5 1336 c 128,-1,32
 126 1346 126 1346 98 1348 c 1,33,-1
 98 1419 l 1,34,-1
 687 1419 l 1,35,-1
 687 1348 l 1,36,37
 659 1347 659 1347 618.5 1339 c 128,-1,38
 578 1331 578 1331 558 1324 c 0,39,40
 524 1312 524 1312 512.5 1284 c 128,-1,41
 501 1256 501 1256 501 1223 c 2,42,-1
 501 783 l 1,43,-1
 1168 783 l 1,44,-1
 1168 1213 l 2,45,46
 1168 1245 1168 1245 1155 1271.5 c 128,-1,47
 1142 1298 1142 1298 1110 1313 c 0,48,49
 1083 1326 1083 1326 1044.5 1336 c 128,-1,50
 1006 1346 1006 1346 978 1348 c 1,51,-1
 978 1419 l 1,52,-1
 1567 1419 l 1,53,-1
 1567 1348 l 1,54,55
 1539 1347 1539 1347 1498.5 1339 c 128,-1,56
 1458 1331 1458 1331 1438 1324 c 0,57,58
 1404 1312 1404 1312 1392.5 1284 c 128,-1,59
 1381 1256 1381 1256 1381 1223 c 2,60,-1
 1381 200 l 2,61,62
 1381 165 1381 165 1392.5 141 c 128,-1,63
 1404 117 1404 117 1438 99 c 0,64,65
 1455 90 1455 90 1498.5 81 c 128,-1,66
 1542 72 1542 72 1567 71 c 1,67,-1
 1567 0 l 1,0,-1
EndSplineSet
EndChar

StartChar: I
Encoding: 73 73 44
Width: 798
GlyphClass: 2
Flags: W
LayerCount: 2
Fore
SplineSet
718 0 m 1,0,-1
 79 0 l 1,1,-1
 79 71 l 1,2,3
 106 73 106 73 157 77 c 128,-1,4
 208 81 208 81 229 89 c 0,5,6
 262 102 262 102 277 124.5 c 128,-1,7
 292 147 292 147 292 187 c 2,8,-1
 292 1215 l 2,9,10
 292 1250 292 1250 281 1273.5 c 128,-1,11
 270 1297 270 1297 229 1313 c 0,12,13
 199 1325 199 1325 153.5 1335.5 c 128,-1,14
 108 1346 108 1346 79 1348 c 1,15,-1
 79 1419 l 1,16,-1
 718 1419 l 1,17,-1
 718 1348 l 1,18,19
 687 1347 687 1347 644 1340.5 c 128,-1,20
 601 1334 601 1334 569 1324 c 0,21,22
 531 1312 531 1312 518 1285 c 128,-1,23
 505 1258 505 1258 505 1225 c 2,24,-1
 505 198 l 2,25,26
 505 165 505 165 519.5 139.5 c 128,-1,27
 534 114 534 114 569 99 c 0,28,29
 590 91 590 91 637.5 81.5 c 128,-1,30
 685 72 685 72 718 71 c 1,31,-1
 718 0 l 1,0,-1
EndSplineSet
EndChar

StartChar: J
Encoding: 74 74 45
Width: 1060
GlyphClass: 2
Flags: W
LayerCount: 2
Fore
SplineSet
1006 1348 m 1,0,1
 978 1347 978 1347 936.5 1340.5 c 128,-1,2
 895 1334 895 1334 866 1324 c 0,3,4
 832 1312 832 1312 820 1284 c 128,-1,5
 808 1256 808 1256 808 1223 c 2,6,-1
 808 382 l 2,7,8
 808 316 808 316 781.5 242 c 128,-1,9
 755 168 755 168 704 110 c 0,10,11
 645 42 645 42 563.5 4 c 128,-1,12
 482 -34 482 -34 377 -34 c 0,13,14
 214 -34 214 -34 112.5 57.5 c 128,-1,15
 11 149 11 149 11 304 c 0,16,17
 11 372 11 372 46 424.5 c 128,-1,18
 81 477 81 477 148 477 c 0,19,20
 208 477 208 477 244.5 443.5 c 128,-1,21
 281 410 281 410 281 355 c 0,22,23
 281 323 281 323 268 291 c 128,-1,24
 255 259 255 259 239 234 c 0,25,26
 224 211 224 211 205 180 c 128,-1,27
 186 149 186 149 178 124 c 1,28,29
 199 91 199 91 243.5 66 c 128,-1,30
 288 41 288 41 363 41 c 0,31,32
 436 41 436 41 482.5 74.5 c 128,-1,33
 529 108 529 108 552 164 c 0,34,35
 574 216 574 216 583.5 292 c 128,-1,36
 593 368 593 368 593 462 c 2,37,-1
 593 1213 l 2,38,39
 593 1248 593 1248 581.5 1271.5 c 128,-1,40
 570 1295 570 1295 534 1313 c 0,41,42
 503 1329 503 1329 456.5 1337.5 c 128,-1,43
 410 1346 410 1346 380 1348 c 1,44,-1
 380 1419 l 1,45,-1
 1006 1419 l 1,46,-1
 1006 1348 l 1,0,1
EndSplineSet
EndChar

StartChar: K
Encoding: 75 75 46
Width: 1422
GlyphClass: 2
Flags: W
LayerCount: 2
Fore
SplineSet
1475 0 m 1,0,-1
 1077 0 l 1,1,2
 962 178 962 178 821.5 353.5 c 128,-1,3
 681 529 681 529 527 694 c 1,4,-1
 501 694 l 1,5,-1
 501 200 l 2,6,7
 501 167 501 167 513.5 141 c 128,-1,8
 526 115 526 115 559 99 c 0,9,10
 575 92 575 92 618.5 82 c 128,-1,11
 662 72 662 72 691 71 c 1,12,-1
 691 0 l 1,13,-1
 102 0 l 1,14,-1
 102 71 l 1,15,16
 125 73 125 73 169 77 c 128,-1,17
 213 81 213 81 231 89 c 0,18,19
 261 102 261 102 274.5 127.5 c 128,-1,20
 288 153 288 153 288 189 c 2,21,-1
 288 1213 l 2,22,23
 288 1247 288 1247 276.5 1272 c 128,-1,24
 265 1297 265 1297 231 1313 c 0,25,26
 204 1326 204 1326 167 1336 c 128,-1,27
 130 1346 130 1346 102 1348 c 1,28,-1
 102 1419 l 1,29,-1
 691 1419 l 1,30,-1
 691 1348 l 1,31,32
 663 1347 663 1347 621 1339 c 128,-1,33
 579 1331 579 1331 559 1324 c 0,34,35
 525 1312 525 1312 513 1284 c 128,-1,36
 501 1256 501 1256 501 1223 c 2,37,-1
 501 733 l 1,38,-1
 521 733 l 1,39,40
 611 809 611 809 698 891.5 c 128,-1,41
 785 974 785 974 856 1056 c 0,42,43
 935 1147 935 1147 971.5 1201.5 c 128,-1,44
 1008 1256 1008 1256 1008 1298 c 0,45,46
 1008 1313 1008 1313 989.5 1322.5 c 128,-1,47
 971 1332 971 1332 947 1338 c 0,48,49
 919 1344 919 1344 897 1345.5 c 128,-1,50
 875 1347 875 1347 861 1348 c 1,51,-1
 861 1419 l 1,52,-1
 1393 1419 l 1,53,-1
 1393 1348 l 2,54,55
 1390 1348 1390 1348 1380 1347 c 128,-1,56
 1370 1346 1370 1346 1357 1345 c 0,57,58
 1343 1344 1343 1344 1329 1341 c 128,-1,59
 1315 1338 1315 1338 1293 1334 c 0,60,61
 1258 1326 1258 1326 1220.5 1308.5 c 128,-1,62
 1183 1291 1183 1291 1159 1265 c 0,63,64
 1056 1148 1056 1148 944 1023 c 128,-1,65
 832 898 832 898 722 795 c 1,66,67
 874 623 874 623 973.5 499 c 128,-1,68
 1073 375 1073 375 1185 234 c 0,69,70
 1228 180 1228 180 1271 147.5 c 128,-1,71
 1314 115 1314 115 1345 99 c 0,72,73
 1371 86 1371 86 1410 79 c 128,-1,74
 1449 72 1449 72 1475 71 c 1,75,-1
 1475 0 l 1,0,-1
EndSplineSet
EndChar

StartChar: L
Encoding: 76 76 47
Width: 1236
GlyphClass: 2
Flags: W
LayerCount: 2
Fore
SplineSet
1237 422 m 1,0,-1
 1207 0 l 1,1,-1
 98 0 l 1,2,-1
 98 71 l 1,3,4
 122 73 122 73 167.5 78 c 128,-1,5
 213 83 213 83 231 91 c 0,6,7
 261 104 261 104 274.5 129 c 128,-1,8
 288 154 288 154 288 193 c 2,9,-1
 288 1209 l 2,10,11
 288 1243 288 1243 276.5 1269 c 128,-1,12
 265 1295 265 1295 231 1311 c 0,13,14
 208 1323 208 1323 166.5 1334.5 c 128,-1,15
 125 1346 125 1346 98 1348 c 1,16,-1
 98 1419 l 1,17,-1
 697 1419 l 1,18,-1
 697 1348 l 1,19,20
 669 1347 669 1347 624.5 1338 c 128,-1,21
 580 1329 580 1329 560 1322 c 0,22,23
 526 1310 526 1310 513.5 1281 c 128,-1,24
 501 1252 501 1252 501 1219 c 2,25,-1
 501 266 l 2,26,27
 501 200 501 200 507.5 163.5 c 128,-1,28
 514 127 514 127 538 107 c 0,29,30
 561 89 561 89 606.5 83.5 c 128,-1,31
 652 78 652 78 734 78 c 0,32,33
 771 78 771 78 811 80 c 128,-1,34
 851 82 851 82 887 88 c 0,35,36
 922 94 922 94 951.5 104.5 c 128,-1,37
 981 115 981 115 995 131 c 0,38,39
 1036 177 1036 177 1090.5 270.5 c 128,-1,40
 1145 364 1145 364 1166 422 c 1,41,-1
 1237 422 l 1,0,-1
EndSplineSet
EndChar

StartChar: M
Encoding: 77 77 48
Width: 1899
GlyphClass: 2
Flags: W
LayerCount: 2
Fore
SplineSet
1806 0 m 1,0,-1
 1179 0 l 1,1,-1
 1179 71 l 1,2,3
 1213 72 1213 72 1266.5 78 c 128,-1,4
 1320 84 1320 84 1340 95 c 0,5,6
 1371 114 1371 114 1385.5 138.5 c 128,-1,7
 1400 163 1400 163 1400 200 c 2,8,-1
 1400 1232 l 1,9,-1
 1385 1232 l 1,10,-1
 901 23 l 1,11,-1
 851 23 l 1,12,-1
 390 1257 l 1,13,-1
 377 1257 l 1,14,-1
 377 410 l 2,15,16
 377 287 377 287 392.5 223 c 128,-1,17
 408 159 408 159 440 131 c 0,18,19
 462 110 462 110 531 91 c 128,-1,20
 600 72 600 72 621 71 c 1,21,-1
 621 0 l 1,22,-1
 48 0 l 1,23,-1
 48 71 l 1,24,25
 93 75 93 75 142.5 86 c 128,-1,26
 192 97 192 97 219 119 c 0,27,28
 254 147 254 147 267 205 c 128,-1,29
 280 263 280 263 280 399 c 2,30,-1
 280 1125 l 2,31,32
 280 1188 280 1188 265 1228 c 128,-1,33
 250 1268 250 1268 222 1293 c 0,34,35
 191 1320 191 1320 146 1333 c 128,-1,36
 101 1346 101 1346 57 1348 c 1,37,-1
 57 1419 l 1,38,-1
 541 1419 l 1,39,-1
 947 355 l 1,40,-1
 1294 1245 l 2,41,42
 1313 1294 1313 1294 1326.5 1347.5 c 128,-1,43
 1340 1401 1340 1401 1341 1419 c 1,44,-1
 1804 1419 l 1,45,-1
 1804 1348 l 1,46,47
 1776 1347 1776 1347 1732.5 1339 c 128,-1,48
 1689 1331 1689 1331 1669 1324 c 0,49,50
 1635 1312 1635 1312 1623 1284 c 128,-1,51
 1611 1256 1611 1256 1611 1223 c 2,52,-1
 1611 200 l 2,53,54
 1611 165 1611 165 1623 141 c 128,-1,55
 1635 117 1635 117 1669 99 c 0,56,57
 1687 89 1687 89 1733 80.5 c 128,-1,58
 1779 72 1779 72 1806 71 c 1,59,-1
 1806 0 l 1,0,-1
EndSplineSet
EndChar

StartChar: N
Encoding: 78 78 49
Width: 1571
GlyphClass: 2
Flags: W
LayerCount: 2
Fore
SplineSet
1554 1348 m 1,0,1
 1526 1347 1526 1347 1468 1332 c 128,-1,2
 1410 1317 1410 1317 1385 1301 c 0,3,4
 1349 1276 1349 1276 1336.5 1205 c 128,-1,5
 1324 1134 1324 1134 1324 1025 c 2,6,-1
 1324 -14 l 1,7,-1
 1237 -14 l 1,8,-1
 377 1147 l 1,9,-1
 377 415 l 2,10,11
 377 292 377 292 392.5 226 c 128,-1,12
 408 160 408 160 440 132 c 0,13,14
 463 110 463 110 535 91 c 128,-1,15
 607 72 607 72 630 71 c 1,16,-1
 630 0 l 1,17,-1
 48 0 l 1,18,-1
 48 71 l 1,19,20
 75 73 75 73 139 90.5 c 128,-1,21
 203 108 203 108 219 122 c 0,22,23
 254 150 254 150 267 207.5 c 128,-1,24
 280 265 280 265 280 404 c 2,25,-1
 280 1103 l 2,26,27
 280 1149 280 1149 264 1195 c 128,-1,28
 248 1241 248 1241 221 1266 c 0,29,30
 185 1299 185 1299 123.5 1322.5 c 128,-1,31
 62 1346 62 1346 24 1348 c 1,32,-1
 24 1419 l 1,33,-1
 429 1419 l 1,34,-1
 1227 337 l 1,35,-1
 1227 1012 l 2,36,37
 1227 1136 1227 1136 1211 1202.5 c 128,-1,38
 1195 1269 1195 1269 1165 1291 c 0,39,40
 1137 1310 1137 1310 1073.5 1328 c 128,-1,41
 1010 1346 1010 1346 977 1348 c 1,42,-1
 977 1419 l 1,43,-1
 1554 1419 l 1,44,-1
 1554 1348 l 1,0,1
EndSplineSet
EndChar

StartChar: O
Encoding: 79 79 50
Width: 1524
GlyphClass: 2
Flags: W
LayerCount: 2
Fore
SplineSet
1244 1251 m 0,0,1
 1338 1153 1338 1153 1391 1014.5 c 128,-1,2
 1444 876 1444 876 1444 708 c 0,3,4
 1444 539 1444 539 1390 401 c 128,-1,5
 1336 263 1336 263 1240 166 c 0,6,7
 1147 70 1147 70 1024 18 c 128,-1,8
 901 -34 901 -34 762 -34 c 0,9,10
 614 -34 614 -34 488.5 21.5 c 128,-1,11
 363 77 363 77 273 176 c 0,12,13
 183 273 183 273 131.5 411.5 c 128,-1,14
 80 550 80 550 80 708 c 0,15,16
 80 881 80 881 134 1016.5 c 128,-1,17
 188 1152 188 1152 283 1251 c 0,18,19
 377 1349 377 1349 501.5 1401 c 128,-1,20
 626 1453 626 1453 762 1453 c 0,21,22
 903 1453 903 1453 1028 1400 c 128,-1,23
 1153 1347 1153 1347 1244 1251 c 0,0,1
1095 245 m 0,24,25
 1151 336 1151 336 1176.5 451 c 128,-1,26
 1202 566 1202 566 1202 708 c 0,27,28
 1202 854 1202 854 1173.5 976 c 128,-1,29
 1145 1098 1145 1098 1090 1184 c 0,30,31
 1035 1269 1035 1269 952 1316.5 c 128,-1,32
 869 1364 869 1364 762 1364 c 0,33,34
 642 1364 642 1364 558 1309 c 128,-1,35
 474 1254 474 1254 421 1162 c 0,36,37
 371 1074 371 1074 346.5 956 c 128,-1,38
 322 838 322 838 322 708 c 0,39,40
 322 564 322 564 348 448 c 128,-1,41
 374 332 374 332 430 242 c 0,42,43
 484 154 484 154 566 104.5 c 128,-1,44
 648 55 648 55 762 55 c 0,45,46
 869 55 869 55 955 105 c 128,-1,47
 1041 155 1041 155 1095 245 c 0,24,25
EndSplineSet
EndChar

StartChar: P
Encoding: 80 80 51
Width: 1249
GlyphClass: 2
Flags: W
LayerCount: 2
Fore
SplineSet
1184 1069 m 0,0,1
 1184 958 1184 958 1140.5 872.5 c 128,-1,2
 1097 787 1097 787 1020 731 c 0,3,4
 944 675 944 675 853 649 c 128,-1,5
 762 623 762 623 660 623 c 2,6,-1
 501 623 l 1,7,-1
 501 193 l 2,8,9
 501 158 501 158 512.5 131.5 c 128,-1,10
 524 105 524 105 560 91 c 0,11,12
 578 84 578 84 623.5 78 c 128,-1,13
 669 72 669 72 707 71 c 1,14,-1
 707 0 l 1,15,-1
 98 0 l 1,16,-1
 98 71 l 1,17,18
 122 73 122 73 167.5 78 c 128,-1,19
 213 83 213 83 231 91 c 0,20,21
 261 104 261 104 274.5 129 c 128,-1,22
 288 154 288 154 288 193 c 2,23,-1
 288 1217 l 2,24,25
 288 1252 288 1252 278 1280 c 128,-1,26
 268 1308 268 1308 231 1322 c 0,27,28
 193 1335 193 1335 155.5 1340.5 c 128,-1,29
 118 1346 118 1346 91 1348 c 1,30,-1
 91 1419 l 1,31,-1
 739 1419 l 2,32,33
 937 1419 937 1419 1060.5 1323.5 c 128,-1,34
 1184 1228 1184 1228 1184 1069 c 0,0,1
880 827 m 0,35,36
 914 875 914 875 925 926.5 c 128,-1,37
 936 978 936 978 936 1019 c 0,38,39
 936 1076 936 1076 922.5 1135 c 128,-1,40
 909 1194 909 1194 876 1238 c 0,41,42
 841 1285 841 1285 784 1311 c 128,-1,43
 727 1337 727 1337 642 1337 c 2,44,-1
 501 1337 l 1,45,-1
 501 710 l 1,46,-1
 603 710 l 2,47,48
 711 710 711 710 778.5 743.5 c 128,-1,49
 846 777 846 777 880 827 c 0,35,36
EndSplineSet
EndChar

StartChar: Q
Encoding: 81 81 52
Width: 1524
GlyphClass: 2
Flags: W
LayerCount: 2
Fore
SplineSet
1244 1251 m 0,0,1
 1338 1153 1338 1153 1391 1014.5 c 128,-1,2
 1444 876 1444 876 1444 708 c 0,3,4
 1444 574 1444 574 1409 460 c 128,-1,5
 1374 346 1374 346 1310 256 c 0,6,7
 1249 170 1249 170 1165 106 c 128,-1,8
 1081 42 1081 42 977 5 c 1,9,10
 979 -105 979 -105 1056 -192.5 c 128,-1,11
 1133 -280 1133 -280 1222 -280 c 0,12,13
 1304 -280 1304 -280 1347 -274.5 c 128,-1,14
 1390 -269 1390 -269 1418 -264 c 1,15,-1
 1418 -343 l 1,16,17
 1373 -356 1373 -356 1305.5 -370.5 c 128,-1,18
 1238 -385 1238 -385 1118 -385 c 0,19,20
 1051 -385 1051 -385 987 -365.5 c 128,-1,21
 923 -346 923 -346 871 -303 c 256,22,23
 819 -260 819 -260 784.5 -194 c 128,-1,24
 750 -128 750 -128 740 -32 c 1,25,26
 597 -27 597 -27 475 29.5 c 128,-1,27
 353 86 353 86 266 184 c 0,28,29
 178 283 178 283 129 416.5 c 128,-1,30
 80 550 80 550 80 708 c 0,31,32
 80 881 80 881 134 1016.5 c 128,-1,33
 188 1152 188 1152 283 1251 c 0,34,35
 377 1349 377 1349 501.5 1401 c 128,-1,36
 626 1453 626 1453 762 1453 c 0,37,38
 903 1453 903 1453 1028 1400 c 128,-1,39
 1153 1347 1153 1347 1244 1251 c 0,0,1
1095 245 m 0,40,41
 1151 336 1151 336 1176.5 451 c 128,-1,42
 1202 566 1202 566 1202 708 c 0,43,44
 1202 854 1202 854 1173.5 976 c 128,-1,45
 1145 1098 1145 1098 1090 1184 c 0,46,47
 1035 1269 1035 1269 952 1316.5 c 128,-1,48
 869 1364 869 1364 762 1364 c 0,49,50
 642 1364 642 1364 558 1309 c 128,-1,51
 474 1254 474 1254 421 1162 c 0,52,53
 371 1074 371 1074 346.5 956 c 128,-1,54
 322 838 322 838 322 708 c 0,55,56
 322 564 322 564 348 448 c 128,-1,57
 374 332 374 332 430 242 c 0,58,59
 484 154 484 154 566 104.5 c 128,-1,60
 648 55 648 55 762 55 c 0,61,62
 869 55 869 55 955 105 c 128,-1,63
 1041 155 1041 155 1095 245 c 0,40,41
EndSplineSet
EndChar

StartChar: R
Encoding: 82 82 53
Width: 1437
GlyphClass: 2
Flags: W
LayerCount: 2
Fore
SplineSet
1480 0 m 1,0,-1
 1098 0 l 1,1,2
 971 199 971 199 868.5 344 c 128,-1,3
 766 489 766 489 646 643 c 1,4,-1
 501 643 l 1,5,-1
 501 193 l 2,6,7
 501 158 501 158 512 131.5 c 128,-1,8
 523 105 523 105 559 91 c 0,9,10
 577 84 577 84 622 78 c 128,-1,11
 667 72 667 72 698 71 c 1,12,-1
 698 0 l 1,13,-1
 98 0 l 1,14,-1
 98 71 l 1,15,16
 122 73 122 73 167.5 78 c 128,-1,17
 213 83 213 83 231 91 c 0,18,19
 261 104 261 104 274.5 129 c 128,-1,20
 288 154 288 154 288 193 c 2,21,-1
 288 1219 l 2,22,23
 288 1254 288 1254 278 1281 c 128,-1,24
 268 1308 268 1308 231 1322 c 0,25,26
 206 1331 206 1331 166 1338.5 c 128,-1,27
 126 1346 126 1346 98 1348 c 1,28,-1
 98 1419 l 1,29,-1
 753 1419 l 2,30,31
 843 1419 843 1419 922 1400.5 c 128,-1,32
 1001 1382 1001 1382 1065 1341 c 0,33,34
 1127 1301 1127 1301 1164 1236.5 c 128,-1,35
 1201 1172 1201 1172 1201 1081 c 0,36,37
 1201 999 1201 999 1176 936 c 128,-1,38
 1151 873 1151 873 1102 827 c 0,39,40
 1057 784 1057 784 994 752.5 c 128,-1,41
 931 721 931 721 855 699 c 1,42,43
 960 560 960 560 1029.5 465 c 128,-1,44
 1099 370 1099 370 1200 234 c 0,45,46
 1244 174 1244 174 1279.5 145.5 c 128,-1,47
 1315 117 1315 117 1350 99 c 0,48,49
 1376 86 1376 86 1415 79 c 128,-1,50
 1454 72 1454 72 1480 71 c 1,51,-1
 1480 0 l 1,0,-1
954 1058 m 0,52,53
 954 1187 954 1187 880 1262.5 c 128,-1,54
 806 1338 806 1338 671 1338 c 2,55,-1
 501 1338 l 1,56,-1
 501 729 l 1,57,-1
 632 729 l 2,58,59
 770 729 770 729 862 817.5 c 128,-1,60
 954 906 954 906 954 1058 c 0,52,53
EndSplineSet
EndChar

StartChar: S
Encoding: 83 83 54
Width: 1149
GlyphClass: 2
Flags: W
LayerCount: 2
Fore
SplineSet
981 651 m 0,0,1
 1026 601 1026 601 1047.5 541.5 c 128,-1,2
 1069 482 1069 482 1069 403 c 0,3,4
 1069 215 1069 215 930 93 c 128,-1,5
 791 -29 791 -29 585 -29 c 0,6,7
 490 -29 490 -29 395 0.5 c 128,-1,8
 300 30 300 30 231 72 c 1,9,-1
 188 -1 l 1,10,-1
 108 -1 l 1,11,-1
 94 485 l 1,12,-1
 175 485 l 1,13,14
 200 395 200 395 233.5 322.5 c 128,-1,15
 267 250 267 250 322 187 c 0,16,17
 374 128 374 128 443.5 93 c 128,-1,18
 513 58 513 58 605 58 c 0,19,20
 674 58 674 58 725.5 76 c 128,-1,21
 777 94 777 94 809 127 c 256,22,23
 841 160 841 160 856.5 204.5 c 128,-1,24
 872 249 872 249 872 307 c 0,25,26
 872 392 872 392 824 465.5 c 128,-1,27
 776 539 776 539 681 577 c 0,28,29
 616 603 616 603 532 634.5 c 128,-1,30
 448 666 448 666 387 694 c 0,31,32
 267 748 267 748 200.5 835.5 c 128,-1,33
 134 923 134 923 134 1064 c 0,34,35
 134 1145 134 1145 167 1215 c 128,-1,36
 200 1285 200 1285 261 1340 c 0,37,38
 319 1392 319 1392 398 1421.5 c 128,-1,39
 477 1451 477 1451 563 1451 c 0,40,41
 661 1451 661 1451 738.5 1421 c 128,-1,42
 816 1391 816 1391 880 1351 c 1,43,-1
 921 1419 l 1,44,-1
 1001 1419 l 1,45,-1
 1009 948 l 1,46,-1
 928 948 l 1,47,48
 906 1029 906 1029 878.5 1103 c 128,-1,49
 851 1177 851 1177 807 1237 c 0,50,51
 764 1295 764 1295 702 1329.5 c 128,-1,52
 640 1364 640 1364 550 1364 c 0,53,54
 455 1364 455 1364 388 1303 c 128,-1,55
 321 1242 321 1242 321 1154 c 0,56,57
 321 1062 321 1062 364 1001.5 c 128,-1,58
 407 941 407 941 489 902 c 0,59,60
 562 867 562 867 632.5 841.5 c 128,-1,61
 703 816 703 816 769 787 c 0,62,63
 829 761 829 761 884.5 728 c 128,-1,64
 940 695 940 695 981 651 c 0,0,1
EndSplineSet
EndChar

StartChar: T
Encoding: 84 84 55
Width: 1267
GlyphClass: 2
Flags: W
LayerCount: 2
Fore
SplineSet
1251 1034 m 1,0,-1
 1182 1034 l 1,1,2
 1173 1070 1173 1070 1149.5 1119.5 c 128,-1,3
 1126 1169 1126 1169 1097 1213 c 0,4,5
 1067 1259 1067 1259 1031.5 1293.5 c 128,-1,6
 996 1328 996 1328 963 1333 c 0,7,8
 932 1337 932 1337 885 1339 c 128,-1,9
 838 1341 838 1341 798 1341 c 2,10,-1
 740 1341 l 1,11,-1
 740 206 l 2,12,13
 740 173 740 173 754 145.5 c 128,-1,14
 768 118 768 118 803 103 c 0,15,16
 821 96 821 96 878.5 84 c 128,-1,17
 936 72 936 72 968 71 c 1,18,-1
 968 0 l 1,19,-1
 298 0 l 1,20,-1
 298 71 l 1,21,22
 326 73 326 73 383.5 79 c 128,-1,23
 441 85 441 85 463 94 c 0,24,25
 496 107 496 107 511.5 131.5 c 128,-1,26
 527 156 527 156 527 197 c 2,27,-1
 527 1341 l 1,28,-1
 469 1341 l 2,29,30
 438 1341 438 1341 392 1339.5 c 128,-1,31
 346 1338 346 1338 304 1333 c 0,32,33
 271 1329 271 1329 235.5 1293.5 c 128,-1,34
 200 1258 200 1258 170 1213 c 256,35,36
 140 1168 140 1168 117 1117.5 c 128,-1,37
 94 1067 94 1067 85 1034 c 1,38,-1
 15 1034 l 1,39,-1
 15 1419 l 1,40,-1
 1251 1419 l 1,41,-1
 1251 1034 l 1,0,-1
EndSplineSet
EndChar

StartChar: U
Encoding: 85 85 56
Width: 1549
GlyphClass: 2
Flags: W
LayerCount: 2
Fore
SplineSet
1533 1348 m 1,0,1
 1505 1347 1505 1347 1451 1336 c 128,-1,2
 1397 1325 1397 1325 1363 1303 c 0,3,4
 1329 1280 1329 1280 1316 1208 c 128,-1,5
 1303 1136 1303 1136 1303 1032 c 2,6,-1
 1303 415 l 2,7,8
 1303 297 1303 297 1254 210 c 128,-1,9
 1205 123 1205 123 1125 67 c 0,10,11
 1046 13 1046 13 958.5 -10.5 c 128,-1,12
 871 -34 871 -34 791 -34 c 0,13,14
 663 -34 663 -34 563 -0.5 c 128,-1,15
 463 33 463 33 395 90 c 0,16,17
 328 147 328 147 294 220.5 c 128,-1,18
 260 294 260 294 260 374 c 2,19,-1
 260 1213 l 2,20,21
 260 1248 260 1248 248.5 1271.5 c 128,-1,22
 237 1295 237 1295 202 1315 c 0,23,24
 177 1329 177 1329 138 1337.5 c 128,-1,25
 99 1346 99 1346 74 1348 c 1,26,-1
 74 1419 l 1,27,-1
 665 1419 l 1,28,-1
 665 1348 l 1,29,30
 637 1347 637 1347 594.5 1339 c 128,-1,31
 552 1331 552 1331 532 1324 c 0,32,33
 498 1312 498 1312 486.5 1284 c 128,-1,34
 475 1256 475 1256 475 1223 c 2,35,-1
 475 439 l 2,36,37
 475 382 475 382 487.5 319.5 c 128,-1,38
 500 257 500 257 537 203 c 0,39,40
 576 148 576 148 643 113 c 128,-1,41
 710 78 710 78 827 78 c 0,42,43
 937 78 937 78 1011.5 113 c 128,-1,44
 1086 148 1086 148 1129 205 c 0,45,46
 1170 259 1170 259 1187 318 c 128,-1,47
 1204 377 1204 377 1204 437 c 2,48,-1
 1204 1019 l 2,49,50
 1204 1130 1204 1130 1188 1200.5 c 128,-1,51
 1172 1271 1172 1271 1141 1293 c 0,52,53
 1106 1318 1106 1318 1045.5 1332 c 128,-1,54
 985 1346 985 1346 953 1348 c 1,55,-1
 953 1419 l 1,56,-1
 1533 1419 l 1,57,-1
 1533 1348 l 1,0,1
EndSplineSet
EndChar

StartChar: V
Encoding: 86 86 57
Width: 1365
GlyphClass: 2
Flags: W
LayerCount: 2
Fore
SplineSet
1407 1348 m 1,0,1
 1381 1347 1381 1347 1344 1336.5 c 128,-1,2
 1307 1326 1307 1326 1283 1311 c 0,3,4
 1249 1290 1249 1290 1228.5 1257 c 128,-1,5
 1208 1224 1208 1224 1188 1179 c 0,6,7
 1121 1020 1121 1020 987 683.5 c 128,-1,8
 853 347 853 347 711 -18 c 1,9,-1
 628 -18 l 1,10,11
 484 369 484 369 350 728 c 128,-1,12
 216 1087 216 1087 168 1213 c 0,13,14
 156 1244 156 1244 136 1267.5 c 128,-1,15
 116 1291 116 1291 83 1312 c 0,16,17
 56 1329 56 1329 23 1337.5 c 128,-1,18
 -10 1346 -10 1346 -38 1348 c 1,19,-1
 -38 1419 l 1,20,-1
 549 1419 l 1,21,-1
 549 1348 l 1,22,23
 474 1344 474 1344 422.5 1333 c 128,-1,24
 371 1322 371 1322 371 1294 c 0,25,26
 371 1283 371 1283 375 1268 c 128,-1,27
 379 1253 379 1253 382 1244 c 0,28,29
 419 1146 419 1146 502 924.5 c 128,-1,30
 585 703 585 703 738 294 c 1,31,32
 814 479 814 479 913 731 c 128,-1,33
 1012 983 1012 983 1046 1077 c 0,34,35
 1079 1168 1079 1168 1084.5 1203 c 128,-1,36
 1090 1238 1090 1238 1090 1260 c 0,37,38
 1090 1283 1090 1283 1069.5 1298.5 c 128,-1,39
 1049 1314 1049 1314 1015 1325 c 0,40,41
 982 1335 982 1335 948 1340 c 128,-1,42
 914 1345 914 1345 879 1348 c 1,43,-1
 879 1419 l 1,44,-1
 1407 1419 l 1,45,-1
 1407 1348 l 1,0,1
EndSplineSet
EndChar

StartChar: W
Encoding: 87 87 58
Width: 1998
GlyphClass: 2
Flags: W
LayerCount: 2
Fore
SplineSet
2028 1348 m 1,0,1
 2003 1347 2003 1347 1970 1336.5 c 128,-1,2
 1937 1326 1937 1326 1909 1309 c 0,3,4
 1874 1287 1874 1287 1852.5 1258.5 c 128,-1,5
 1831 1230 1831 1230 1815 1179 c 0,6,7
 1744 948 1744 948 1650 639.5 c 128,-1,8
 1556 331 1556 331 1447 -18 c 1,9,-1
 1355 -18 l 1,10,-1
 997 1074 l 1,11,-1
 624 -18 l 1,12,-1
 536 -18 l 1,13,14
 437 332 437 332 331 708.5 c 128,-1,15
 225 1085 225 1085 189 1213 c 0,16,17
 180 1244 180 1244 162.5 1268 c 128,-1,18
 145 1292 145 1292 115 1312 c 0,19,20
 90 1329 90 1329 56.5 1337.5 c 128,-1,21
 23 1346 23 1346 -4 1348 c 1,22,-1
 -4 1419 l 1,23,-1
 575 1419 l 1,24,-1
 575 1348 l 1,25,26
 499 1344 499 1344 445.5 1333 c 128,-1,27
 392 1322 392 1322 392 1296 c 0,28,29
 392 1286 392 1286 395 1269.5 c 128,-1,30
 398 1253 398 1253 400 1243 c 0,31,32
 423 1155 423 1155 481.5 952.5 c 128,-1,33
 540 750 540 750 655 346 c 1,34,-1
 1009 1399 l 1,35,-1
 1107 1399 l 1,36,-1
 1464 323 l 1,37,38
 1536 571 1536 571 1588 756.5 c 128,-1,39
 1640 942 1640 942 1674 1074 c 0,40,41
 1698 1167 1698 1167 1704 1201.5 c 128,-1,42
 1710 1236 1710 1236 1710 1260 c 0,43,44
 1710 1294 1710 1294 1663.5 1317 c 128,-1,45
 1617 1340 1617 1340 1513 1348 c 1,46,-1
 1513 1419 l 1,47,-1
 2028 1419 l 1,48,-1
 2028 1348 l 1,0,1
EndSplineSet
EndChar

StartChar: X
Encoding: 88 88 59
Width: 1455
GlyphClass: 2
Flags: W
LayerCount: 2
Fore
SplineSet
1457 0 m 1,0,-1
 793 0 l 1,1,-1
 793 71 l 1,2,3
 875 73 875 73 925.5 86.5 c 128,-1,4
 976 100 976 100 976 128 c 0,5,6
 976 143 976 143 953 190 c 128,-1,7
 930 237 930 237 894 295 c 0,8,9
 854 359 854 359 799 445.5 c 128,-1,10
 744 532 744 532 690 611 c 1,11,12
 602 495 602 495 490 331.5 c 128,-1,13
 378 168 378 168 378 139 c 0,14,15
 378 106 378 106 408.5 90.5 c 128,-1,16
 439 75 439 75 543 71 c 1,17,-1
 543 0 l 1,18,-1
 13 0 l 1,19,-1
 13 71 l 1,20,21
 39 73 39 73 79.5 78.5 c 128,-1,22
 120 84 120 84 146 97 c 0,23,24
 198 125 198 125 229.5 157.5 c 128,-1,25
 261 190 261 190 293 234 c 0,26,27
 357 322 357 322 457 453.5 c 128,-1,28
 557 585 557 585 634 693 c 1,29,30
 576 778 576 778 486 908.5 c 128,-1,31
 396 1039 396 1039 294 1188 c 0,32,33
 251 1251 251 1251 226.5 1277 c 128,-1,34
 202 1303 202 1303 161 1322 c 0,35,36
 137 1333 137 1333 94.5 1339.5 c 128,-1,37
 52 1346 52 1346 27 1348 c 1,38,-1
 27 1419 l 1,39,-1
 684 1419 l 1,40,-1
 684 1348 l 1,41,42
 626 1346 626 1346 563.5 1333.5 c 128,-1,43
 501 1321 501 1321 501 1295 c 0,44,45
 501 1276 501 1276 526 1228.5 c 128,-1,46
 551 1181 551 1181 585 1127 c 0,47,48
 620 1071 620 1071 663 1003 c 128,-1,49
 706 935 706 935 768 846 c 1,50,51
 881 999 881 999 963 1122 c 128,-1,52
 1045 1245 1045 1245 1045 1282 c 0,53,54
 1045 1314 1045 1314 1007.5 1329 c 128,-1,55
 970 1344 970 1344 881 1348 c 1,56,-1
 881 1419 l 1,57,-1
 1410 1419 l 1,58,-1
 1410 1348 l 1,59,60
 1385 1347 1385 1347 1344.5 1340.5 c 128,-1,61
 1304 1334 1304 1334 1277 1322 c 0,62,63
 1225 1297 1225 1297 1199.5 1268 c 128,-1,64
 1174 1239 1174 1239 1131 1184 c 0,65,66
 1051 1081 1051 1081 983.5 990.5 c 128,-1,67
 916 900 916 900 821 770 c 1,68,69
 901 656 901 656 999.5 511 c 128,-1,70
 1098 366 1098 366 1188 234 c 0,71,72
 1219 189 1219 189 1259 148.5 c 128,-1,73
 1299 108 1299 108 1324 93 c 0,74,75
 1348 79 1348 79 1388.5 75.5 c 128,-1,76
 1429 72 1429 72 1457 71 c 1,77,-1
 1457 0 l 1,0,-1
EndSplineSet
EndChar

StartChar: Y
Encoding: 89 89 60
Width: 1260
GlyphClass: 2
Flags: W
LayerCount: 2
Fore
SplineSet
1314 1348 m 1,0,1
 1297 1347 1297 1347 1260 1334.5 c 128,-1,2
 1223 1322 1223 1322 1207 1310 c 0,3,4
 1168 1286 1168 1286 1154 1273 c 128,-1,5
 1140 1260 1140 1260 1100 1205 c 0,6,7
 1022 1095 1022 1095 956 982 c 128,-1,8
 890 869 890 869 791 695 c 0,9,10
 754 631 754 631 742 592 c 128,-1,11
 730 553 730 553 730 479 c 2,12,-1
 730 208 l 2,13,14
 730 172 730 172 744.5 145.5 c 128,-1,15
 759 119 759 119 794 103 c 0,16,17
 815 95 815 95 869 83.5 c 128,-1,18
 923 72 923 72 956 71 c 1,19,-1
 956 0 l 1,20,-1
 292 0 l 1,21,-1
 292 71 l 1,22,23
 320 73 320 73 376 78.5 c 128,-1,24
 432 84 432 84 454 93 c 0,25,26
 490 108 490 108 503.5 134 c 128,-1,27
 517 160 517 160 517 198 c 2,28,-1
 517 543 l 2,29,30
 517 559 517 559 497.5 601.5 c 128,-1,31
 478 644 478 644 451 696 c 0,32,33
 391 812 391 812 318 947 c 128,-1,34
 245 1082 245 1082 191 1178 c 0,35,36
 158 1235 158 1235 132.5 1264 c 128,-1,37
 107 1293 107 1293 74 1315 c 0,38,39
 50 1330 50 1330 16.5 1338 c 128,-1,40
 -17 1346 -17 1346 -44 1348 c 1,41,-1
 -44 1419 l 1,42,-1
 561 1419 l 1,43,-1
 561 1348 l 1,44,45
 459 1346 459 1346 417 1334 c 128,-1,46
 375 1322 375 1322 375 1300 c 0,47,48
 375 1294 375 1294 381 1279 c 128,-1,49
 387 1264 387 1264 398 1241 c 0,50,51
 411 1215 411 1215 429 1181.5 c 128,-1,52
 447 1148 447 1148 463 1117 c 0,53,54
 510 1028 510 1028 559 939.5 c 128,-1,55
 608 851 608 851 687 709 c 1,56,57
 844 962 844 962 926.5 1103.5 c 128,-1,58
 1009 1245 1009 1245 1009 1273 c 0,59,60
 1009 1296 1009 1296 992 1310 c 128,-1,61
 975 1324 975 1324 947 1332 c 0,62,63
 918 1340 918 1340 884 1342.5 c 128,-1,64
 850 1345 850 1345 821 1348 c 1,65,-1
 821 1419 l 1,66,-1
 1314 1419 l 1,67,-1
 1314 1348 l 1,0,1
EndSplineSet
EndChar

StartChar: Z
Encoding: 90 90 61
Width: 1232
GlyphClass: 2
Flags: W
LayerCount: 2
Fore
SplineSet
1214 443 m 1,0,-1
 1167 0 l 1,1,-1
 27 0 l 1,2,-1
 27 35 l 1,3,-1
 920 1340 l 1,4,-1
 593 1340 l 2,5,6
 536 1340 536 1340 497.5 1338 c 128,-1,7
 459 1336 459 1336 427 1330 c 0,8,9
 361 1317 361 1317 278.5 1221 c 128,-1,10
 196 1125 196 1125 154 1018 c 1,11,-1
 84 1018 l 1,12,-1
 127 1419 l 1,13,-1
 1190 1419 l 1,14,-1
 1190 1384 l 1,15,-1
 297 79 l 1,16,-1
 634 79 l 2,17,18
 719 79 719 79 815 91 c 128,-1,19
 911 103 911 103 940 132 c 0,20,21
 1005 194 1005 194 1061 284 c 128,-1,22
 1117 374 1117 374 1144 443 c 1,23,-1
 1214 443 l 1,0,-1
EndSplineSet
EndChar

StartChar: bracketleft
Encoding: 91 91 62
Width: 768
GlyphClass: 2
Flags: W
LayerCount: 2
Fore
SplineSet
701 -310 m 1,0,-1
 168 -310 l 1,1,-1
 168 1519 l 1,2,-1
 701 1519 l 1,3,-1
 701 1428 l 1,4,-1
 346 1428 l 1,5,-1
 346 -218 l 1,6,-1
 701 -218 l 1,7,-1
 701 -310 l 1,0,-1
EndSplineSet
EndChar

StartChar: backslash
Encoding: 92 92 63
Width: 960
GlyphClass: 2
Flags: W
LayerCount: 2
Fore
SplineSet
911 -424 m 1,0,-1
 781 -424 l 1,1,-1
 90 1523 l 1,2,-1
 222 1523 l 1,3,-1
 911 -424 l 1,0,-1
EndSplineSet
EndChar

StartChar: bracketright
Encoding: 93 93 64
Width: 768
GlyphClass: 2
Flags: W
LayerCount: 2
Fore
SplineSet
600 -310 m 1,0,-1
 67 -310 l 1,1,-1
 67 -218 l 1,2,-1
 422 -218 l 1,3,-1
 422 1428 l 1,4,-1
 67 1428 l 1,5,-1
 67 1519 l 1,6,-1
 600 1519 l 1,7,-1
 600 -310 l 1,0,-1
EndSplineSet
EndChar

StartChar: asciicircum
Encoding: 94 94 65
Width: 1317
GlyphClass: 2
Flags: W
LayerCount: 2
Fore
SplineSet
1126 796 m 1,0,-1
 981 796 l 1,1,-1
 660 1320 l 1,2,-1
 336 796 l 1,3,-1
 191 796 l 1,4,-1
 603 1456 l 1,5,-1
 716 1456 l 1,6,-1
 1126 796 l 1,0,-1
EndSplineSet
EndChar

StartChar: underscore
Encoding: 95 95 66
Width: 1317
GlyphClass: 2
Flags: W
LayerCount: 2
Fore
SplineSet
1322 -282 m 1,0,-1
 -5 -282 l 1,1,-1
 -5 -181 l 1,2,-1
 1322 -181 l 1,3,-1
 1322 -282 l 1,0,-1
EndSplineSet
EndChar

StartChar: grave
Encoding: 96 96 67
Width: 927
GlyphClass: 2
Flags: W
LayerCount: 2
Fore
SplineSet
669 1189 m 2,0,-1
 669 532 l 1,1,2
 764 413 764 413 764 258 c 0,3,4
 764 86 764 86 653 -35 c 128,-1,5
 542 -156 542 -156 386 -156 c 2,6,7
 386 -156 386 -156 383 -156 c 0,8,9
 226 -156 226 -156 117 -33 c 128,-1,10
 8 90 8 90 8 261 c 0,11,12
 8 416 8 416 102 532 c 1,13,-1
 102 1189 l 2,14,15
 102 1318 102 1318 185 1408.5 c 128,-1,16
 268 1499 268 1499 386 1499 c 128,-1,17
 504 1499 504 1499 586.5 1408.5 c 128,-1,18
 669 1318 669 1318 669 1189 c 2,0,-1
386 -1 m 2,19,20
 483 -1 483 -1 552.5 75 c 128,-1,21
 622 151 622 151 622 258 c 0,22,23
 622 277 622 277 619 296.5 c 128,-1,24
 616 316 616 316 613 330.5 c 128,-1,25
 610 345 610 345 601 363 c 128,-1,26
 592 381 592 381 588 390.5 c 128,-1,27
 584 400 584 400 573.5 414.5 c 128,-1,28
 563 429 563 429 558.5 435.5 c 128,-1,29
 554 442 554 442 542.5 456.5 c 128,-1,30
 531 471 531 471 528 474 c 2,31,-1
 528 1189 l 2,32,33
 528 1253 528 1253 486.5 1298.5 c 128,-1,34
 445 1344 445 1344 386 1344 c 128,-1,35
 327 1344 327 1344 285.5 1298.5 c 128,-1,36
 244 1253 244 1253 244 1189 c 2,37,-1
 244 474 l 2,38,39
 241 471 241 471 229.5 455 c 128,-1,40
 218 439 218 439 213.5 434 c 128,-1,41
 209 429 209 429 198.5 414.5 c 128,-1,42
 188 400 188 400 183.5 390.5 c 128,-1,43
 179 381 179 381 170.5 363 c 128,-1,44
 162 345 162 345 159 330.5 c 128,-1,45
 156 316 156 316 153 298 c 128,-1,46
 150 280 150 280 150 258 c 0,47,48
 150 190 150 190 181 130 c 128,-1,49
 212 70 212 70 266.5 34.5 c 128,-1,50
 321 -1 321 -1 383 -1 c 2,51,-1
 386 -1 l 2,19,20
575 258 m 0,52,53
 575 170 575 170 520.5 110.5 c 128,-1,54
 466 51 466 51 386 51 c 128,-1,55
 306 51 306 51 251.5 110.5 c 128,-1,56
 197 170 197 170 197 258 c 0,57,58
 197 377 197 377 291 436 c 1,59,-1
 291 1189 l 2,60,61
 291 1231 291 1231 319 1261.5 c 128,-1,62
 347 1292 347 1292 385.5 1292 c 128,-1,63
 424 1292 424 1292 452 1261.5 c 128,-1,64
 480 1231 480 1231 480 1189 c 2,65,-1
 480 436 l 1,66,67
 575 377 575 377 575 258 c 0,52,53
EndSplineSet
EndChar

StartChar: a
Encoding: 97 97 68
Width: 1032
GlyphClass: 2
Flags: W
LayerCount: 2
Fore
SplineSet
1006 18 m 1,0,1
 959 1 959 1 923.5 -9.5 c 128,-1,2
 888 -20 888 -20 843 -20 c 0,3,4
 765 -20 765 -20 718.5 16.5 c 128,-1,5
 672 53 672 53 659 123 c 1,6,-1
 653 123 l 1,7,8
 588 51 588 51 513.5 13 c 128,-1,9
 439 -25 439 -25 334 -25 c 0,10,11
 223 -25 223 -25 151.5 43 c 128,-1,12
 80 111 80 111 80 221 c 0,13,14
 80 278 80 278 96 323 c 128,-1,15
 112 368 112 368 144 404 c 0,16,17
 169 434 169 434 210 457.5 c 128,-1,18
 251 481 251 481 287 495 c 0,19,20
 332 512 332 512 469.5 558 c 128,-1,21
 607 604 607 604 655 630 c 1,22,-1
 655 729 l 2,23,24
 655 742 655 742 649.5 779 c 128,-1,25
 644 816 644 816 626 849 c 0,26,27
 606 886 606 886 569.5 913.5 c 128,-1,28
 533 941 533 941 466 941 c 0,29,30
 420 941 420 941 380.5 925.5 c 128,-1,31
 341 910 341 910 325 893 c 1,32,33
 325 873 325 873 334.5 834 c 128,-1,34
 344 795 344 795 344 762 c 0,35,36
 344 727 344 727 312.5 698 c 128,-1,37
 281 669 281 669 225 669 c 0,38,39
 175 669 175 669 151.5 704.5 c 128,-1,40
 128 740 128 740 128 784 c 0,41,42
 128 830 128 830 160.5 872 c 128,-1,43
 193 914 193 914 245 947 c 0,44,45
 290 975 290 975 354 994.5 c 128,-1,46
 418 1014 418 1014 479 1014 c 0,47,48
 563 1014 563 1014 625.5 1002.5 c 128,-1,49
 688 991 688 991 739 953 c 0,50,51
 790 916 790 916 816.5 852.5 c 128,-1,52
 843 789 843 789 843 689 c 0,53,54
 843 546 843 546 840 435.5 c 128,-1,55
 837 325 837 325 837 194 c 0,56,57
 837 155 837 155 850.5 132 c 128,-1,58
 864 109 864 109 892 93 c 0,59,60
 907 84 907 84 939.5 83 c 128,-1,61
 972 82 972 82 1006 82 c 1,62,-1
 1006 18 l 1,0,1
657 546 m 1,63,64
 572 521 572 521 508 497 c 128,-1,65
 444 473 444 473 389 437 c 0,66,67
 339 403 339 403 310 356.5 c 128,-1,68
 281 310 281 310 281 246 c 0,69,70
 281 163 281 163 324.5 124 c 128,-1,71
 368 85 368 85 435 85 c 0,72,73
 506 85 506 85 560 119.5 c 128,-1,74
 614 154 614 154 651 201 c 1,75,-1
 657 546 l 1,63,64
EndSplineSet
EndChar

StartChar: b
Encoding: 98 98 69
Width: 1147
GlyphClass: 2
Flags: W
LayerCount: 2
Fore
SplineSet
1073 494 m 0,0,1
 1073 272 1073 272 933 121 c 128,-1,2
 793 -30 793 -30 608 -30 c 0,3,4
 527 -30 527 -30 448.5 -5 c 128,-1,5
 370 20 370 20 301 62 c 1,6,-1
 227 -53 l 1,7,-1
 165 -39 l 1,8,9
 170 35 170 35 172 139 c 128,-1,10
 174 243 174 243 174 340 c 2,11,-1
 174 1316 l 2,12,13
 174 1350 174 1350 158.5 1384 c 128,-1,14
 143 1418 143 1418 119 1433 c 0,15,16
 100 1446 100 1446 55.5 1452.5 c 128,-1,17
 11 1459 11 1459 -16 1461 c 1,18,-1
 -16 1525 l 1,19,-1
 346 1548 l 1,20,-1
 360 1533 l 1,21,-1
 360 883 l 1,22,-1
 367 881 l 1,23,24
 429 947 429 947 502.5 980 c 128,-1,25
 576 1013 576 1013 647 1013 c 0,26,27
 829 1013 829 1013 951 869 c 128,-1,28
 1073 725 1073 725 1073 494 c 0,0,1
864 487 m 0,29,30
 864 561 864 561 848 638 c 128,-1,31
 832 715 832 715 798 772 c 0,32,33
 764 830 764 830 709 866 c 128,-1,34
 654 902 654 902 577 902 c 0,35,36
 507 902 507 902 454.5 874.5 c 128,-1,37
 402 847 402 847 360 800 c 1,38,-1
 360 226 l 1,39,40
 366 202 366 202 383.5 170 c 128,-1,41
 401 138 401 138 431 109 c 0,42,43
 461 81 461 81 499 63.5 c 128,-1,44
 537 46 537 46 592 46 c 0,45,46
 714 46 714 46 789 164 c 128,-1,47
 864 282 864 282 864 487 c 0,29,30
EndSplineSet
EndChar

StartChar: c
Encoding: 99 99 70
Width: 930
GlyphClass: 2
Flags: W
LayerCount: 2
Fore
SplineSet
528 -26 m 0,0,1
 314 -26 314 -26 193 116 c 128,-1,2
 72 258 72 258 72 497 c 0,3,4
 72 601 72 601 104.5 691.5 c 128,-1,5
 137 782 137 782 199 856 c 0,6,7
 258 927 258 927 347 970.5 c 128,-1,8
 436 1014 436 1014 541 1014 c 0,9,10
 686 1014 686 1014 777 944.5 c 128,-1,11
 868 875 868 875 868 755 c 0,12,13
 868 705 868 705 844 666.5 c 128,-1,14
 820 628 820 628 765 628 c 0,15,16
 706 628 706 628 673.5 658 c 128,-1,17
 641 688 641 688 641 725 c 0,18,19
 641 770 641 770 653 817.5 c 128,-1,20
 665 865 665 865 667 887 c 1,21,22
 649 918 649 918 613.5 928.5 c 128,-1,23
 578 939 578 939 537 939 c 0,24,25
 489 939 489 939 445.5 918.5 c 128,-1,26
 402 898 402 898 361 843 c 0,27,28
 324 793 324 793 301 708 c 128,-1,29
 278 623 278 623 278 505 c 0,30,31
 278 319 278 319 360.5 201.5 c 128,-1,32
 443 84 443 84 577 84 c 0,33,34
 674 84 674 84 739.5 131 c 128,-1,35
 805 178 805 178 861 272 c 1,36,-1
 925 230 l 1,37,38
 859 112 859 112 751 43 c 128,-1,39
 643 -26 643 -26 528 -26 c 0,0,1
EndSplineSet
EndChar

StartChar: d
Encoding: 100 100 71
Width: 1176
GlyphClass: 2
Flags: W
LayerCount: 2
Fore
SplineSet
1152 18 m 1,0,-1
 808 -4 l 1,1,-1
 793 10 l 1,2,-1
 793 102 l 1,3,-1
 785 104 l 1,4,5
 733 46 733 46 656.5 9 c 128,-1,6
 580 -28 580 -28 499 -28 c 0,7,8
 415 -28 415 -28 336.5 9.5 c 128,-1,9
 258 47 258 47 200 115 c 0,10,11
 141 184 141 184 106.5 281 c 128,-1,12
 72 378 72 378 72 495 c 0,13,14
 72 602 72 602 109 698 c 128,-1,15
 146 794 146 794 211 866 c 0,16,17
 272 933 272 933 360.5 973 c 128,-1,18
 449 1013 449 1013 541 1013 c 0,19,20
 610 1013 610 1013 676.5 995.5 c 128,-1,21
 743 978 743 978 791 951 c 1,22,-1
 791 1294 l 2,23,24
 791 1336 791 1336 777 1370.5 c 128,-1,25
 763 1405 763 1405 738 1423 c 0,26,27
 710 1442 710 1442 662.5 1450.5 c 128,-1,28
 615 1459 615 1459 560 1463 c 1,29,-1
 560 1525 l 1,30,-1
 963 1548 l 1,31,-1
 978 1533 l 1,32,-1
 978 203 l 2,33,34
 978 168 978 168 991.5 143.5 c 128,-1,35
 1005 119 1005 119 1031 102 c 0,36,37
 1050 90 1050 90 1086 87 c 128,-1,38
 1122 84 1122 84 1152 83 c 1,39,-1
 1152 18 l 1,0,-1
791 191 m 1,40,-1
 791 768 l 1,41,42
 783 794 783 794 765 824 c 128,-1,43
 747 854 747 854 720 879 c 0,44,45
 691 904 691 904 652 920.5 c 128,-1,46
 613 937 613 937 561 937 c 0,47,48
 501 937 501 937 450.5 906 c 128,-1,49
 400 875 400 875 361 817 c 0,50,51
 324 761 324 761 302.5 674.5 c 128,-1,52
 281 588 281 588 281 483 c 0,53,54
 281 399 281 399 297 330.5 c 128,-1,55
 313 262 313 262 351 203 c 0,56,57
 386 147 386 147 440.5 113 c 128,-1,58
 495 79 495 79 570 79 c 0,59,60
 650 79 650 79 702.5 114 c 128,-1,61
 755 149 755 149 791 191 c 1,40,-1
EndSplineSet
EndChar

StartChar: e
Encoding: 101 101 72
Width: 990
GlyphClass: 2
Flags: W
LayerCount: 2
Fore
SplineSet
948 232 m 1,0,1
 886 114 886 114 782 44 c 128,-1,2
 678 -26 678 -26 543 -26 c 0,3,4
 424 -26 424 -26 334.5 16 c 128,-1,5
 245 58 245 58 187 130 c 256,6,7
 129 202 129 202 100.5 298 c 128,-1,8
 72 394 72 394 72 501 c 0,9,10
 72 597 72 597 102.5 689.5 c 128,-1,11
 133 782 133 782 192 856 c 0,12,13
 249 927 249 927 333.5 970.5 c 128,-1,14
 418 1014 418 1014 523 1014 c 0,15,16
 631 1014 631 1014 708 980 c 128,-1,17
 785 946 785 946 833 887 c 0,18,19
 879 831 879 831 901.5 755 c 128,-1,20
 924 679 924 679 924 590 c 2,21,-1
 924 524 l 1,22,-1
 271 524 l 1,23,24
 271 427 271 427 289.5 348 c 128,-1,25
 308 269 308 269 348 209 c 0,26,27
 387 151 387 151 450 117.5 c 128,-1,28
 513 84 513 84 600 84 c 0,29,30
 689 84 689 84 753.5 125.5 c 128,-1,31
 818 167 818 167 878 275 c 1,32,-1
 948 232 l 1,0,1
727 608 m 1,33,34
 727 664 727 664 717.5 728 c 128,-1,35
 708 792 708 792 687 835 c 0,36,37
 664 881 664 881 624 910 c 128,-1,38
 584 939 584 939 521 939 c 0,39,40
 416 939 416 939 346.5 851.5 c 128,-1,41
 277 764 277 764 271 608 c 1,42,-1
 727 608 l 1,33,34
EndSplineSet
EndChar

StartChar: f
Encoding: 102 102 73
Width: 666
GlyphClass: 2
Flags: W
LayerCount: 2
Fore
SplineSet
806 1429 m 0,0,1
 806 1384 806 1384 782 1353 c 128,-1,2
 758 1322 758 1322 709 1322 c 0,3,4
 678 1322 678 1322 654.5 1335 c 128,-1,5
 631 1348 631 1348 611 1370 c 256,6,7
 591 1392 591 1392 574 1420 c 128,-1,8
 557 1448 557 1448 545 1465 c 1,9,10
 478 1462 478 1462 441.5 1371.5 c 128,-1,11
 405 1281 405 1281 405 1083 c 2,12,-1
 405 982 l 1,13,-1
 659 982 l 1,14,-1
 659 886 l 1,15,-1
 405 886 l 1,16,-1
 405 178 l 2,17,18
 405 143 405 143 418.5 121 c 128,-1,19
 432 99 432 99 461 88 c 0,20,21
 485 79 485 79 525 73.5 c 128,-1,22
 565 68 565 68 594 66 c 1,23,-1
 594 0 l 1,24,-1
 74 0 l 1,25,-1
 74 66 l 1,26,27
 97 68 97 68 121.5 70 c 128,-1,28
 146 72 146 72 164 78 c 0,29,30
 192 87 192 87 205.5 109.5 c 128,-1,31
 219 132 219 132 219 168 c 2,32,-1
 219 886 l 1,33,-1
 24 886 l 1,34,-1
 24 982 l 1,35,-1
 219 982 l 1,36,-1
 219 1045 l 2,37,38
 219 1270 219 1270 335.5 1409.5 c 128,-1,39
 452 1549 452 1549 627 1549 c 0,40,41
 716 1549 716 1549 761 1514 c 128,-1,42
 806 1479 806 1479 806 1429 c 0,0,1
EndSplineSet
EndChar

StartChar: g
Encoding: 103 103 74
Width: 1043
GlyphClass: 2
Flags: W
LayerCount: 2
Fore
SplineSet
917 102 m 0,0,1
 957 64 957 64 980 16 c 128,-1,2
 1003 -32 1003 -32 1003 -103 c 256,3,4
 1003 -174 1003 -174 972 -236.5 c 128,-1,5
 941 -299 941 -299 878 -345 c 0,6,7
 811 -392 811 -392 718 -418 c 128,-1,8
 625 -444 625 -444 488 -444 c 0,9,10
 264 -444 264 -444 153 -378.5 c 128,-1,11
 42 -313 42 -313 42 -187 c 0,12,13
 42 -85 42 -85 122 -26 c 128,-1,14
 202 33 202 33 326 38 c 1,15,-1
 326 52 l 1,16,17
 296 61 296 61 264 74.5 c 128,-1,18
 232 88 232 88 209 106 c 0,19,20
 183 127 183 127 167 155.5 c 128,-1,21
 151 184 151 184 151 226 c 0,22,23
 151 279 151 279 188.5 323.5 c 128,-1,24
 226 368 226 368 302 400 c 1,25,-1
 302 415 l 1,26,27
 206 460 206 460 153 530.5 c 128,-1,28
 100 601 100 601 100 694 c 0,29,30
 100 834 100 834 204.5 924 c 128,-1,31
 309 1014 309 1014 472 1014 c 0,32,33
 517 1014 517 1014 561.5 1005 c 128,-1,34
 606 996 606 996 652 982 c 1,35,-1
 996 982 l 1,36,-1
 996 886 l 1,37,-1
 764 886 l 1,38,-1
 764 880 l 1,39,40
 801 837 801 837 819 785 c 128,-1,41
 837 733 837 733 837 683 c 0,42,43
 837 553 837 553 731.5 463 c 128,-1,44
 626 373 626 373 486 373 c 2,45,-1
 365 373 l 1,46,47
 342 365 342 365 317 344 c 128,-1,48
 292 323 292 323 292 287 c 0,49,50
 292 250 292 250 313 230.5 c 128,-1,51
 334 211 334 211 364 204 c 0,52,53
 393 196 393 196 431.5 194 c 128,-1,54
 470 192 470 192 511 191 c 0,55,56
 555 190 555 190 631.5 185 c 128,-1,57
 708 180 708 180 740 179 c 0,58,59
 786 177 786 177 832.5 157 c 128,-1,60
 879 137 879 137 917 102 c 0,0,1
647 687 m 0,61,62
 647 804 647 804 599.5 873.5 c 128,-1,63
 552 943 552 943 466 943 c 0,64,65
 419 943 419 943 385.5 923.5 c 128,-1,66
 352 904 352 904 331 868 c 0,67,68
 311 835 311 835 302.5 788.5 c 128,-1,69
 294 742 294 742 294 693 c 0,70,71
 294 582 294 582 342.5 512 c 128,-1,72
 391 442 391 442 468 442 c 0,73,74
 554 442 554 442 600.5 511.5 c 128,-1,75
 647 581 647 581 647 687 c 0,61,62
839 -140 m 0,76,77
 839 -84 839 -84 813 -48 c 128,-1,78
 787 -12 787 -12 734 1 c 0,79,80
 706 5 706 5 619 10 c 128,-1,81
 532 15 532 15 417 15 c 1,82,83
 309 -6 309 -6 263.5 -55.5 c 128,-1,84
 218 -105 218 -105 218 -183 c 0,85,86
 218 -218 218 -218 233 -250 c 128,-1,87
 248 -282 248 -282 285 -309 c 0,88,89
 320 -335 320 -335 379 -351.5 c 128,-1,90
 438 -368 438 -368 523 -368 c 0,91,92
 670 -368 670 -368 754.5 -311.5 c 128,-1,93
 839 -255 839 -255 839 -140 c 0,76,77
EndSplineSet
EndChar

StartChar: h
Encoding: 104 104 75
Width: 1192
GlyphClass: 2
Flags: W
LayerCount: 2
Fore
SplineSet
1143 0 m 1,0,-1
 659 0 l 1,1,-1
 659 66 l 1,2,3
 682 68 682 68 710 70 c 128,-1,4
 738 72 738 72 756 78 c 0,5,6
 784 87 784 87 797.5 109.5 c 128,-1,7
 811 132 811 132 811 168 c 2,8,-1
 811 675 l 2,9,10
 811 780 811 780 761.5 837 c 128,-1,11
 712 894 712 894 641 894 c 0,12,13
 589 894 589 894 544.5 877.5 c 128,-1,14
 500 861 500 861 465 837 c 0,15,16
 431 812 431 812 413 787 c 128,-1,17
 395 762 395 762 385 745 c 1,18,-1
 385 178 l 2,19,20
 385 144 385 144 398.5 122 c 128,-1,21
 412 100 412 100 440 88 c 0,22,23
 462 78 462 78 485.5 73 c 128,-1,24
 509 68 509 68 537 66 c 1,25,-1
 537 0 l 1,26,-1
 53 0 l 1,27,-1
 53 66 l 1,28,29
 76 68 76 68 101 70.5 c 128,-1,30
 126 73 126 73 143 78 c 0,31,32
 171 87 171 87 185 109.5 c 128,-1,33
 199 132 199 132 199 168 c 2,34,-1
 199 1316 l 2,35,36
 199 1350 199 1350 183.5 1384 c 128,-1,37
 168 1418 168 1418 143 1435 c 0,38,39
 125 1448 125 1448 79.5 1453.5 c 128,-1,40
 34 1459 34 1459 6 1461 c 1,41,-1
 6 1525 l 1,42,-1
 371 1548 l 1,43,-1
 385 1533 l 1,44,-1
 385 845 l 1,45,-1
 389 845 l 1,46,47
 422 878 422 878 449 903.5 c 128,-1,48
 476 929 476 929 520 957 c 0,49,50
 558 981 558 981 609.5 997 c 128,-1,51
 661 1013 661 1013 725 1013 c 0,52,53
 857 1013 857 1013 928 929.5 c 128,-1,54
 999 846 999 846 999 689 c 2,55,-1
 999 176 l 2,56,57
 999 141 999 141 1011.5 119.5 c 128,-1,58
 1024 98 1024 98 1053 86 c 0,59,60
 1076 77 1076 77 1094.5 72.5 c 128,-1,61
 1113 68 1113 68 1143 66 c 1,62,-1
 1143 0 l 1,0,-1
EndSplineSet
EndChar

StartChar: i
Encoding: 105 105 76
Width: 600
GlyphClass: 2
Flags: W
LayerCount: 2
Fore
SplineSet
551 0 m 1,0,-1
 74 0 l 1,1,-1
 74 66 l 1,2,3
 97 68 97 68 121.5 70 c 128,-1,4
 146 72 146 72 164 78 c 0,5,6
 192 87 192 87 205.5 109.5 c 128,-1,7
 219 132 219 132 219 168 c 2,8,-1
 219 777 l 2,9,10
 219 809 219 809 204.5 835.5 c 128,-1,11
 190 862 190 862 164 880 c 0,12,13
 145 892 145 892 109 900.5 c 128,-1,14
 73 909 73 909 43 911 c 1,15,-1
 43 976 l 1,16,-1
 391 998 l 1,17,-1
 405 984 l 1,18,-1
 405 180 l 2,19,20
 405 145 405 145 418.5 122 c 128,-1,21
 432 99 432 99 461 88 c 0,22,23
 483 79 483 79 504 73.5 c 128,-1,24
 525 68 525 68 551 66 c 1,25,-1
 551 0 l 1,0,-1
425 1387 m 0,26,27
 425 1330 425 1330 387.5 1287.5 c 128,-1,28
 350 1245 350 1245 295 1245 c 0,29,30
 244 1245 244 1245 206.5 1285.5 c 128,-1,31
 169 1326 169 1326 169 1378 c 0,32,33
 169 1433 169 1433 206.5 1474 c 128,-1,34
 244 1515 244 1515 295 1515 c 0,35,36
 352 1515 352 1515 388.5 1476.5 c 128,-1,37
 425 1438 425 1438 425 1387 c 0,26,27
EndSplineSet
EndChar

StartChar: j
Encoding: 106 106 77
Width: 598
GlyphClass: 2
Flags: W
LayerCount: 2
Fore
SplineSet
431 60 m 2,0,1
 431 -50 431 -50 399 -146.5 c 128,-1,2
 367 -243 367 -243 314 -306 c 0,3,4
 257 -373 257 -373 185.5 -408.5 c 128,-1,5
 114 -444 114 -444 28 -444 c 0,6,7
 -61 -444 -61 -444 -106 -408.5 c 128,-1,8
 -151 -373 -151 -373 -151 -325 c 0,9,10
 -151 -282 -151 -282 -127 -249.5 c 128,-1,11
 -103 -217 -103 -217 -57 -217 c 0,12,13
 -26 -217 -26 -217 -2 -230 c 128,-1,14
 22 -243 22 -243 40 -264 c 0,15,16
 56 -282 56 -282 72.5 -308.5 c 128,-1,17
 89 -335 89 -335 104 -360 c 1,18,19
 180 -360 180 -360 212.5 -268 c 128,-1,20
 245 -176 245 -176 245 27 c 2,21,-1
 245 769 l 2,22,23
 245 801 245 801 229.5 830.5 c 128,-1,24
 214 860 214 860 189 878 c 0,25,26
 173 889 173 889 112.5 900 c 128,-1,27
 52 911 52 911 21 914 c 1,28,-1
 21 976 l 1,29,-1
 417 998 l 1,30,-1
 431 984 l 1,31,-1
 431 60 l 2,0,1
446 1388 m 0,32,33
 446 1331 446 1331 408.5 1288.5 c 128,-1,34
 371 1246 371 1246 316 1246 c 0,35,36
 265 1246 265 1246 227.5 1286.5 c 128,-1,37
 190 1327 190 1327 190 1379 c 0,38,39
 190 1434 190 1434 227.5 1475 c 128,-1,40
 265 1516 265 1516 316 1516 c 0,41,42
 373 1516 373 1516 409.5 1477.5 c 128,-1,43
 446 1439 446 1439 446 1388 c 0,32,33
EndSplineSet
EndChar

StartChar: k
Encoding: 107 107 78
Width: 1097
GlyphClass: 2
Flags: W
LayerCount: 2
Fore
SplineSet
1117 0 m 1,0,-1
 819 0 l 1,1,2
 741 113 741 113 652 242 c 128,-1,3
 563 371 563 371 467 493 c 1,4,-1
 385 416 l 1,5,-1
 385 182 l 2,6,7
 385 146 385 146 398 122.5 c 128,-1,8
 411 99 411 99 440 88 c 0,9,10
 464 78 464 78 486 73 c 128,-1,11
 508 68 508 68 537 66 c 1,12,-1
 537 0 l 1,13,-1
 53 0 l 1,14,-1
 53 66 l 1,15,16
 76 68 76 68 101 70.5 c 128,-1,17
 126 73 126 73 143 78 c 0,18,19
 171 87 171 87 185 109.5 c 128,-1,20
 199 132 199 132 199 168 c 2,21,-1
 199 1314 l 2,22,23
 199 1351 199 1351 183.5 1383.5 c 128,-1,24
 168 1416 168 1416 143 1433 c 0,25,26
 122 1449 122 1449 77.5 1454 c 128,-1,27
 33 1459 33 1459 6 1461 c 1,28,-1
 6 1525 l 1,29,-1
 371 1548 l 1,30,-1
 385 1533 l 1,31,-1
 385 490 l 1,32,33
 463 568 463 568 553.5 657.5 c 128,-1,34
 644 747 644 747 706 817 c 0,35,36
 714 826 714 826 723.5 840.5 c 128,-1,37
 733 855 733 855 733 864 c 0,38,39
 733 891 733 891 689.5 904 c 128,-1,40
 646 917 646 917 606 922 c 1,41,-1
 606 986 l 1,42,-1
 1040 986 l 1,43,-1
 1040 924 l 1,44,45
 956 899 956 899 891.5 861.5 c 128,-1,46
 827 824 827 824 793 794 c 0,47,48
 769 774 769 774 725 729 c 128,-1,49
 681 684 681 684 602 611 c 1,50,51
 684 510 684 510 786.5 369 c 128,-1,52
 889 228 889 228 936 165 c 0,53,54
 980 106 980 106 1015 88 c 128,-1,55
 1050 70 1050 70 1117 66 c 1,56,-1
 1117 0 l 1,0,-1
EndSplineSet
EndChar

StartChar: l
Encoding: 108 108 79
Width: 586
GlyphClass: 2
Flags: W
LayerCount: 2
Fore
SplineSet
534 0 m 1,0,-1
 53 0 l 1,1,-1
 53 66 l 1,2,3
 76 68 76 68 102 70.5 c 128,-1,4
 128 73 128 73 145 78 c 0,5,6
 173 87 173 87 187 109.5 c 128,-1,7
 201 132 201 132 201 168 c 2,8,-1
 201 1310 l 2,9,10
 201 1346 201 1346 185.5 1377.5 c 128,-1,11
 170 1409 170 1409 145 1427 c 0,12,13
 127 1439 127 1439 79 1449 c 128,-1,14
 31 1459 31 1459 2 1461 c 1,15,-1
 2 1525 l 1,16,-1
 373 1548 l 1,17,-1
 387 1533 l 1,18,-1
 387 180 l 2,19,20
 387 145 387 145 400 122.5 c 128,-1,21
 413 100 413 100 442 88 c 0,22,23
 464 78 464 78 485.5 73 c 128,-1,24
 507 68 507 68 534 66 c 1,25,-1
 534 0 l 1,0,-1
EndSplineSet
EndChar

StartChar: m
Encoding: 109 109 80
Width: 1804
GlyphClass: 2
Flags: W
LayerCount: 2
Fore
SplineSet
1761 0 m 1,0,-1
 1280 0 l 1,1,-1
 1280 66 l 1,2,3
 1303 68 1303 68 1326.5 70 c 128,-1,4
 1350 72 1350 72 1368 78 c 0,5,6
 1396 87 1396 87 1409.5 109.5 c 128,-1,7
 1423 132 1423 132 1423 168 c 2,8,-1
 1423 677 l 2,9,10
 1423 781 1423 781 1375.5 837.5 c 128,-1,11
 1328 894 1328 894 1257 894 c 0,12,13
 1208 894 1208 894 1165 879 c 128,-1,14
 1122 864 1122 864 1086 837 c 0,15,16
 1057 815 1057 815 1037.5 789.5 c 128,-1,17
 1018 764 1018 764 1008 747 c 1,18,-1
 1008 178 l 2,19,20
 1008 143 1008 143 1020 120.5 c 128,-1,21
 1032 98 1032 98 1061 86 c 0,22,23
 1084 77 1084 77 1102.5 72.5 c 128,-1,24
 1121 68 1121 68 1151 66 c 1,25,-1
 1151 0 l 1,26,-1
 680 0 l 1,27,-1
 680 66 l 1,28,29
 703 68 703 68 724.5 70 c 128,-1,30
 746 72 746 72 764 78 c 0,31,32
 792 87 792 87 805.5 109.5 c 128,-1,33
 819 132 819 132 819 168 c 2,34,-1
 819 677 l 2,35,36
 819 781 819 781 771.5 837.5 c 128,-1,37
 724 894 724 894 653 894 c 0,38,39
 604 894 604 894 561 878.5 c 128,-1,40
 518 863 518 863 482 836 c 0,41,42
 453 814 453 814 433 786.5 c 128,-1,43
 413 759 413 759 403 745 c 1,44,-1
 403 180 l 2,45,46
 403 146 403 146 417 123 c 128,-1,47
 431 100 431 100 459 88 c 0,48,49
 480 78 480 78 502 73 c 128,-1,50
 524 68 524 68 551 66 c 1,51,-1
 551 0 l 1,52,-1
 72 0 l 1,53,-1
 72 66 l 1,54,55
 95 68 95 68 119.5 70 c 128,-1,56
 144 72 144 72 162 78 c 0,57,58
 190 87 190 87 203.5 109.5 c 128,-1,59
 217 132 217 132 217 168 c 2,60,-1
 217 781 l 2,61,62
 217 813 217 813 202.5 838.5 c 128,-1,63
 188 864 188 864 162 882 c 0,64,65
 143 894 143 894 115 901.5 c 128,-1,66
 87 909 87 909 57 911 c 1,67,-1
 57 976 l 1,68,-1
 387 998 l 1,69,-1
 401 984 l 1,70,-1
 401 843 l 1,71,-1
 408 843 l 1,72,73
 433 868 433 868 469 902 c 128,-1,74
 505 936 505 936 536 957 c 0,75,76
 571 981 571 981 623.5 997 c 128,-1,77
 676 1013 676 1013 737 1013 c 0,78,79
 833 1013 833 1013 902 961.5 c 128,-1,80
 971 910 971 910 1001 837 c 1,81,82
 1037 872 1037 872 1064.5 898.5 c 128,-1,83
 1092 925 1092 925 1137 955 c 0,84,85
 1175 981 1175 981 1226.5 997 c 128,-1,86
 1278 1013 1278 1013 1341 1013 c 0,87,88
 1466 1013 1466 1013 1539 931 c 128,-1,89
 1612 849 1612 849 1612 679 c 2,90,-1
 1612 178 l 2,91,92
 1612 143 1612 143 1624 120.5 c 128,-1,93
 1636 98 1636 98 1665 86 c 0,94,95
 1688 77 1688 77 1710.5 72.5 c 128,-1,96
 1733 68 1733 68 1761 66 c 1,97,-1
 1761 0 l 1,0,-1
EndSplineSet
EndChar

StartChar: n
Encoding: 110 110 81
Width: 1210
GlyphClass: 2
Flags: W
LayerCount: 2
Fore
SplineSet
1161 0 m 1,0,-1
 678 0 l 1,1,-1
 678 66 l 1,2,3
 701 68 701 68 728.5 70 c 128,-1,4
 756 72 756 72 774 78 c 0,5,6
 802 87 802 87 815.5 109.5 c 128,-1,7
 829 132 829 132 829 168 c 2,8,-1
 829 675 l 2,9,10
 829 780 829 780 779.5 837 c 128,-1,11
 730 894 730 894 659 894 c 0,12,13
 606 894 606 894 562 877.5 c 128,-1,14
 518 861 518 861 484 837 c 0,15,16
 451 814 451 814 431.5 787.5 c 128,-1,17
 412 761 412 761 403 745 c 1,18,-1
 403 178 l 2,19,20
 403 144 403 144 417 122 c 128,-1,21
 431 100 431 100 459 88 c 0,22,23
 480 78 480 78 504.5 73 c 128,-1,24
 529 68 529 68 555 66 c 1,25,-1
 555 0 l 1,26,-1
 72 0 l 1,27,-1
 72 66 l 1,28,29
 95 68 95 68 119.5 70 c 128,-1,30
 144 72 144 72 162 78 c 0,31,32
 190 87 190 87 203.5 109.5 c 128,-1,33
 217 132 217 132 217 168 c 2,34,-1
 217 777 l 2,35,36
 217 811 217 811 202.5 839.5 c 128,-1,37
 188 868 188 868 162 886 c 0,38,39
 143 898 143 898 117 903.5 c 128,-1,40
 91 909 91 909 61 911 c 1,41,-1
 61 976 l 1,42,-1
 389 998 l 1,43,-1
 403 984 l 1,44,-1
 403 845 l 1,45,-1
 408 845 l 1,46,47
 432 869 432 869 468 902.5 c 128,-1,48
 504 936 504 936 536 957 c 0,49,50
 573 981 573 981 624 997 c 128,-1,51
 675 1013 675 1013 739 1013 c 0,52,53
 881 1013 881 1013 949.5 924.5 c 128,-1,54
 1018 836 1018 836 1018 689 c 2,55,-1
 1018 176 l 2,56,57
 1018 141 1018 141 1030 119.5 c 128,-1,58
 1042 98 1042 98 1071 86 c 0,59,60
 1095 76 1095 76 1112.5 72 c 128,-1,61
 1130 68 1130 68 1161 66 c 1,62,-1
 1161 0 l 1,0,-1
EndSplineSet
EndChar

StartChar: o
Encoding: 111 111 82
Width: 1104
GlyphClass: 2
Flags: W
LayerCount: 2
Fore
SplineSet
1033 503 m 0,0,1
 1033 399 1033 399 1000 298.5 c 128,-1,2
 967 198 967 198 906 128 c 0,3,4
 837 48 837 48 746 9 c 128,-1,5
 655 -30 655 -30 542 -30 c 0,6,7
 448 -30 448 -30 363 5.5 c 128,-1,8
 278 41 278 41 212 109 c 0,9,10
 147 176 147 176 108.5 272.5 c 128,-1,11
 70 369 70 369 70 489 c 0,12,13
 70 720 70 720 204.5 867 c 128,-1,14
 339 1014 339 1014 557 1014 c 0,15,16
 764 1014 764 1014 898.5 874.5 c 128,-1,17
 1033 735 1033 735 1033 503 c 0,0,1
826 501 m 0,18,19
 826 576 826 576 811 659.5 c 128,-1,20
 796 743 796 743 766 801 c 0,21,22
 734 863 734 863 682 900.5 c 128,-1,23
 630 938 630 938 555 938 c 0,24,25
 478 938 478 938 423.5 900 c 128,-1,26
 369 862 369 862 335 796 c 0,27,28
 303 735 303 735 290 657 c 128,-1,29
 277 579 277 579 277 506 c 0,30,31
 277 410 277 410 292.5 328.5 c 128,-1,32
 308 247 308 247 342 183 c 256,33,34
 376 119 376 119 427.5 82.5 c 128,-1,35
 479 46 479 46 555 46 c 0,36,37
 680 46 680 46 753 167 c 128,-1,38
 826 288 826 288 826 501 c 0,18,19
EndSplineSet
EndChar

StartChar: p
Encoding: 112 112 83
Width: 1170
GlyphClass: 2
Flags: W
LayerCount: 2
Fore
SplineSet
973 869 m 0,0,1
 1032 799 1032 799 1064.5 706.5 c 128,-1,2
 1097 614 1097 614 1097 495 c 0,3,4
 1097 378 1097 378 1058 281.5 c 128,-1,5
 1019 185 1019 185 955 117 c 0,6,7
 888 48 888 48 806 11 c 128,-1,8
 724 -26 724 -26 632 -26 c 0,9,10
 543 -26 543 -26 486 -6 c 128,-1,11
 429 14 429 14 393 41 c 1,12,-1
 385 41 l 1,13,-1
 385 -255 l 2,14,15
 385 -291 385 -291 399 -315 c 128,-1,16
 413 -339 413 -339 442 -350 c 0,17,18
 466 -359 466 -359 510.5 -367.5 c 128,-1,19
 555 -376 555 -376 584 -377 c 1,20,-1
 584 -444 l 1,21,-1
 33 -444 l 1,22,-1
 33 -377 l 1,23,24
 64 -375 64 -375 93 -372 c 128,-1,25
 122 -369 122 -369 145 -362 c 0,26,27
 175 -352 175 -352 187 -327 c 128,-1,28
 199 -302 199 -302 199 -268 c 2,29,-1
 199 781 l 2,30,31
 199 811 199 811 184 839 c 128,-1,32
 169 867 169 867 145 884 c 0,33,34
 127 896 127 896 95 902.5 c 128,-1,35
 63 909 63 909 33 911 c 1,36,-1
 33 976 l 1,37,-1
 369 998 l 1,38,-1
 383 986 l 1,39,-1
 383 875 l 1,40,-1
 391 873 l 1,41,42
 443 933 443 933 520 973 c 128,-1,43
 597 1013 597 1013 673 1013 c 0,44,45
 765 1013 765 1013 841.5 974 c 128,-1,46
 918 935 918 935 973 869 c 0,0,1
810 160 m 0,47,48
 850 222 850 222 869 304 c 128,-1,49
 888 386 888 386 888 487 c 0,50,51
 888 561 888 561 872 638 c 128,-1,52
 856 715 856 715 822 772 c 0,53,54
 788 830 788 830 733 866 c 128,-1,55
 678 902 678 902 601 902 c 0,56,57
 527 902 527 902 475 869.5 c 128,-1,58
 423 837 423 837 385 792 c 1,59,-1
 385 209 l 1,60,61
 394 182 394 182 414.5 153 c 128,-1,62
 435 124 435 124 460 103 c 0,63,64
 491 78 491 78 527 62.5 c 128,-1,65
 563 47 563 47 615 47 c 0,66,67
 671 47 671 47 723 76.5 c 128,-1,68
 775 106 775 106 810 160 c 0,47,48
EndSplineSet
EndChar

StartChar: q
Encoding: 113 113 84
Width: 1146
GlyphClass: 2
Flags: W
LayerCount: 2
Fore
SplineSet
1154 -444 m 1,0,-1
 621 -444 l 1,1,-1
 621 -377 l 1,2,3
 652 -375 652 -375 682 -372 c 128,-1,4
 712 -369 712 -369 736 -362 c 0,5,6
 767 -352 767 -352 779 -327 c 128,-1,7
 791 -302 791 -302 791 -268 c 2,8,-1
 791 96 l 1,9,-1
 785 98 l 1,10,11
 769 80 769 80 739.5 56.5 c 128,-1,12
 710 33 710 33 678 18 c 0,13,14
 638 -3 638 -3 601 -14.5 c 128,-1,15
 564 -26 564 -26 508 -26 c 0,16,17
 418 -26 418 -26 338.5 11.5 c 128,-1,18
 259 49 259 49 200 118 c 0,19,20
 141 186 141 186 106.5 285.5 c 128,-1,21
 72 385 72 385 72 504 c 0,22,23
 72 617 72 617 112 709.5 c 128,-1,24
 152 802 152 802 218 871 c 0,25,26
 281 936 281 936 369.5 974.5 c 128,-1,27
 458 1013 458 1013 545 1013 c 0,28,29
 610 1013 610 1013 660.5 1000.5 c 128,-1,30
 711 988 711 988 747 971 c 0,31,32
 778 958 778 958 809 937.5 c 128,-1,33
 840 917 840 917 853 910 c 1,34,-1
 938 1040 l 1,35,-1
 995 1032 l 1,36,37
 991 958 991 958 984.5 850 c 128,-1,38
 978 742 978 742 978 661 c 2,39,-1
 978 -251 l 2,40,41
 978 -286 978 -286 991 -311.5 c 128,-1,42
 1004 -337 1004 -337 1033 -350 c 0,43,44
 1057 -360 1057 -360 1094 -367.5 c 128,-1,45
 1131 -375 1131 -375 1154 -377 c 1,46,-1
 1154 -444 l 1,0,-1
791 183 m 1,47,-1
 791 772 l 1,48,49
 783 797 783 797 764 827.5 c 128,-1,50
 745 858 745 858 719 881 c 0,51,52
 691 905 691 905 650.5 921 c 128,-1,53
 610 937 610 937 557 937 c 0,54,55
 440 937 440 937 360.5 816 c 128,-1,56
 281 695 281 695 281 483 c 0,57,58
 281 399 281 399 296.5 331 c 128,-1,59
 312 263 312 263 350 204 c 0,60,61
 386 148 386 148 441 114.5 c 128,-1,62
 496 81 496 81 580 81 c 0,63,64
 652 81 652 81 703 111.5 c 128,-1,65
 754 142 754 142 791 183 c 1,47,-1
EndSplineSet
EndChar

StartChar: r
Encoding: 114 114 85
Width: 839
GlyphClass: 2
Flags: W
LayerCount: 2
Fore
SplineSet
827 859 m 0,0,1
 827 808 827 808 802 768.5 c 128,-1,2
 777 729 777 729 725 729 c 0,3,4
 669 729 669 729 639.5 758 c 128,-1,5
 610 787 610 787 610 822 c 0,6,7
 610 844 610 844 613.5 862 c 128,-1,8
 617 880 617 880 620 898 c 1,9,10
 573 898 573 898 510 860 c 128,-1,11
 447 822 447 822 403 752 c 1,12,-1
 403 178 l 2,13,14
 403 143 403 143 416.5 121 c 128,-1,15
 430 99 430 99 459 88 c 0,16,17
 484 78 484 78 523.5 73 c 128,-1,18
 563 68 563 68 592 66 c 1,19,-1
 592 0 l 1,20,-1
 72 0 l 1,21,-1
 72 66 l 1,22,23
 95 68 95 68 119.5 70 c 128,-1,24
 144 72 144 72 162 78 c 0,25,26
 190 87 190 87 203.5 109.5 c 128,-1,27
 217 132 217 132 217 168 c 2,28,-1
 217 777 l 2,29,30
 217 808 217 808 202.5 838 c 128,-1,31
 188 868 188 868 162 886 c 0,32,33
 143 898 143 898 117 903.5 c 128,-1,34
 91 909 91 909 61 911 c 1,35,-1
 61 976 l 1,36,-1
 389 998 l 1,37,-1
 403 984 l 1,38,-1
 403 845 l 1,39,-1
 408 845 l 1,40,41
 470 926 470 926 546 968 c 128,-1,42
 622 1010 622 1010 685 1010 c 256,43,44
 748 1010 748 1010 787.5 969 c 128,-1,45
 827 928 827 928 827 859 c 0,0,1
EndSplineSet
EndChar

StartChar: s
Encoding: 115 115 86
Width: 885
GlyphClass: 2
Flags: W
LayerCount: 2
Fore
SplineSet
723 483 m 0,0,1
 764 447 764 447 786 400 c 128,-1,2
 808 353 808 353 808 285 c 0,3,4
 808 148 808 148 705.5 61 c 128,-1,5
 603 -26 603 -26 440 -26 c 0,6,7
 354 -26 354 -26 281.5 5 c 128,-1,8
 209 36 209 36 178 62 c 1,9,-1
 158 -3 l 1,10,-1
 83 -3 l 1,11,-1
 73 340 l 1,12,-1
 142 340 l 1,13,14
 150 301 150 301 176 249 c 128,-1,15
 202 197 202 197 239 155 c 0,16,17
 278 111 278 111 332.5 81 c 128,-1,18
 387 51 387 51 455 51 c 0,19,20
 551 51 551 51 603 94.5 c 128,-1,21
 655 138 655 138 655 219 c 0,22,23
 655 261 655 261 638.5 291.5 c 128,-1,24
 622 322 622 322 590 345 c 0,25,26
 557 368 557 368 509 386.5 c 128,-1,27
 461 405 461 405 402 423 c 0,28,29
 355 437 355 437 297.5 461.5 c 128,-1,30
 240 486 240 486 199 519 c 0,31,32
 155 554 155 554 127 605 c 128,-1,33
 99 656 99 656 99 725 c 0,34,35
 99 846 99 846 189 930 c 128,-1,36
 279 1014 279 1014 430 1014 c 0,37,38
 488 1014 488 1014 548.5 999 c 128,-1,39
 609 984 609 984 647 963 c 1,40,-1
 670 1015 l 1,41,-1
 742 1015 l 1,42,-1
 757 698 l 1,43,-1
 688 698 l 1,44,45
 667 804 667 804 597.5 870.5 c 128,-1,46
 528 937 528 937 428 937 c 0,47,48
 346 937 346 937 299 896 c 128,-1,49
 252 855 252 855 252 797 c 0,50,51
 252 752 252 752 267.5 722 c 128,-1,52
 283 692 283 692 314 671 c 0,53,54
 344 651 344 651 389.5 633.5 c 128,-1,55
 435 616 435 616 502 594 c 0,56,57
 568 573 568 573 626.5 545 c 128,-1,58
 685 517 685 517 723 483 c 0,0,1
EndSplineSet
EndChar

StartChar: t
Encoding: 116 116 87
Width: 707
GlyphClass: 2
Flags: W
LayerCount: 2
Fore
SplineSet
681 43 m 1,0,1
 616 16 616 16 558 -2.5 c 128,-1,2
 500 -21 500 -21 416 -21 c 0,3,4
 292 -21 292 -21 241.5 41.5 c 128,-1,5
 191 104 191 104 191 218 c 2,6,-1
 191 886 l 1,7,-1
 13 886 l 1,8,-1
 13 982 l 1,9,-1
 195 982 l 1,10,-1
 195 1289 l 1,11,-1
 377 1289 l 1,12,-1
 377 982 l 1,13,-1
 660 982 l 1,14,-1
 660 886 l 1,15,-1
 379 886 l 1,16,-1
 379 335 l 2,17,18
 379 273 379 273 383.5 231.5 c 128,-1,19
 388 190 388 190 405 159 c 0,20,21
 421 130 421 130 453 115 c 128,-1,22
 485 100 485 100 539 100 c 0,23,24
 564 100 564 100 612.5 104.5 c 128,-1,25
 661 109 661 109 681 116 c 1,26,-1
 681 43 l 1,0,1
EndSplineSet
EndChar

StartChar: u
Encoding: 117 117 88
Width: 1178
GlyphClass: 2
Flags: W
LayerCount: 2
Fore
SplineSet
1129 18 m 1,0,-1
 808 -4 l 1,1,-1
 793 10 l 1,2,-1
 793 135 l 1,3,-1
 787 135 l 1,4,5
 763 110 763 110 733 81.5 c 128,-1,6
 703 53 703 53 664 30 c 0,7,8
 619 3 619 3 577 -11 c 128,-1,9
 535 -25 535 -25 458 -25 c 0,10,11
 327 -25 327 -25 258.5 60.5 c 128,-1,12
 190 146 190 146 190 309 c 2,13,-1
 190 781 l 2,14,15
 190 817 190 817 176.5 841.5 c 128,-1,16
 163 866 163 866 137 884 c 0,17,18
 119 896 119 896 92 901.5 c 128,-1,19
 65 907 65 907 35 909 c 1,20,-1
 35 974 l 1,21,-1
 364 998 l 1,22,-1
 379 984 l 1,23,-1
 379 299 l 2,24,25
 379 192 379 192 427 138 c 128,-1,26
 475 84 475 84 542 84 c 0,27,28
 597 84 597 84 640 101 c 128,-1,29
 683 118 683 118 712 141 c 0,30,31
 739 162 739 162 759.5 185.5 c 128,-1,32
 780 209 780 209 791 229 c 1,33,-1
 791 788 l 2,34,35
 791 821 791 821 777 846.5 c 128,-1,36
 763 872 763 872 738 890 c 0,37,38
 720 902 720 902 684.5 904.5 c 128,-1,39
 649 907 649 907 605 909 c 1,40,-1
 605 974 l 1,41,-1
 963 998 l 1,42,-1
 978 984 l 1,43,-1
 978 201 l 2,44,45
 978 167 978 167 992 143 c 128,-1,46
 1006 119 1006 119 1031 102 c 0,47,48
 1049 91 1049 91 1074 87.5 c 128,-1,49
 1099 84 1099 84 1129 83 c 1,50,-1
 1129 18 l 1,0,-1
EndSplineSet
EndChar

StartChar: v
Encoding: 118 118 89
Width: 1017
GlyphClass: 2
Flags: W
LayerCount: 2
Fore
SplineSet
1046 925 m 1,0,1
 1001 917 1001 917 960.5 892.5 c 128,-1,2
 920 868 920 868 891 806 c 0,3,4
 832 672 832 672 769 526.5 c 128,-1,5
 706 381 706 381 638 221 c 0,6,7
 618 175 618 175 595.5 112 c 128,-1,8
 573 49 573 49 554 -9 c 1,9,-1
 476 -9 l 1,10,11
 381 226 381 226 301 419.5 c 128,-1,12
 221 613 221 613 135 816 c 0,13,14
 115 862 115 862 70.5 887.5 c 128,-1,15
 26 913 26 913 -19 920 c 1,16,-1
 -19 986 l 1,17,-1
 437 986 l 1,18,-1
 437 916 l 1,19,20
 407 915 407 915 362 903.5 c 128,-1,21
 317 892 317 892 317 872 c 0,22,23
 317 869 317 869 322 856.5 c 128,-1,24
 327 844 327 844 332 828 c 0,25,26
 373 726 373 726 448 543 c 128,-1,27
 523 360 523 360 570 248 c 1,28,29
 606 334 606 334 660.5 462 c 128,-1,30
 715 590 715 590 778 748 c 0,31,32
 788 775 788 775 797 798.5 c 128,-1,33
 806 822 806 822 806 846 c 0,34,35
 806 863 806 863 789.5 876.5 c 128,-1,36
 773 890 773 890 750 900 c 256,37,38
 727 910 727 910 705 915 c 128,-1,39
 683 920 683 920 669 922 c 1,40,-1
 669 986 l 1,41,-1
 1046 986 l 1,42,-1
 1046 925 l 1,0,1
EndSplineSet
EndChar

StartChar: w
Encoding: 119 119 90
Width: 1510
GlyphClass: 2
Flags: W
LayerCount: 2
Fore
SplineSet
1541 922 m 1,0,1
 1499 918 1499 918 1450.5 887 c 128,-1,2
 1402 856 1402 856 1380 794 c 0,3,4
 1330 647 1330 647 1285.5 515.5 c 128,-1,5
 1241 384 1241 384 1186 220 c 0,6,7
 1168 168 1168 168 1149.5 108 c 128,-1,8
 1131 48 1131 48 1116 -7 c 1,9,-1
 1030 -7 l 1,10,-1
 765 719 l 1,11,-1
 498 -7 l 1,12,-1
 416 -7 l 1,13,14
 341 215 341 215 269.5 433.5 c 128,-1,15
 198 652 198 652 143 814 c 0,16,17
 127 861 127 861 82 888 c 128,-1,18
 37 915 37 915 -5 920 c 1,19,-1
 -5 986 l 1,20,-1
 435 986 l 1,21,-1
 435 916 l 1,22,23
 402 915 402 915 363.5 905 c 128,-1,24
 325 895 325 895 325 872 c 0,25,26
 325 868 325 868 328.5 855 c 128,-1,27
 332 842 332 842 337 827 c 0,28,29
 369 722 369 722 409.5 592.5 c 128,-1,30
 450 463 450 463 514 256 c 1,31,-1
 766 966 l 1,32,-1
 862 966 l 1,33,-1
 1119 266 l 1,34,35
 1162 400 1162 400 1204.5 525.5 c 128,-1,36
 1247 651 1247 651 1279 761 c 0,37,38
 1286 787 1286 787 1292.5 808.5 c 128,-1,39
 1299 830 1299 830 1299 851 c 0,40,41
 1299 869 1299 869 1283 883 c 128,-1,42
 1267 897 1267 897 1244 906 c 0,43,44
 1224 914 1224 914 1200.5 918 c 128,-1,45
 1177 922 1177 922 1166 922 c 1,46,-1
 1166 986 l 1,47,-1
 1541 986 l 1,48,-1
 1541 922 l 1,0,1
EndSplineSet
EndChar

StartChar: x
Encoding: 120 120 91
Width: 1034
GlyphClass: 2
Flags: W
LayerCount: 2
Fore
SplineSet
1022 0 m 1,0,-1
 570 0 l 1,1,-1
 570 66 l 1,2,3
 615 71 615 71 646.5 76 c 128,-1,4
 678 81 678 81 678 102 c 0,5,6
 678 111 678 111 668 130 c 128,-1,7
 658 149 658 149 648 165 c 0,8,9
 623 204 623 204 579.5 269.5 c 128,-1,10
 536 335 536 335 473 426 c 1,11,12
 421 361 421 361 377 299.5 c 128,-1,13
 333 238 333 238 285 169 c 0,14,15
 278 159 278 159 270.5 144 c 128,-1,16
 263 129 263 129 263 120 c 0,17,18
 263 98 263 98 291.5 83.5 c 128,-1,19
 320 69 320 69 377 64 c 1,20,-1
 377 0 l 1,21,-1
 12 0 l 1,22,-1
 12 62 l 1,23,24
 80 82 80 82 121.5 110.5 c 128,-1,25
 163 139 163 139 198 181 c 0,26,27
 229 221 229 221 284.5 291 c 128,-1,28
 340 361 340 361 428 481 c 1,29,30
 377 554 377 554 303.5 659.5 c 128,-1,31
 230 765 230 765 182 835 c 0,32,33
 156 873 156 873 122.5 896.5 c 128,-1,34
 89 920 89 920 28 920 c 1,35,-1
 28 986 l 1,36,-1
 457 986 l 1,37,-1
 457 920 l 1,38,39
 425 920 425 920 394 916 c 128,-1,40
 363 912 363 912 363 898 c 0,41,42
 363 889 363 889 369 878 c 128,-1,43
 375 867 375 867 384 854 c 0,44,45
 406 820 406 820 452.5 749 c 128,-1,46
 499 678 499 678 553 599 c 1,47,48
 588 647 588 647 634.5 711 c 128,-1,49
 681 775 681 775 720 833 c 0,50,51
 724 840 724 840 728 850.5 c 128,-1,52
 732 861 732 861 732 871 c 0,53,54
 732 892 732 892 697.5 904.5 c 128,-1,55
 663 917 663 917 632 922 c 1,56,-1
 632 986 l 1,57,-1
 996 986 l 1,58,-1
 996 924 l 1,59,60
 919 904 919 904 876 876.5 c 128,-1,61
 833 849 833 849 803 813 c 0,62,63
 770 772 770 772 724.5 712 c 128,-1,64
 679 652 679 652 597 544 c 1,65,66
 688 416 688 416 745 334 c 128,-1,67
 802 252 802 252 860 165 c 0,68,69
 889 121 889 121 924.5 95.5 c 128,-1,70
 960 70 960 70 1022 66 c 1,71,-1
 1022 0 l 1,0,-1
EndSplineSet
EndChar

StartChar: y
Encoding: 121 121 92
Width: 1008
GlyphClass: 2
Flags: W
LayerCount: 2
Fore
SplineSet
-3 -322 m 0,0,1
 -3 -272 -3 -272 24.5 -240.5 c 128,-1,2
 52 -209 52 -209 93 -209 c 0,3,4
 125 -209 125 -209 148 -221 c 128,-1,5
 171 -233 171 -233 189 -252 c 0,6,7
 204 -267 204 -267 221 -293 c 128,-1,8
 238 -319 238 -319 248 -336 c 1,9,10
 298 -309 298 -309 367.5 -195 c 128,-1,11
 437 -81 437 -81 468 5 c 1,12,13
 373 242 373 242 296 429 c 128,-1,14
 219 616 219 616 135 816 c 0,15,16
 116 862 116 862 71 887.5 c 128,-1,17
 26 913 26 913 -19 920 c 1,18,-1
 -19 986 l 1,19,-1
 431 986 l 1,20,-1
 431 916 l 1,21,22
 401 915 401 915 359 903.5 c 128,-1,23
 317 892 317 892 317 872 c 1,24,25
 317 872 317 872 322.5 857 c 128,-1,26
 328 842 328 842 332 828 c 0,27,28
 370 729 370 729 448 542.5 c 128,-1,29
 526 356 526 356 569 244 c 1,30,31
 614 351 614 351 662.5 465.5 c 128,-1,32
 711 580 711 580 771 736 c 0,33,34
 778 755 778 755 791 788.5 c 128,-1,35
 804 822 804 822 804 846 c 0,36,37
 804 872 804 872 758.5 894.5 c 128,-1,38
 713 917 713 917 672 922 c 1,39,-1
 672 986 l 1,40,-1
 1038 986 l 1,41,-1
 1038 924 l 1,42,43
 1008 919 1008 919 959 889.5 c 128,-1,44
 910 860 910 860 886 806 c 0,45,46
 767 530 767 530 674.5 303 c 128,-1,47
 582 76 582 76 534 -31 c 0,48,49
 471 -171 471 -171 421.5 -249.5 c 128,-1,50
 372 -328 372 -328 325 -373 c 0,51,52
 279 -415 279 -415 241.5 -429.5 c 128,-1,53
 204 -444 204 -444 164 -444 c 0,54,55
 86 -444 86 -444 41.5 -407 c 128,-1,56
 -3 -370 -3 -370 -3 -322 c 0,0,1
EndSplineSet
EndChar

StartChar: z
Encoding: 122 122 93
Width: 909
GlyphClass: 2
Flags: W
LayerCount: 2
Fore
SplineSet
853 0 m 1,0,-1
 55 0 l 1,1,-1
 55 53 l 1,2,-1
 613 905 l 1,3,-1
 475 905 l 2,4,5
 388 905 388 905 339 902 c 128,-1,6
 290 899 290 899 249 882 c 0,7,8
 221 871 221 871 196.5 819 c 128,-1,9
 172 767 172 767 154 683 c 1,10,-1
 93 683 l 1,11,-1
 93 986 l 1,12,-1
 847 986 l 1,13,-1
 847 945 l 1,14,-1
 280 81 l 1,15,16
 316 80 316 80 359 79.5 c 128,-1,17
 402 79 402 79 452 79 c 0,18,19
 492 79 492 79 535.5 80 c 128,-1,20
 579 81 579 81 647 85 c 0,21,22
 687 87 687 87 707.5 112 c 128,-1,23
 728 137 728 137 739 169 c 0,24,25
 750 198 750 198 765.5 249 c 128,-1,26
 781 300 781 300 793 348 c 1,27,-1
 853 348 l 1,28,-1
 853 0 l 1,0,-1
EndSplineSet
EndChar

StartChar: braceleft
Encoding: 123 123 94
Width: 1515
GlyphClass: 2
Flags: W
LayerCount: 2
Fore
SplineSet
757.5 1043 m 128,-1,1
 876 1043 876 1043 959 960 c 128,-1,2
 1042 877 1042 877 1042 759 c 128,-1,3
 1042 641 1042 641 959 558 c 128,-1,4
 876 475 876 475 757.5 475 c 128,-1,5
 639 475 639 475 556.5 558 c 128,-1,6
 474 641 474 641 474 759 c 128,-1,7
 474 877 474 877 556.5 960 c 128,-1,0
 639 1043 639 1043 757.5 1043 c 128,-1,1
1486 806 m 2,8,9
 1516 792 1516 792 1516 759.5 c 128,-1,10
 1516 727 1516 727 1486 712 c 2,11,-1
 1208 573 l 1,12,-1
 1305 277 l 2,13,14
 1314 247 1314 247 1292 223.5 c 128,-1,15
 1270 200 1270 200 1240 211 c 2,16,-1
 944 309 l 1,17,-1
 802 31 l 2,18,19
 790 1 790 1 757.5 1 c 128,-1,20
 725 1 725 1 710 31 c 2,21,-1
 571 309 l 1,22,-1
 275 211 l 2,23,24
 246 200 246 200 222 222 c 128,-1,25
 198 244 198 244 210 277 c 2,26,-1
 308 573 l 1,27,-1
 30 712 l 2,28,29
 0 727 0 727 0 759.5 c 128,-1,30
 0 792 0 792 30 806 c 2,31,-1
 308 946 l 1,32,-1
 210 1242 l 2,33,34
 198 1271 198 1271 220.5 1295 c 128,-1,35
 243 1319 243 1319 275 1307 c 2,36,-1
 571 1209 l 1,37,-1
 710 1487 l 2,38,39
 725 1517 725 1517 757.5 1517 c 128,-1,40
 790 1517 790 1517 805 1487 c 2,41,-1
 944 1209 l 1,42,-1
 1240 1307 l 2,43,44
 1270 1319 1270 1319 1293.5 1295 c 128,-1,45
 1317 1271 1317 1271 1305 1242 c 2,46,-1
 1208 946 l 1,47,-1
 1486 806 l 2,8,9
1026 491 m 128,-1,49
 1137 602 1137 602 1137 759 c 128,-1,50
 1137 916 1137 916 1026 1027 c 128,-1,51
 915 1138 915 1138 758 1138 c 128,-1,52
 601 1138 601 1138 490 1027 c 128,-1,53
 379 916 379 916 379 759 c 128,-1,54
 379 602 379 602 490 491 c 128,-1,55
 601 380 601 380 758 380 c 128,-1,48
 915 380 915 380 1026 491 c 128,-1,49
EndSplineSet
EndChar

StartChar: bar
Encoding: 124 124 95
Width: 352
GlyphClass: 2
Flags: W
LayerCount: 2
Fore
SplineSet
246 1210 m 0,0,1
 285 1081 285 1081 351 964 c 128,-1,2
 417 847 417 847 470 780 c 128,-1,3
 523 713 523 713 563.5 623 c 128,-1,4
 604 533 604 533 604 439 c 0,5,6
 604 256 604 256 478.5 127.5 c 128,-1,7
 353 -1 353 -1 176 -1 c 128,-1,8
 -1 -1 -1 -1 -126.5 127.5 c 128,-1,9
 -252 256 -252 256 -252 439 c 0,10,11
 -252 533 -252 533 -211.5 622 c 128,-1,12
 -171 711 -171 711 -116.5 780 c 128,-1,13
 -62 849 -62 849 2.5 965 c 128,-1,14
 67 1081 67 1081 106 1210 c 0,15,16
 123 1264 123 1264 177.5 1264 c 128,-1,17
 232 1264 232 1264 246 1210 c 0,0,1
176 158 m 0,18,19
 193 158 193 158 204 169 c 128,-1,20
 215 180 215 180 215 197 c 128,-1,21
 215 214 215 214 204 225.5 c 128,-1,22
 193 237 193 237 176 237 c 0,23,24
 96 237 96 237 39 295 c 128,-1,25
 -18 353 -18 353 -18 434 c 0,26,27
 -18 451 -18 451 -29 462.5 c 128,-1,28
 -40 474 -40 474 -57 474 c 128,-1,29
 -74 474 -74 474 -85 462.5 c 128,-1,30
 -96 451 -96 451 -96 434 c 0,31,32
 -96 321 -96 321 -16 239.5 c 128,-1,33
 64 158 64 158 176 158 c 0,18,19
EndSplineSet
EndChar

StartChar: braceright
Encoding: 125 125 96
Width: 448
GlyphClass: 2
Flags: W
LayerCount: 2
Fore
SplineSet
783 404 m 2,0,1
 799 393 799 393 803 378 c 128,-1,2
 807 363 807 363 799 347 c 2,3,-1
 778 311 l 2,4,5
 758 275 758 275 721 296 c 2,6,-1
 620 355 l 1,7,-1
 644 268 l 2,8,9
 646 255 646 255 643.5 244.5 c 128,-1,10
 641 234 641 234 633 226.5 c 128,-1,11
 625 219 625 219 615 216 c 2,12,-1
 576 206 l 2,13,14
 561 201 561 201 545.5 210 c 128,-1,15
 530 219 530 219 524 234 c 2,16,-1
 470 442 l 1,17,-1
 284 550 l 1,18,-1
 284 334 l 1,19,-1
 436 183 l 2,20,21
 465 152 465 152 436 124 c 2,22,-1
 405 95 l 2,23,24
 377 65 377 65 348 95 c 2,25,-1
 284 160 l 1,26,-1
 284 41 l 2,27,28
 284 23 284 23 272 11.5 c 128,-1,29
 260 0 260 0 245 0 c 2,30,-1
 203 0 l 2,31,32
 185 0 185 0 173.5 11.5 c 128,-1,33
 162 23 162 23 162 41 c 2,34,-1
 162 160 l 1,35,-1
 97 93 l 2,36,37
 69 65 69 65 40 93 c 2,38,-1
 12 124 l 2,39,40
 1 134 1 134 1 152 c 128,-1,41
 1 170 1 170 12 180 c 2,42,-1
 162 334 l 1,43,-1
 162 550 l 1,44,-1
 -25 442 l 1,45,-1
 -79 234 l 2,46,47
 -84 219 -84 219 -98.5 210 c 128,-1,48
 -113 201 -113 201 -128 206 c 2,49,-1
 -167 216 l 2,50,51
 -185 221 -185 221 -193 235.5 c 128,-1,52
 -201 250 -201 250 -196 265 c 2,53,-1
 -172 355 l 1,54,-1
 -273 296 l 2,55,56
 -289 288 -289 288 -305.5 292 c 128,-1,57
 -322 296 -322 296 -330 311 c 2,58,-1
 -351 347 l 2,59,60
 -372 383 -372 383 -335 404 c 2,61,-1
 -234 463 l 1,62,-1
 -322 486 l 2,63,64
 -338 491 -338 491 -347 505 c 128,-1,65
 -356 519 -356 519 -351 537 c 2,66,-1
 -341 576 l 2,67,68
 -335 594 -335 594 -321 601.5 c 128,-1,69
 -307 609 -307 609 -291 607 c 2,70,-1
 -84 550 l 1,71,-1
 102 658 l 1,72,-1
 -84 766 l 1,73,-1
 -291 710 l 2,74,75
 -307 707 -307 707 -321 714.5 c 128,-1,76
 -335 722 -335 722 -341 740 c 2,77,-1
 -351 779 l 2,78,79
 -356 797 -356 797 -347 811 c 128,-1,80
 -338 825 -338 825 -322 830 c 2,81,-1
 -234 854 l 1,82,-1
 -335 913 l 2,83,84
 -372 933 -372 933 -351 969 c 2,85,-1
 -330 1005 l 2,86,87
 -310 1041 -310 1041 -273 1021 c 2,88,-1
 -172 961 l 1,89,-1
 -196 1049 l 2,90,91
 -201 1067 -201 1067 -193 1081 c 128,-1,92
 -185 1095 -185 1095 -167 1100 c 2,93,-1
 -128 1110 l 2,94,95
 -113 1116 -113 1116 -97.5 1107 c 128,-1,96
 -82 1098 -82 1098 -79 1082 c 2,97,-1
 -25 874 l 1,98,-1
 162 766 l 1,99,-1
 162 982 l 1,100,-1
 12 1134 l 2,101,102
 -17 1164 -17 1164 12 1193 c 2,103,-1
 43 1221 l 1,104,105
 71 1252 71 1252 100 1221 c 2,106,-1
 164 1157 l 1,107,-1
 164 1275 l 2,108,109
 164 1293 164 1293 176 1304.5 c 128,-1,110
 188 1316 188 1316 203 1316 c 2,111,-1
 245 1316 l 2,112,113
 263 1316 263 1316 274.5 1304.5 c 128,-1,114
 286 1293 286 1293 286 1275 c 2,115,-1
 286 1157 l 1,116,-1
 351 1224 l 2,117,118
 379 1252 379 1252 408 1224 c 2,119,-1
 436 1193 l 2,120,121
 465 1164 465 1164 436 1136 c 2,122,-1
 286 982 l 1,123,-1
 286 766 l 1,124,-1
 473 874 l 1,125,-1
 527 1082 l 2,126,127
 532 1098 532 1098 546.5 1107 c 128,-1,128
 561 1116 561 1116 576 1110 c 2,129,-1
 615 1100 l 2,130,131
 633 1095 633 1095 641 1081 c 128,-1,132
 649 1067 649 1067 644 1051 c 2,133,-1
 620 961 l 1,134,-1
 724 1021 l 2,135,136
 737 1028 737 1028 753.5 1024.5 c 128,-1,137
 770 1021 770 1021 778 1005 c 2,138,-1
 799 969 l 2,139,140
 820 933 820 933 783 913 c 2,141,-1
 682 854 l 1,142,-1
 770 830 l 2,143,144
 786 825 786 825 795 811 c 128,-1,145
 804 797 804 797 799 779 c 2,146,-1
 789 740 l 2,147,148
 783 722 783 722 769 714.5 c 128,-1,149
 755 707 755 707 739 710 c 2,150,-1
 532 766 l 1,151,-1
 346 658 l 1,152,-1
 532 550 l 1,153,-1
 739 607 l 2,154,155
 755 609 755 609 769 601.5 c 128,-1,156
 783 594 783 594 789 576 c 2,157,-1
 799 537 l 2,158,159
 804 519 804 519 795 505 c 128,-1,160
 786 491 786 491 770 486 c 2,161,-1
 682 463 l 1,162,-1
 783 404 l 2,0,1
EndSplineSet
EndChar

StartChar: asciitilde
Encoding: 126 126 97
Width: 859
GlyphClass: 2
Flags: W
LayerCount: 2
Fore
SplineSet
755 1128 m 256,0,1
 755 991 755 991 663.5 897 c 128,-1,2
 572 803 572 803 429 803 c 0,3,4
 285 803 285 803 194.5 898 c 128,-1,5
 104 993 104 993 104 1128 c 0,6,7
 104 1269 104 1269 197 1361 c 128,-1,8
 290 1453 290 1453 429 1453 c 0,9,10
 572 1453 572 1453 663.5 1359 c 128,-1,11
 755 1265 755 1265 755 1128 c 256,0,1
607 1120 m 0,12,13
 607 1245 607 1245 558 1311.5 c 128,-1,14
 509 1378 509 1378 428 1378 c 0,15,16
 346 1378 346 1378 299 1311 c 128,-1,17
 252 1244 252 1244 252 1131 c 0,18,19
 252 1014 252 1014 299 946 c 128,-1,20
 346 878 346 878 432 878 c 0,21,22
 499 878 499 878 553 939.5 c 128,-1,23
 607 1001 607 1001 607 1120 c 0,12,13
EndSplineSet
EndChar

StartChar: exclamdown
Encoding: 161 161 98
Width: 678
GlyphClass: 2
Flags: W
LayerCount: 2
Fore
SplineSet
481 1309 m 256,0,1
 481 1253 481 1253 440.5 1213.5 c 128,-1,2
 400 1174 400 1174 344 1174 c 256,3,4
 288 1174 288 1174 247.5 1213.5 c 128,-1,5
 207 1253 207 1253 207 1309 c 256,6,7
 207 1365 207 1365 247.5 1405.5 c 128,-1,8
 288 1446 288 1446 344 1446 c 256,9,10
 400 1446 400 1446 440.5 1405.5 c 128,-1,11
 481 1365 481 1365 481 1309 c 256,0,1
472 103 m 256,12,13
 472 46 472 46 436 7 c 128,-1,14
 400 -32 400 -32 344 -32 c 256,15,16
 288 -32 288 -32 252 6.5 c 128,-1,17
 216 45 216 45 216 103 c 0,18,19
 216 168 216 168 248 435.5 c 128,-1,20
 280 703 280 703 303 992 c 1,21,-1
 381 992 l 1,22,23
 404 750 404 750 438 455 c 128,-1,24
 472 160 472 160 472 103 c 256,12,13
EndSplineSet
EndChar

StartChar: cent
Encoding: 162 162 99
Width: 1137
GlyphClass: 2
Flags: W
LayerCount: 2
Fore
SplineSet
1040 234 m 1,0,1
 981 134 981 134 878.5 61.5 c 128,-1,2
 776 -11 776 -11 651 -19 c 1,3,-1
 651 -299 l 1,4,-1
 569 -299 l 1,5,-1
 569 -18 l 1,6,7
 364 0 364 0 252.5 142.5 c 128,-1,8
 141 285 141 285 141 499 c 0,9,10
 141 692 141 692 260 838.5 c 128,-1,11
 379 985 379 985 569 1010 c 1,12,-1
 569 1275 l 1,13,-1
 651 1275 l 1,14,-1
 651 1015 l 1,15,16
 797 1014 797 1014 895 943.5 c 128,-1,17
 993 873 993 873 993 755 c 0,18,19
 993 694 993 694 966.5 661 c 128,-1,20
 940 628 940 628 887 628 c 0,21,22
 822 628 822 628 793.5 658 c 128,-1,23
 765 688 765 688 765 725 c 0,24,25
 765 770 765 770 779.5 817 c 128,-1,26
 794 864 794 864 796 887 c 1,27,28
 779 913 779 913 739 927 c 128,-1,29
 699 941 699 941 651 944 c 1,30,-1
 651 88 l 1,31,32
 656 88 656 88 660 87.5 c 128,-1,33
 664 87 664 87 671 87 c 0,34,35
 775 87 775 87 847.5 135.5 c 128,-1,36
 920 184 920 184 982 280 c 1,37,-1
 1040 234 l 1,0,1
569 100 m 1,38,-1
 569 939 l 1,39,40
 525 928 525 928 485 897.5 c 128,-1,41
 445 867 445 867 414 817 c 256,42,43
 383 767 383 767 363.5 687.5 c 128,-1,44
 344 608 344 608 344 507 c 0,45,46
 344 347 344 347 403 241 c 128,-1,47
 462 135 462 135 569 100 c 1,38,-1
EndSplineSet
EndChar

StartChar: sterling
Encoding: 163 163 100
Width: 1274
GlyphClass: 2
Flags: W
LayerCount: 2
Fore
SplineSet
299 177 m 1,0,-1
 1165 177 l 1,1,-1
 1165 0 l 1,2,-1
 117 0 l 1,3,-1
 117 148 l 1,4,5
 186 171 186 171 229.5 221 c 128,-1,6
 273 271 273 271 296 337 c 0,7,8
 318 398 318 398 327 471.5 c 128,-1,9
 336 545 336 545 336 621 c 1,10,-1
 169 621 l 1,11,-1
 169 717 l 1,12,-1
 336 717 l 1,13,14
 333 757 333 757 327 837 c 128,-1,15
 321 917 321 917 321 969 c 0,16,17
 321 1181 321 1181 447.5 1318.5 c 128,-1,18
 574 1456 574 1456 776 1456 c 0,19,20
 864 1456 864 1456 930.5 1429 c 128,-1,21
 997 1402 997 1402 1040 1362 c 0,22,23
 1084 1320 1084 1320 1108 1267.5 c 128,-1,24
 1132 1215 1132 1215 1132 1160 c 0,25,26
 1132 1110 1132 1110 1108 1072.5 c 128,-1,27
 1084 1035 1084 1035 1028 1035 c 0,28,29
 969 1035 969 1035 935 1064.5 c 128,-1,30
 901 1094 901 1094 901 1132 c 0,31,32
 901 1176 901 1176 913.5 1223 c 128,-1,33
 926 1270 926 1270 931 1292 c 1,34,35
 918 1320 918 1320 876 1348 c 128,-1,36
 834 1376 834 1376 772 1376 c 0,37,38
 737 1376 737 1376 696.5 1366 c 128,-1,39
 656 1356 656 1356 615 1323 c 0,40,41
 576 1291 576 1291 551 1232 c 128,-1,42
 526 1173 526 1173 526 1083 c 0,43,44
 526 1019 526 1019 531 905.5 c 128,-1,45
 536 792 536 792 536 717 c 1,46,-1
 932 717 l 1,47,-1
 932 621 l 1,48,-1
 536 621 l 1,49,50
 536 485 536 485 476 373.5 c 128,-1,51
 416 262 416 262 299 186 c 1,52,-1
 299 177 l 1,0,-1
EndSplineSet
EndChar

StartChar: currency
Encoding: 164 164 101
Width: 1170
GlyphClass: 2
Flags: W
LayerCount: 2
Fore
SplineSet
1005 228 m 1,0,-1
 919 141 l 1,1,-1
 731 325 l 1,2,3
 700 306 700 306 662.5 294.5 c 128,-1,4
 625 283 625 283 585 283 c 0,5,6
 549 283 549 283 510 294.5 c 128,-1,7
 471 306 471 306 441 325 c 1,8,-1
 252 139 l 1,9,-1
 167 229 l 1,10,-1
 351 415 l 1,11,12
 331 446 331 446 320 484.5 c 128,-1,13
 309 523 309 523 309 559 c 0,14,15
 309 601 309 601 319.5 635 c 128,-1,16
 330 669 330 669 351 703 c 1,17,-1
 167 892 l 1,18,-1
 255 978 l 1,19,-1
 441 793 l 1,20,21
 466 810 466 810 510 822.5 c 128,-1,22
 554 835 554 835 585 835 c 0,23,24
 625 835 625 835 663.5 823 c 128,-1,25
 702 811 702 811 730 794 c 1,26,-1
 915 978 l 1,27,-1
 1005 893 l 1,28,-1
 819 703 l 1,29,30
 839 672 839 672 850.5 633.5 c 128,-1,31
 862 595 862 595 862 559 c 0,32,33
 862 520 862 520 849.5 481 c 128,-1,34
 837 442 837 442 819 415 c 1,35,-1
 1005 228 l 1,0,-1
747 559 m 0,36,37
 747 627 747 627 699.5 675.5 c 128,-1,38
 652 724 652 724 585 724 c 256,39,40
 518 724 518 724 470.5 676 c 128,-1,41
 423 628 423 628 423 559 c 0,42,43
 423 492 423 492 470.5 443 c 128,-1,44
 518 394 518 394 585 394 c 256,45,46
 652 394 652 394 699.5 442 c 128,-1,47
 747 490 747 490 747 559 c 0,36,37
EndSplineSet
EndChar

StartChar: yen
Encoding: 165 165 102
Width: 1259
GlyphClass: 2
Flags: W
LayerCount: 2
Fore
SplineSet
1282 1348 m 1,0,1
 1265 1347 1265 1347 1228 1334.5 c 128,-1,2
 1191 1322 1191 1322 1175 1310 c 0,3,4
 1136 1286 1136 1286 1121.5 1273.5 c 128,-1,5
 1107 1261 1107 1261 1068 1205 c 0,6,7
 955 1037 955 1037 891.5 927.5 c 128,-1,8
 828 818 828 818 726 643 c 1,9,-1
 726 560 l 1,10,-1
 1119 560 l 1,11,-1
 1119 464 l 1,12,-1
 726 464 l 1,13,-1
 726 207 l 2,14,15
 726 171 726 171 739 144.5 c 128,-1,16
 752 118 752 118 784 102 c 0,17,18
 802 94 802 94 850.5 83 c 128,-1,19
 899 72 899 72 929 71 c 1,20,-1
 929 0 l 1,21,-1
 319 0 l 1,22,-1
 319 71 l 1,23,24
 343 73 343 73 393.5 78 c 128,-1,25
 444 83 444 83 464 92 c 0,26,27
 493 105 493 105 507 130.5 c 128,-1,28
 521 156 521 156 521 197 c 2,29,-1
 521 464 l 1,30,-1
 128 464 l 1,31,-1
 128 560 l 1,32,-1
 521 560 l 1,33,-1
 521 624 l 1,34,35
 434 800 434 800 373 910 c 128,-1,36
 312 1020 312 1020 223 1178 c 0,37,38
 190 1235 190 1235 164.5 1264 c 128,-1,39
 139 1293 139 1293 106 1315 c 0,40,41
 82 1330 82 1330 48.5 1338 c 128,-1,42
 15 1346 15 1346 -12 1348 c 1,43,-1
 -12 1419 l 1,44,-1
 567 1419 l 1,45,-1
 567 1348 l 1,46,47
 470 1344 470 1344 435 1334 c 128,-1,48
 400 1324 400 1324 400 1300 c 0,49,50
 400 1289 400 1289 417 1254 c 128,-1,51
 434 1219 434 1219 476 1141 c 256,52,53
 518 1063 518 1063 563.5 981.5 c 128,-1,54
 609 900 609 900 688 758 c 1,55,56
 802 948 802 948 890.5 1098 c 128,-1,57
 979 1248 979 1248 979 1273 c 0,58,59
 979 1296 979 1296 964 1310 c 128,-1,60
 949 1324 949 1324 923 1332 c 0,61,62
 896 1340 896 1340 870 1342.5 c 128,-1,63
 844 1345 844 1345 810 1348 c 1,64,-1
 810 1419 l 1,65,-1
 1282 1419 l 1,66,-1
 1282 1348 l 1,0,1
EndSplineSet
EndChar

StartChar: brokenbar
Encoding: 166 166 103
Width: 768
GlyphClass: 2
Flags: W
LayerCount: 2
Fore
SplineSet
448 723 m 1,0,-1
 321 723 l 1,1,-1
 321 1523 l 1,2,-1
 448 1523 l 1,3,-1
 448 723 l 1,0,-1
448 -424 m 1,4,-1
 321 -424 l 1,5,-1
 321 386 l 1,6,-1
 448 386 l 1,7,-1
 448 -424 l 1,4,-1
EndSplineSet
EndChar

StartChar: section
Encoding: 167 167 104
Width: 1024
GlyphClass: 2
Flags: W
LayerCount: 2
Fore
SplineSet
903 634 m 0,0,1
 903 534 903 534 836 447.5 c 128,-1,2
 769 361 769 361 653 318 c 1,3,4
 763 271 763 271 812 205 c 128,-1,5
 861 139 861 139 861 51 c 0,6,7
 861 -14 861 -14 833 -71 c 128,-1,8
 805 -128 805 -128 753 -169 c 0,9,10
 697 -212 697 -212 627 -235 c 128,-1,11
 557 -258 557 -258 457 -258 c 0,12,13
 366 -258 366 -258 309.5 -240.5 c 128,-1,14
 253 -223 253 -223 219 -196 c 256,15,16
 185 -169 185 -169 171.5 -140 c 128,-1,17
 158 -111 158 -111 158 -86 c 0,18,19
 158 -42 158 -42 183.5 -13.5 c 128,-1,20
 209 15 209 15 257 15 c 0,21,22
 291 15 291 15 314 -4 c 128,-1,23
 337 -23 337 -23 352 -48 c 0,24,25
 368 -73 368 -73 383 -109 c 128,-1,26
 398 -145 398 -145 410 -171 c 1,27,28
 426 -175 426 -175 444.5 -178 c 128,-1,29
 463 -181 463 -181 493 -181 c 0,30,31
 584 -181 584 -181 646.5 -125.5 c 128,-1,32
 709 -70 709 -70 709 0 c 0,33,34
 709 61 709 61 657.5 118.5 c 128,-1,35
 606 176 606 176 430 243 c 0,36,37
 261 309 261 309 191 394.5 c 128,-1,38
 121 480 121 480 121 596 c 0,39,40
 121 691 121 691 180 769 c 128,-1,41
 239 847 239 847 362 900 c 1,42,43
 255 951 255 951 206.5 1012.5 c 128,-1,44
 158 1074 158 1074 158 1161 c 0,45,46
 158 1223 158 1223 184 1275 c 128,-1,47
 210 1327 210 1327 263 1368 c 0,48,49
 312 1407 312 1407 390 1430.5 c 128,-1,50
 468 1454 468 1454 560 1454 c 0,51,52
 650 1454 650 1454 709 1435.5 c 128,-1,53
 768 1417 768 1417 800 1391 c 256,54,55
 832 1365 832 1365 845 1334.5 c 128,-1,56
 858 1304 858 1304 858 1280 c 0,57,58
 858 1234 858 1234 832 1207.5 c 128,-1,59
 806 1181 806 1181 759 1181 c 0,60,61
 727 1181 727 1181 704 1199 c 128,-1,62
 681 1217 681 1217 664 1244 c 0,63,64
 645 1275 645 1275 633.5 1304 c 128,-1,65
 622 1333 622 1333 606 1367 c 1,66,67
 592 1371 592 1371 568 1374 c 128,-1,68
 544 1377 544 1377 523 1377 c 0,69,70
 431 1377 431 1377 371.5 1325 c 128,-1,71
 312 1273 312 1273 312 1198 c 0,72,73
 312 1157 312 1157 333 1126.5 c 128,-1,74
 354 1096 354 1096 393 1070 c 0,75,76
 432 1043 432 1043 499.5 1013.5 c 128,-1,77
 567 984 567 984 618 963 c 0,78,79
 767 901 767 901 835 819.5 c 128,-1,80
 903 738 903 738 903 634 c 0,0,1
748 587 m 0,81,82
 748 675 748 675 670.5 743 c 128,-1,83
 593 811 593 811 446 862 c 1,84,85
 354 824 354 824 314 766.5 c 128,-1,86
 274 709 274 709 274 636 c 0,87,88
 274 538 274 538 349.5 474 c 128,-1,89
 425 410 425 410 582 347 c 1,90,91
 674 399 674 399 711 457.5 c 128,-1,92
 748 516 748 516 748 587 c 0,81,82
EndSplineSet
EndChar

StartChar: dieresis
Encoding: 168 168 105
Width: 1024
GlyphClass: 2
Flags: W
LayerCount: 2
Fore
SplineSet
845 1364 m 256,0,1
 845 1313 845 1313 810.5 1277 c 128,-1,2
 776 1241 776 1241 727 1241 c 256,3,4
 678 1241 678 1241 643.5 1277 c 128,-1,5
 609 1313 609 1313 609 1364 c 256,6,7
 609 1415 609 1415 643.5 1451 c 128,-1,8
 678 1487 678 1487 727 1487 c 256,9,10
 776 1487 776 1487 810.5 1451 c 128,-1,11
 845 1415 845 1415 845 1364 c 256,0,1
415 1364 m 256,12,13
 415 1313 415 1313 380.5 1277 c 128,-1,14
 346 1241 346 1241 297 1241 c 256,15,16
 248 1241 248 1241 213.5 1277 c 128,-1,17
 179 1313 179 1313 179 1364 c 256,18,19
 179 1415 179 1415 213.5 1451 c 128,-1,20
 248 1487 248 1487 297 1487 c 256,21,22
 346 1487 346 1487 380.5 1451 c 128,-1,23
 415 1415 415 1415 415 1364 c 256,12,13
EndSplineSet
EndChar

StartChar: copyright
Encoding: 169 169 106
Width: 1929
GlyphClass: 2
Flags: W
LayerCount: 2
Fore
SplineSet
1849 602 m 256,0,1
 1849 236 1849 236 1589.5 -22.5 c 128,-1,2
 1330 -281 1330 -281 964 -281 c 256,3,4
 598 -281 598 -281 339 -22.5 c 128,-1,5
 80 236 80 236 80 602 c 256,6,7
 80 968 80 968 339 1226.5 c 128,-1,8
 598 1485 598 1485 964 1485 c 256,9,10
 1330 1485 1330 1485 1589.5 1226.5 c 128,-1,11
 1849 968 1849 968 1849 602 c 256,0,1
1750 602 m 256,12,13
 1750 927 1750 927 1521 1162 c 128,-1,14
 1292 1397 1292 1397 964 1397 c 256,15,16
 636 1397 636 1397 407.5 1162 c 128,-1,17
 179 927 179 927 179 602 c 256,18,19
 179 277 179 277 407.5 42 c 128,-1,20
 636 -193 636 -193 964 -193 c 256,21,22
 1292 -193 1292 -193 1521 42 c 128,-1,23
 1750 277 1750 277 1750 602 c 256,12,13
1375 404 m 1,24,25
 1354 352 1354 352 1319.5 298 c 128,-1,26
 1285 244 1285 244 1239 205 c 0,27,28
 1187 161 1187 161 1128 136 c 128,-1,29
 1069 111 1069 111 982 111 c 0,30,31
 875 111 875 111 784.5 144 c 128,-1,32
 694 177 694 177 628 241 c 0,33,34
 563 304 563 304 527.5 393 c 128,-1,35
 492 482 492 482 492 592 c 0,36,37
 492 697 492 697 530 788 c 128,-1,38
 568 879 568 879 638 948 c 0,39,40
 705 1014 705 1014 802.5 1053 c 128,-1,41
 900 1092 900 1092 1011 1092 c 0,42,43
 1069 1092 1069 1092 1133.5 1072 c 128,-1,44
 1198 1052 1198 1052 1230 1028 c 1,45,-1
 1275 1094 l 1,46,-1
 1334 1094 l 1,47,-1
 1339 731 l 1,48,-1
 1285 731 l 1,49,50
 1265 791 1265 791 1243.5 839.5 c 128,-1,51
 1222 888 1222 888 1184 931 c 0,52,53
 1149 971 1149 971 1098 995 c 128,-1,54
 1047 1019 1047 1019 972 1019 c 0,55,56
 852 1019 852 1019 775.5 907.5 c 128,-1,57
 699 796 699 796 699 602 c 0,58,59
 699 419 699 419 791.5 312.5 c 128,-1,60
 884 206 884 206 1023 206 c 0,61,62
 1124 206 1124 206 1195 259.5 c 128,-1,63
 1266 313 1266 313 1317 429 c 1,64,-1
 1375 404 l 1,24,25
EndSplineSet
EndChar

StartChar: ordfeminine
Encoding: 170 170 107
Width: 1024
GlyphClass: 2
Flags: W
LayerCount: 2
Fore
SplineSet
933 648 m 1,0,1
 894 635 894 635 861.5 626 c 128,-1,2
 829 617 829 617 791 617 c 0,3,4
 726 617 726 617 687.5 648.5 c 128,-1,5
 649 680 649 680 638 737 c 1,6,-1
 633 737 l 1,7,8
 578 679 578 679 513 646 c 128,-1,9
 448 613 448 613 364 613 c 0,10,11
 275 613 275 613 215.5 670 c 128,-1,12
 156 727 156 727 156 813 c 0,13,14
 156 864 156 864 170 903 c 128,-1,15
 184 942 184 942 208 971 c 0,16,17
 232 997 232 997 263 1012.5 c 128,-1,18
 294 1028 294 1028 327 1041 c 0,19,20
 397 1069 397 1069 489.5 1097.5 c 128,-1,21
 582 1126 582 1126 635 1154 c 1,22,-1
 635 1209 l 2,23,24
 635 1219 635 1219 629.5 1250 c 128,-1,25
 624 1281 624 1281 610 1306 c 0,26,27
 594 1336 594 1336 562 1358.5 c 128,-1,28
 530 1381 530 1381 477 1381 c 0,29,30
 444 1381 444 1381 413.5 1368.5 c 128,-1,31
 383 1356 383 1356 368 1341 c 1,32,33
 370 1326 370 1326 376.5 1295.5 c 128,-1,34
 383 1265 383 1265 383 1243 c 0,35,36
 383 1214 383 1214 352 1192.5 c 128,-1,37
 321 1171 321 1171 275 1171 c 0,38,39
 231 1171 231 1171 212.5 1201.5 c 128,-1,40
 194 1232 194 1232 194 1267 c 0,41,42
 194 1343 194 1343 290 1398 c 128,-1,43
 386 1453 386 1453 487 1453 c 0,44,45
 554 1453 554 1453 609.5 1442.5 c 128,-1,46
 665 1432 665 1432 706 1404 c 0,47,48
 749 1374 749 1374 772.5 1324 c 128,-1,49
 796 1274 796 1274 796 1190 c 0,50,51
 796 1074 796 1074 793.5 989.5 c 128,-1,52
 791 905 791 905 791 798 c 0,53,54
 791 768 791 768 802.5 749 c 128,-1,55
 814 730 814 730 838 717 c 0,56,57
 853 709 853 709 879.5 708.5 c 128,-1,58
 906 708 906 708 933 708 c 1,59,-1
 933 648 l 1,0,1
636 1075 m 1,60,61
 559 1052 559 1052 511.5 1035.5 c 128,-1,62
 464 1019 464 1019 417 991 c 0,63,64
 377 967 377 967 354 932 c 128,-1,65
 331 897 331 897 331 850 c 0,66,67
 331 784 331 784 363 753 c 128,-1,68
 395 722 395 722 448 722 c 0,69,70
 516 722 516 722 559 748.5 c 128,-1,71
 602 775 602 775 632 809 c 1,72,-1
 636 1075 l 1,60,61
EndSplineSet
EndChar

StartChar: guillemotleft
Encoding: 171 171 108
Width: 1190
GlyphClass: 2
Flags: W
LayerCount: 2
Fore
SplineSet
997 160 m 1,0,-1
 948 120 l 1,1,-1
 593 452 l 2,2,3
 584 460 584 460 567.5 479 c 128,-1,4
 551 498 551 498 551 528 c 256,5,6
 551 558 551 558 567.5 577 c 128,-1,7
 584 596 584 596 596 608 c 2,8,-1
 948 937 l 1,9,-1
 997 896 l 1,10,-1
 738 529 l 1,11,-1
 997 160 l 1,0,-1
616 160 m 1,12,-1
 567 120 l 1,13,-1
 212 452 l 2,14,15
 203 460 203 460 186.5 479 c 128,-1,16
 170 498 170 498 170 528 c 256,17,18
 170 558 170 558 185.5 576 c 128,-1,19
 201 594 201 594 215 608 c 2,20,-1
 567 937 l 1,21,-1
 616 896 l 1,22,-1
 357 529 l 1,23,-1
 616 160 l 1,12,-1
EndSplineSet
EndChar

StartChar: logicalnot
Encoding: 172 172 109
Width: 1317
GlyphClass: 2
Flags: W
LayerCount: 2
Fore
SplineSet
1163 76 m 1,0,-1
 1031 76 l 1,1,-1
 1031 527 l 1,2,-1
 144 527 l 1,3,-1
 144 652 l 1,4,-1
 1163 652 l 1,5,-1
 1163 76 l 1,0,-1
EndSplineSet
EndChar

StartChar: registered
Encoding: 174 174 110
Width: 1929
GlyphClass: 2
Flags: W
LayerCount: 2
Fore
SplineSet
1849 602 m 256,0,1
 1849 236 1849 236 1589.5 -22.5 c 128,-1,2
 1330 -281 1330 -281 964 -281 c 256,3,4
 598 -281 598 -281 339 -22.5 c 128,-1,5
 80 236 80 236 80 602 c 256,6,7
 80 968 80 968 339 1226.5 c 128,-1,8
 598 1485 598 1485 964 1485 c 256,9,10
 1330 1485 1330 1485 1589.5 1226.5 c 128,-1,11
 1849 968 1849 968 1849 602 c 256,0,1
1750 602 m 256,12,13
 1750 927 1750 927 1521 1162 c 128,-1,14
 1292 1397 1292 1397 964 1397 c 256,15,16
 636 1397 636 1397 407.5 1162 c 128,-1,17
 179 927 179 927 179 602 c 256,18,19
 179 277 179 277 407.5 42 c 128,-1,20
 636 -193 636 -193 964 -193 c 256,21,22
 1292 -193 1292 -193 1521 42 c 128,-1,23
 1750 277 1750 277 1750 602 c 256,12,13
1542 145 m 1,24,-1
 1255 145 l 1,25,26
 1160 279 1160 279 1090 368.5 c 128,-1,27
 1020 458 1020 458 947 549 c 1,28,-1
 842 549 l 1,29,-1
 842 287 l 2,30,31
 842 265 842 265 850.5 246.5 c 128,-1,32
 859 228 859 228 884 219 c 0,33,34
 895 215 895 215 930 209.5 c 128,-1,35
 965 204 965 204 983 203 c 1,36,-1
 983 145 l 1,37,-1
 544 145 l 1,38,-1
 544 203 l 1,39,40
 562 205 562 205 593 209 c 128,-1,41
 624 213 624 213 639 219 c 0,42,43
 661 228 661 228 670.5 245 c 128,-1,44
 680 262 680 262 680 287 c 2,45,-1
 680 929 l 2,46,47
 680 953 680 953 673 970.5 c 128,-1,48
 666 988 666 988 639 997 c 0,49,50
 618 1004 618 1004 591 1009.5 c 128,-1,51
 564 1015 564 1015 544 1017 c 1,52,-1
 544 1075 l 1,53,-1
 1036 1075 l 2,54,55
 1092 1075 1092 1075 1146 1063 c 128,-1,56
 1200 1051 1200 1051 1244 1025 c 0,57,58
 1287 999 1287 999 1314 956.5 c 128,-1,59
 1341 914 1341 914 1341 854 c 0,60,61
 1341 745 1341 745 1281.5 683 c 128,-1,62
 1222 621 1222 621 1106 589 c 1,63,64
 1187 491 1187 491 1242.5 422.5 c 128,-1,65
 1298 354 1298 354 1342 299 c 0,66,67
 1370 264 1370 264 1397 247 c 128,-1,68
 1424 230 1424 230 1449 222 c 0,69,70
 1469 215 1469 215 1497 209.5 c 128,-1,71
 1525 204 1525 204 1542 203 c 1,72,-1
 1542 145 l 1,24,-1
1155 834 m 0,73,74
 1155 917 1155 917 1105 960 c 128,-1,75
 1055 1003 1055 1003 958 1003 c 2,76,-1
 842 1003 l 1,77,-1
 842 625 l 1,78,-1
 929 625 l 2,79,80
 1033 625 1033 625 1094 680 c 128,-1,81
 1155 735 1155 735 1155 834 c 0,73,74
EndSplineSet
EndChar

StartChar: overscore
Encoding: 175 175 111
Width: 1317
GlyphClass: 2
Flags: W
LayerCount: 2
Fore
SplineSet
1322 1603 m 1,0,-1
 -5 1603 l 1,1,-1
 -5 1704 l 1,2,-1
 1322 1704 l 1,3,-1
 1322 1603 l 1,0,-1
EndSplineSet
EndChar

StartChar: degree
Encoding: 176 176 112
Width: 859
GlyphClass: 2
Flags: W
LayerCount: 2
Fore
SplineSet
755 1128 m 256,0,1
 755 991 755 991 663.5 897 c 128,-1,2
 572 803 572 803 429 803 c 0,3,4
 285 803 285 803 194.5 898 c 128,-1,5
 104 993 104 993 104 1128 c 0,6,7
 104 1269 104 1269 197 1361 c 128,-1,8
 290 1453 290 1453 429 1453 c 0,9,10
 572 1453 572 1453 663.5 1359 c 128,-1,11
 755 1265 755 1265 755 1128 c 256,0,1
607 1120 m 0,12,13
 607 1245 607 1245 558 1311.5 c 128,-1,14
 509 1378 509 1378 428 1378 c 0,15,16
 346 1378 346 1378 299 1311 c 128,-1,17
 252 1244 252 1244 252 1131 c 0,18,19
 252 1014 252 1014 299 946 c 128,-1,20
 346 878 346 878 432 878 c 0,21,22
 499 878 499 878 553 939.5 c 128,-1,23
 607 1001 607 1001 607 1120 c 0,12,13
EndSplineSet
EndChar

StartChar: plusminus
Encoding: 177 177 113
Width: 1317
GlyphClass: 2
Flags: W
LayerCount: 2
Fore
SplineSet
1168 0 m 1,0,-1
 149 0 l 1,1,-1
 149 125 l 1,2,-1
 595 125 l 1,3,-1
 595 527 l 1,4,-1
 149 527 l 1,5,-1
 149 652 l 1,6,-1
 595 652 l 1,7,-1
 595 1103 l 1,8,-1
 722 1103 l 1,9,-1
 722 652 l 1,10,-1
 1168 652 l 1,11,-1
 1168 527 l 1,12,-1
 722 527 l 1,13,-1
 722 125 l 1,14,-1
 1168 125 l 1,15,-1
 1168 0 l 1,0,-1
EndSplineSet
EndChar

StartChar: twosuperior
Encoding: 178 178 114
Width: 1024
GlyphClass: 2
Flags: W
LayerCount: 2
Fore
SplineSet
900 490 m 1,0,-1
 147 490 l 1,1,-1
 147 601 l 1,2,3
 186 666 186 666 266 729 c 128,-1,4
 346 792 346 792 459 863 c 0,5,6
 494 885 494 885 536.5 921.5 c 128,-1,7
 579 958 579 958 602 989 c 0,8,9
 632 1029 632 1029 647.5 1072.5 c 128,-1,10
 663 1116 663 1116 663 1182 c 0,11,12
 663 1278 663 1278 614 1328 c 128,-1,13
 565 1378 565 1378 485 1378 c 0,14,15
 428 1378 428 1378 387.5 1358.5 c 128,-1,16
 347 1339 347 1339 329 1313 c 1,17,18
 335 1289 335 1289 342.5 1258.5 c 128,-1,19
 350 1228 350 1228 350 1195 c 0,20,21
 350 1164 350 1164 322.5 1141 c 128,-1,22
 295 1118 295 1118 242 1118 c 0,23,24
 194 1118 194 1118 173.5 1149.5 c 128,-1,25
 153 1181 153 1181 153 1220 c 0,26,27
 153 1311 153 1311 257.5 1382 c 128,-1,28
 362 1453 362 1453 500 1453 c 0,29,30
 657 1453 657 1453 756 1377.5 c 128,-1,31
 855 1302 855 1302 855 1175 c 0,32,33
 855 1100 855 1100 832.5 1044.5 c 128,-1,34
 810 989 810 989 773 950 c 0,35,36
 734 909 734 909 685.5 879 c 128,-1,37
 637 849 637 849 585 824 c 0,38,39
 521 793 521 793 429.5 741 c 128,-1,40
 338 689 338 689 279 634 c 1,41,-1
 900 634 l 1,42,-1
 900 490 l 1,0,-1
EndSplineSet
EndChar

StartChar: threesuperior
Encoding: 179 179 115
Width: 1024
GlyphClass: 2
Flags: W
LayerCount: 2
Fore
SplineSet
795 927 m 0,0,1
 832 900 832 900 856 856.5 c 128,-1,2
 880 813 880 813 880 751 c 0,3,4
 880 625 880 625 765 540 c 128,-1,5
 650 455 650 455 458 455 c 0,6,7
 323 455 323 455 225 513 c 128,-1,8
 127 571 127 571 127 655 c 0,9,10
 127 700 127 700 150.5 727.5 c 128,-1,11
 174 755 174 755 211 755 c 0,12,13
 263 755 263 755 290 732.5 c 128,-1,14
 317 710 317 710 317 683 c 0,15,16
 317 661 317 661 309.5 631 c 128,-1,17
 302 601 302 601 296 581 c 1,18,19
 321 560 321 560 366 544 c 128,-1,20
 411 528 411 528 464 528 c 0,21,22
 565 528 565 528 626.5 585.5 c 128,-1,23
 688 643 688 643 688 755 c 0,24,25
 688 790 688 790 679.5 823.5 c 128,-1,26
 671 857 671 857 649 881 c 256,27,28
 627 905 627 905 586.5 919 c 128,-1,29
 546 933 546 933 484 933 c 2,30,-1
 377 933 l 1,31,-1
 377 1027 l 1,32,-1
 453 1027 l 2,33,34
 556 1027 556 1027 600.5 1076 c 128,-1,35
 645 1125 645 1125 645 1226 c 0,36,37
 645 1298 645 1298 603.5 1339.5 c 128,-1,38
 562 1381 562 1381 483 1381 c 0,39,40
 438 1381 438 1381 401 1366 c 128,-1,41
 364 1351 364 1351 341 1322 c 1,42,43
 346 1305 346 1305 353 1271.5 c 128,-1,44
 360 1238 360 1238 360 1215 c 0,45,46
 360 1189 360 1189 331.5 1166.5 c 128,-1,47
 303 1144 303 1144 253 1144 c 0,48,49
 207 1144 207 1144 186.5 1172.5 c 128,-1,50
 166 1201 166 1201 166 1237 c 0,51,52
 166 1274 166 1274 188 1310 c 128,-1,53
 210 1346 210 1346 257 1380 c 0,54,55
 297 1410 297 1410 368 1431.5 c 128,-1,56
 439 1453 439 1453 516 1453 c 0,57,58
 609 1453 609 1453 673.5 1429 c 128,-1,59
 738 1405 738 1405 776 1367 c 0,60,61
 812 1330 812 1330 824.5 1291.5 c 128,-1,62
 837 1253 837 1253 837 1228 c 0,63,64
 837 1198 837 1198 826.5 1162.5 c 128,-1,65
 816 1127 816 1127 793 1099 c 0,66,67
 769 1070 769 1070 728.5 1043.5 c 128,-1,68
 688 1017 688 1017 623 999 c 1,69,-1
 623 990 l 1,70,71
 664 986 664 986 713 969.5 c 128,-1,72
 762 953 762 953 795 927 c 0,0,1
EndSplineSet
EndChar

StartChar: acute
Encoding: 180 180 116
Width: 1024
GlyphClass: 2
Flags: W
LayerCount: 2
Fore
SplineSet
696 1460 m 0,0,1
 696 1422 696 1422 678.5 1398 c 128,-1,2
 661 1374 661 1374 627 1347 c 0,3,4
 577 1307 577 1307 496.5 1245 c 128,-1,5
 416 1183 416 1183 323 1110 c 1,6,-1
 285 1142 l 1,7,8
 375 1275 375 1275 410.5 1329.5 c 128,-1,9
 446 1384 446 1384 487 1450 c 0,10,11
 518 1501 518 1501 547 1519.5 c 128,-1,12
 576 1538 576 1538 614 1538 c 0,13,14
 650 1538 650 1538 673 1513.5 c 128,-1,15
 696 1489 696 1489 696 1460 c 0,0,1
EndSplineSet
EndChar

StartChar: mu1
Encoding: 181 181 117
Width: 1160
GlyphClass: 2
Flags: W
LayerCount: 2
Fore
SplineSet
1133 19 m 1,0,1
 1086 2 1086 2 1049.5 -8.5 c 128,-1,2
 1013 -19 1013 -19 968 -19 c 0,3,4
 891 -19 891 -19 839.5 20 c 128,-1,5
 788 59 788 59 775 135 c 1,6,-1
 769 135 l 1,7,8
 744 109 744 109 711.5 77 c 128,-1,9
 679 45 679 45 648 27 c 0,10,11
 607 3 607 3 568 -9 c 128,-1,12
 529 -21 529 -21 454 -21 c 0,13,14
 396 -21 396 -21 343 3 c 128,-1,15
 290 27 290 27 264 60 c 1,16,-1
 258 60 l 1,17,-1
 258 2 l 2,18,19
 258 -66 258 -66 284.5 -180 c 128,-1,20
 311 -294 311 -294 311 -342 c 0,21,22
 311 -391 311 -391 280 -417.5 c 128,-1,23
 249 -444 249 -444 212 -444 c 0,24,25
 172 -444 172 -444 146.5 -417 c 128,-1,26
 121 -390 121 -390 121 -344 c 0,27,28
 121 -285 121 -285 139 -190 c 128,-1,29
 157 -95 157 -95 163 -44 c 0,30,31
 170 11 170 11 172.5 54.5 c 128,-1,32
 175 98 175 98 175 136 c 2,33,-1
 175 986 l 1,34,-1
 364 986 l 1,35,-1
 364 309 l 2,36,37
 364 205 364 205 410.5 148.5 c 128,-1,38
 457 92 457 92 528 92 c 0,39,40
 583 92 583 92 626.5 108 c 128,-1,41
 670 124 670 124 697 145 c 0,42,43
 722 165 722 165 742 188 c 128,-1,44
 762 211 762 211 773 231 c 1,45,-1
 773 986 l 1,46,-1
 962 986 l 1,47,-1
 962 202 l 2,48,49
 962 159 962 159 975 134 c 128,-1,50
 988 109 988 109 1018 94 c 0,51,52
 1035 85 1035 85 1067 84 c 128,-1,53
 1099 83 1099 83 1133 83 c 1,54,-1
 1133 19 l 1,0,1
EndSplineSet
EndChar

StartChar: paragraph
Encoding: 182 182 118
Width: 1024
GlyphClass: 2
Flags: W
LayerCount: 2
Fore
SplineSet
1000 1345 m 1,0,-1
 889 1345 l 1,1,-1
 889 -216 l 1,2,-1
 786 -216 l 1,3,-1
 786 1345 l 1,4,-1
 626 1345 l 1,5,-1
 626 -216 l 1,6,-1
 523 -216 l 1,7,-1
 523 706 l 1,8,9
 330 706 330 706 214.5 798.5 c 128,-1,10
 99 891 99 891 99 1059 c 0,11,12
 99 1221 99 1221 206 1320 c 128,-1,13
 313 1419 313 1419 483 1419 c 2,14,-1
 1000 1419 l 1,15,-1
 1000 1345 l 1,0,-1
EndSplineSet
EndChar

StartChar: cedilla
Encoding: 184 184 120
Width: 1024
GlyphClass: 2
Flags: W
LayerCount: 2
Fore
SplineSet
630 -129 m 0,0,1
 664 -145 664 -145 685 -174.5 c 128,-1,2
 706 -204 706 -204 706 -248 c 0,3,4
 706 -306 706 -306 674 -346 c 128,-1,5
 642 -386 642 -386 585 -408 c 0,6,7
 530 -428 530 -428 463 -436 c 128,-1,8
 396 -444 396 -444 307 -444 c 1,9,-1
 307 -372 l 1,10,11
 348 -372 348 -372 396 -371 c 128,-1,12
 444 -370 444 -370 478 -362 c 0,13,14
 518 -353 518 -353 540 -334.5 c 128,-1,15
 562 -316 562 -316 562 -282 c 0,16,17
 562 -233 562 -233 507 -220 c 128,-1,18
 452 -207 452 -207 397 -207 c 1,19,-1
 397 17 l 1,20,-1
 476 17 l 1,21,-1
 476 -99 l 1,22,23
 521 -99 521 -99 557 -104.5 c 128,-1,24
 593 -110 593 -110 630 -129 c 0,0,1
EndSplineSet
EndChar

StartChar: onesuperior
Encoding: 185 185 121
Width: 1024
GlyphClass: 2
Flags: W
LayerCount: 2
Fore
SplineSet
789 490 m 1,0,-1
 224 490 l 1,1,-1
 224 561 l 1,2,3
 254 562 254 562 308 565.5 c 128,-1,4
 362 569 362 569 382 576 c 256,5,6
 402 583 402 583 414.5 599 c 128,-1,7
 427 615 427 615 427 641 c 2,8,-1
 427 1272 l 1,9,-1
 220 1272 l 1,10,-1
 220 1350 l 1,11,-1
 282 1350 l 2,12,13
 360 1350 360 1350 428 1378.5 c 128,-1,14
 496 1407 496 1407 530 1445 c 1,15,-1
 603 1445 l 1,16,17
 601 1400 601 1400 598.5 1325.5 c 128,-1,18
 596 1251 596 1251 596 1208 c 2,19,-1
 596 649 l 2,20,21
 596 626 596 626 607.5 608 c 128,-1,22
 619 590 619 590 639 581 c 0,23,24
 658 573 658 573 707.5 567 c 128,-1,25
 757 561 757 561 789 561 c 1,26,-1
 789 490 l 1,0,-1
EndSplineSet
EndChar

StartChar: ordmasculine
Encoding: 186 186 122
Width: 1024
GlyphClass: 2
Flags: W
LayerCount: 2
Fore
SplineSet
908 1038 m 0,0,1
 908 853 908 853 799 729.5 c 128,-1,2
 690 606 690 606 504 606 c 0,3,4
 343 606 343 606 229.5 724 c 128,-1,5
 116 842 116 842 116 1027 c 0,6,7
 116 1214 116 1214 227 1333.5 c 128,-1,8
 338 1453 338 1453 517 1453 c 0,9,10
 691 1453 691 1453 799.5 1337 c 128,-1,11
 908 1221 908 1221 908 1038 c 0,0,1
673 785 m 0,12,13
 697 832 697 832 710 896.5 c 128,-1,14
 723 961 723 961 723 1036 c 0,15,16
 723 1099 723 1099 712.5 1161 c 128,-1,17
 702 1223 702 1223 678 1271 c 0,18,19
 653 1320 653 1320 613 1349.5 c 128,-1,20
 573 1379 573 1379 515 1379 c 0,21,22
 454 1379 454 1379 412 1348.5 c 128,-1,23
 370 1318 370 1318 345 1267 c 0,24,25
 320 1219 320 1219 310 1156.5 c 128,-1,26
 300 1094 300 1094 300 1040 c 0,27,28
 300 965 300 965 312 901 c 128,-1,29
 324 837 324 837 350 788 c 256,30,31
 376 739 376 739 416.5 709.5 c 128,-1,32
 457 680 457 680 514 680 c 0,33,34
 568 680 568 680 608 708 c 128,-1,35
 648 736 648 736 673 785 c 0,12,13
EndSplineSet
EndChar

StartChar: guillemotright
Encoding: 187 187 123
Width: 1190
GlyphClass: 2
Flags: W
LayerCount: 2
Fore
SplineSet
1020 528 m 0,0,1
 1020 496 1020 496 1003 477.5 c 128,-1,2
 986 459 986 459 978 452 c 2,3,-1
 623 120 l 1,4,-1
 574 160 l 1,5,-1
 833 529 l 1,6,-1
 574 896 l 1,7,-1
 623 937 l 1,8,-1
 975 608 l 2,9,10
 986 598 986 598 1003 575.5 c 128,-1,11
 1020 553 1020 553 1020 528 c 0,0,1
639 528 m 0,12,13
 639 496 639 496 622 477.5 c 128,-1,14
 605 459 605 459 597 452 c 2,15,-1
 242 120 l 1,16,-1
 193 160 l 1,17,-1
 452 529 l 1,18,-1
 193 896 l 1,19,-1
 242 937 l 1,20,-1
 594 608 l 2,21,22
 604 599 604 599 621.5 577.5 c 128,-1,23
 639 556 639 556 639 528 c 0,12,13
EndSplineSet
EndChar

StartChar: questiondown
Encoding: 191 191 127
Width: 980
GlyphClass: 2
Flags: W
LayerCount: 2
Fore
SplineSet
723 1311 m 256,0,1
 723 1255 723 1255 682.5 1214.5 c 128,-1,2
 642 1174 642 1174 586 1174 c 256,3,4
 530 1174 530 1174 489.5 1214.5 c 128,-1,5
 449 1255 449 1255 449 1311 c 256,6,7
 449 1367 449 1367 489.5 1406.5 c 128,-1,8
 530 1446 530 1446 586 1446 c 256,9,10
 642 1446 642 1446 682.5 1406.5 c 128,-1,11
 723 1367 723 1367 723 1311 c 256,0,1
874 205 m 0,12,13
 874 165 874 165 852 126.5 c 128,-1,14
 830 88 830 88 783 52 c 0,15,16
 742 21 742 21 674 -2.5 c 128,-1,17
 606 -26 606 -26 532 -26 c 0,18,19
 426 -26 426 -26 344.5 7 c 128,-1,20
 263 40 263 40 209 97 c 0,21,22
 154 155 154 155 127.5 227.5 c 128,-1,23
 101 300 101 300 101 385 c 0,24,25
 101 570 101 570 219 687 c 128,-1,26
 337 804 337 804 543 828 c 1,27,-1
 543 1049 l 1,28,-1
 635 1049 l 1,29,-1
 635 670 l 1,30,31
 572 665 572 665 510 649.5 c 128,-1,32
 448 634 448 634 399 599 c 0,33,34
 348 562 348 562 319.5 509.5 c 128,-1,35
 291 457 291 457 291 363 c 0,36,37
 291 213 291 213 354.5 133 c 128,-1,38
 418 53 418 53 540 53 c 0,39,40
 586 53 586 53 620.5 66.5 c 128,-1,41
 655 80 655 80 671 92 c 1,42,43
 666 116 666 116 657.5 161 c 128,-1,44
 649 206 649 206 649 230 c 0,45,46
 649 267 649 267 681 297.5 c 128,-1,47
 713 328 713 328 774 328 c 0,48,49
 828 328 828 328 851 291 c 128,-1,50
 874 254 874 254 874 205 c 0,12,13
EndSplineSet
EndChar

StartChar: Aring
Encoding: 197 197 133
Width: 1374
GlyphClass: 2
Flags: W
LayerCount: 2
Fore
SplineSet
1421 0 m 1,0,-1
 830 0 l 1,1,-1
 830 71 l 1,2,3
 908 76 908 76 959.5 91 c 128,-1,4
 1011 106 1011 106 1011 128 c 0,5,6
 1011 137 1011 137 1009 150 c 128,-1,7
 1007 163 1007 163 1003 173 c 2,8,-1
 885 491 l 1,9,-1
 388 491 l 1,10,11
 360 421 360 421 342.5 369 c 128,-1,12
 325 317 325 317 311 273 c 0,13,14
 298 231 298 231 293 203.5 c 128,-1,15
 288 176 288 176 288 159 c 0,16,17
 288 119 288 119 351 97 c 128,-1,18
 414 75 414 75 493 71 c 1,19,-1
 493 0 l 1,20,-1
 -41 0 l 1,21,-1
 -41 71 l 1,22,23
 -15 73 -15 73 24.5 82.5 c 128,-1,24
 64 92 64 92 88 108 c 0,25,26
 128 135 128 135 150 164.5 c 128,-1,27
 172 194 172 194 193 246 c 0,28,29
 295 501 295 501 419.5 823 c 128,-1,30
 544 1145 544 1145 654 1425 c 1,31,32
 553 1437 553 1437 496 1496.5 c 128,-1,33
 439 1556 439 1556 439 1646 c 0,34,35
 439 1744 439 1744 514 1806 c 128,-1,36
 589 1868 589 1868 697 1868 c 0,37,38
 809 1868 809 1868 882 1807.5 c 128,-1,39
 955 1747 955 1747 955 1646 c 0,40,41
 955 1560 955 1560 897 1499 c 128,-1,42
 839 1438 839 1438 744 1426 c 1,43,-1
 1212 215 l 2,44,45
 1227 176 1227 176 1246 152 c 128,-1,46
 1265 128 1265 128 1299 105 c 0,47,48
 1321 90 1321 90 1358.5 81 c 128,-1,49
 1396 72 1396 72 1421 71 c 1,50,-1
 1421 0 l 1,0,-1
849 580 m 1,51,-1
 634 1130 l 1,52,-1
 423 580 l 1,53,-1
 849 580 l 1,51,-1
829 1646 m 0,54,55
 829 1714 829 1714 795.5 1759 c 128,-1,56
 762 1804 762 1804 697 1804 c 0,57,58
 634 1804 634 1804 599.5 1761 c 128,-1,59
 565 1718 565 1718 565 1646 c 0,60,61
 565 1577 565 1577 599 1531 c 128,-1,62
 633 1485 633 1485 697 1485 c 256,63,64
 761 1485 761 1485 795 1530.5 c 128,-1,65
 829 1576 829 1576 829 1646 c 0,54,55
EndSplineSet
EndChar

StartChar: AE
Encoding: 198 198 134
Width: 1988
GlyphClass: 2
Flags: W
LayerCount: 2
Fore
SplineSet
1941 418 m 1,0,-1
 1914 0 l 1,1,-1
 746 0 l 1,2,-1
 746 71 l 1,3,4
 770 73 770 73 820.5 78.5 c 128,-1,5
 871 84 871 84 891 93 c 0,6,7
 923 108 923 108 935.5 132 c 128,-1,8
 948 156 948 156 948 193 c 2,9,-1
 948 602 l 1,10,-1
 468 602 l 1,11,12
 425 531 425 531 387.5 462.5 c 128,-1,13
 350 394 350 394 289 270 c 0,14,15
 276 245 276 245 267 219 c 128,-1,16
 258 193 258 193 258 170 c 0,17,18
 258 125 258 125 300.5 100.5 c 128,-1,19
 343 76 343 76 426 71 c 1,20,-1
 426 0 l 1,21,-1
 -97 0 l 1,22,-1
 -97 71 l 1,23,24
 -69 73 -69 73 -30.5 84 c 128,-1,25
 8 95 8 95 33 109 c 0,26,27
 68 129 68 129 98.5 164.5 c 128,-1,28
 129 200 129 200 154 244 c 0,29,30
 308 509 308 509 457 773 c 128,-1,31
 606 1037 606 1037 766 1326 c 1,32,33
 741 1335 741 1335 689 1340.5 c 128,-1,34
 637 1346 637 1346 596 1348 c 1,35,-1
 596 1419 l 1,36,-1
 1834 1419 l 1,37,-1
 1834 1077 l 1,38,-1
 1759 1077 l 1,39,40
 1740 1153 1740 1153 1673 1238.5 c 128,-1,41
 1606 1324 1606 1324 1546 1332 c 0,42,43
 1515 1336 1515 1336 1472 1338 c 128,-1,44
 1429 1340 1429 1340 1374 1340 c 2,45,-1
 1161 1340 l 1,46,-1
 1161 776 l 1,47,-1
 1311 776 l 2,48,49
 1387 776 1387 776 1423.5 790.5 c 128,-1,50
 1460 805 1460 805 1486 839 c 0,51,52
 1508 868 1508 868 1523.5 916.5 c 128,-1,53
 1539 965 1539 965 1544 1008 c 1,54,-1
 1619 1008 l 1,55,-1
 1619 453 l 1,56,-1
 1544 453 l 1,57,58
 1540 501 1540 501 1522.5 554.5 c 128,-1,59
 1505 608 1505 608 1486 632 c 0,60,61
 1455 671 1455 671 1416 683 c 128,-1,62
 1377 695 1377 695 1311 695 c 2,63,-1
 1161 695 l 1,64,-1
 1161 269 l 2,65,66
 1161 205 1161 205 1170 168 c 128,-1,67
 1179 131 1179 131 1205 112 c 0,68,69
 1232 93 1232 93 1276.5 87.5 c 128,-1,70
 1321 82 1321 82 1404 82 c 0,71,72
 1437 82 1437 82 1489.5 82 c 128,-1,73
 1542 82 1542 82 1577 86 c 0,74,75
 1618 91 1618 91 1654.5 100.5 c 128,-1,76
 1691 110 1691 110 1708 129 c 0,77,78
 1754 177 1754 177 1804.5 274.5 c 128,-1,79
 1855 372 1855 372 1869 418 c 1,80,-1
 1941 418 l 1,0,-1
948 690 m 1,81,-1
 948 1331 l 1,82,-1
 871 1331 l 1,83,-1
 517 690 l 1,84,-1
 948 690 l 1,81,-1
EndSplineSet
EndChar

StartChar: Ccedilla
Encoding: 199 199 135
Width: 1315
GlyphClass: 2
Flags: W
LayerCount: 2
Fore
SplineSet
669 -30 m 1,0,1
 558 -21 558 -21 455.5 28 c 128,-1,2
 353 77 353 77 273 161 c 0,3,4
 184 255 184 255 131 390.5 c 128,-1,5
 78 526 78 526 78 696 c 256,6,7
 78 866 78 866 130 1004.5 c 128,-1,8
 182 1143 182 1143 274 1243 c 0,9,10
 365 1342 365 1342 489 1396 c 128,-1,11
 613 1450 613 1450 754 1450 c 0,12,13
 859 1450 859 1450 944 1424 c 128,-1,14
 1029 1398 1029 1398 1106 1351 c 1,15,-1
 1147 1419 l 1,16,-1
 1227 1419 l 1,17,-1
 1236 913 l 1,18,-1
 1154 913 l 1,19,20
 1138 987 1138 987 1106 1073.5 c 128,-1,21
 1074 1160 1074 1160 1031 1220 c 0,22,23
 983 1288 983 1288 917 1326.5 c 128,-1,24
 851 1365 851 1365 766 1365 c 0,25,26
 669 1365 669 1365 585.5 1322 c 128,-1,27
 502 1279 502 1279 441 1195 c 0,28,29
 383 1114 383 1114 350 989 c 128,-1,30
 317 864 317 864 317 710 c 0,31,32
 317 574 317 574 351.5 460.5 c 128,-1,33
 386 347 386 347 450 261 c 0,34,35
 514 176 514 176 601.5 128 c 128,-1,36
 689 80 689 80 797 80 c 0,37,38
 878 80 878 80 946 105.5 c 128,-1,39
 1014 131 1014 131 1064 173 c 0,40,41
 1114 217 1114 217 1152 273 c 128,-1,42
 1190 329 1190 329 1214 395 c 1,43,-1
 1289 359 l 1,44,45
 1207 155 1207 155 1070.5 64.5 c 128,-1,46
 934 -26 934 -26 748 -32 c 1,47,-1
 748 -99 l 1,48,49
 793 -99 793 -99 829 -104.5 c 128,-1,50
 865 -110 865 -110 902 -129 c 0,51,52
 936 -145 936 -145 957 -174.5 c 128,-1,53
 978 -204 978 -204 978 -248 c 0,54,55
 978 -306 978 -306 946 -346 c 128,-1,56
 914 -386 914 -386 857 -408 c 0,57,58
 802 -428 802 -428 735 -436 c 128,-1,59
 668 -444 668 -444 579 -444 c 1,60,-1
 579 -372 l 1,61,62
 620 -372 620 -372 668 -371 c 128,-1,63
 716 -370 716 -370 750 -362 c 0,64,65
 790 -353 790 -353 812 -334.5 c 128,-1,66
 834 -316 834 -316 834 -282 c 0,67,68
 834 -258 834 -258 819 -242.5 c 128,-1,69
 804 -227 804 -227 779 -219 c 0,70,71
 759 -212 759 -212 725.5 -209.5 c 128,-1,72
 692 -207 692 -207 669 -207 c 1,73,-1
 669 -30 l 1,0,1
EndSplineSet
EndChar

StartChar: Eth
Encoding: 208 208 144
Width: 1534
GlyphClass: 2
Flags: W
LayerCount: 2
Fore
SplineSet
1457 701 m 0,0,1
 1457 520 1457 520 1389 387 c 128,-1,2
 1321 254 1321 254 1212 169 c 0,3,4
 1102 84 1102 84 965 42 c 128,-1,5
 828 0 828 0 682 0 c 2,6,-1
 94 0 l 1,7,-1
 94 71 l 1,8,9
 123 71 123 71 169.5 76.5 c 128,-1,10
 216 82 216 82 231 89 c 0,11,12
 261 102 261 102 274.5 127.5 c 128,-1,13
 288 153 288 153 288 189 c 2,14,-1
 288 701 l 1,15,-1
 102 701 l 1,16,-1
 102 799 l 1,17,-1
 288 799 l 1,18,-1
 288 1213 l 2,19,20
 288 1247 288 1247 276.5 1274 c 128,-1,21
 265 1301 265 1301 231 1317 c 0,22,23
 200 1332 200 1332 164 1339 c 128,-1,24
 128 1346 128 1346 102 1348 c 1,25,-1
 102 1419 l 1,26,-1
 722 1419 l 2,27,28
 850 1419 850 1419 974 1379.5 c 128,-1,29
 1098 1340 1098 1340 1190 1273 c 0,30,31
 1315 1184 1315 1184 1386 1040 c 128,-1,32
 1457 896 1457 896 1457 701 c 0,0,1
1212 702 m 0,33,34
 1212 845 1212 845 1174 960.5 c 128,-1,35
 1136 1076 1136 1076 1063 1162 c 0,36,37
 994 1244 994 1244 893.5 1291 c 128,-1,38
 793 1338 793 1338 670 1338 c 0,39,40
 629 1338 629 1338 577.5 1336.5 c 128,-1,41
 526 1335 526 1335 501 1334 c 1,42,-1
 501 799 l 1,43,-1
 802 799 l 1,44,-1
 802 701 l 1,45,-1
 501 701 l 1,46,-1
 501 243 l 2,47,48
 501 152 501 152 554 117 c 128,-1,49
 607 82 607 82 717 82 c 0,50,51
 844 82 844 82 939 127 c 128,-1,52
 1034 172 1034 172 1093 252 c 0,53,54
 1155 336 1155 336 1183.5 446.5 c 128,-1,55
 1212 557 1212 557 1212 702 c 0,33,34
EndSplineSet
EndChar

StartChar: multiply
Encoding: 215 215 151
Width: 1317
GlyphClass: 2
Flags: W
LayerCount: 2
Fore
SplineSet
1108 199 m 1,0,-1
 1019 110 l 1,1,-1
 658 473 l 1,2,-1
 296 109 l 1,3,-1
 208 198 l 1,4,-1
 572 560 l 1,5,-1
 208 921 l 1,6,-1
 297 1009 l 1,7,-1
 658 647 l 1,8,-1
 1020 1010 l 1,9,-1
 1108 922 l 1,10,-1
 744 560 l 1,11,-1
 1108 199 l 1,0,-1
EndSplineSet
EndChar

StartChar: Oslash
Encoding: 216 216 152
Width: 1524
GlyphClass: 2
Flags: W
LayerCount: 2
Fore
SplineSet
1444 708 m 0,0,1
 1444 537 1444 537 1388.5 398.5 c 128,-1,2
 1333 260 1333 260 1240 165 c 0,3,4
 1147 69 1147 69 1024 17 c 128,-1,5
 901 -35 901 -35 762 -35 c 0,6,7
 634 -35 634 -35 524 8 c 128,-1,8
 414 51 414 51 329 125 c 1,9,-1
 155 -85 l 1,10,-1
 91 -35 l 1,11,-1
 272 180 l 1,12,13
 182 279 182 279 131 415.5 c 128,-1,14
 80 552 80 552 80 708 c 0,15,16
 80 881 80 881 134 1016.5 c 128,-1,17
 188 1152 188 1152 283 1251 c 0,18,19
 377 1350 377 1350 502 1402 c 128,-1,20
 627 1454 627 1454 762 1454 c 0,21,22
 884 1454 884 1454 994.5 1412.5 c 128,-1,23
 1105 1371 1105 1371 1195 1293 c 1,24,-1
 1346 1476 l 1,25,-1
 1411 1424 l 1,26,-1
 1253 1236 l 1,27,28
 1341 1138 1341 1138 1392.5 1005.5 c 128,-1,29
 1444 873 1444 873 1444 708 c 0,0,1
1098 1176 m 1,30,31
 1040 1269 1040 1269 956 1317 c 128,-1,32
 872 1365 872 1365 762 1365 c 0,33,34
 643 1365 643 1365 559 1311.5 c 128,-1,35
 475 1258 475 1258 419 1162 c 0,36,37
 369 1076 369 1076 344 956.5 c 128,-1,38
 319 837 319 837 319 708 c 0,39,40
 319 592 319 592 335.5 492 c 128,-1,41
 352 392 352 392 385 315 c 1,42,-1
 1098 1176 l 1,30,31
1098 244 m 0,43,44
 1153 336 1153 336 1179 451 c 128,-1,45
 1205 566 1205 566 1205 708 c 0,46,47
 1205 822 1205 822 1189 922.5 c 128,-1,48
 1173 1023 1173 1023 1140 1102 c 1,49,-1
 426 243 l 1,50,51
 480 155 480 155 564.5 104.5 c 128,-1,52
 649 54 649 54 762 54 c 0,53,54
 871 54 871 54 956 102.5 c 128,-1,55
 1041 151 1041 151 1098 244 c 0,43,44
EndSplineSet
EndChar

StartChar: Thorn
Encoding: 222 222 158
Width: 1258
GlyphClass: 2
Flags: W
LayerCount: 2
Fore
SplineSet
1189 757 m 0,0,1
 1189 643 1189 643 1145 560 c 128,-1,2
 1101 477 1101 477 1029 425 c 0,3,4
 957 374 957 374 865.5 348.5 c 128,-1,5
 774 323 774 323 670 323 c 2,6,-1
 501 323 l 1,7,-1
 501 193 l 2,8,9
 501 158 501 158 512 131.5 c 128,-1,10
 523 105 523 105 559 91 c 0,11,12
 577 84 577 84 621.5 78 c 128,-1,13
 666 72 666 72 704 71 c 1,14,-1
 704 0 l 1,15,-1
 98 0 l 1,16,-1
 98 71 l 1,17,18
 122 73 122 73 167.5 78 c 128,-1,19
 213 83 213 83 231 91 c 0,20,21
 261 104 261 104 274.5 129 c 128,-1,22
 288 154 288 154 288 193 c 2,23,-1
 288 1215 l 2,24,25
 288 1248 288 1248 277 1273 c 128,-1,26
 266 1298 266 1298 231 1313 c 0,27,28
 202 1326 202 1326 163.5 1336 c 128,-1,29
 125 1346 125 1346 96 1348 c 1,30,-1
 96 1419 l 1,31,-1
 693 1419 l 1,32,-1
 693 1348 l 1,33,34
 664 1347 664 1347 621.5 1339 c 128,-1,35
 579 1331 579 1331 559 1324 c 0,36,37
 525 1312 525 1312 513 1285.5 c 128,-1,38
 501 1259 501 1259 501 1225 c 2,39,-1
 501 1132 l 1,40,-1
 753 1132 l 2,41,42
 942 1132 942 1132 1065.5 1029 c 128,-1,43
 1189 926 1189 926 1189 757 c 0,0,1
886 529 m 256,44,45
 920 579 920 579 930.5 631 c 128,-1,46
 941 683 941 683 941 725 c 0,47,48
 941 783 941 783 927 843 c 128,-1,49
 913 903 913 903 879 948 c 0,50,51
 842 996 842 996 784.5 1022.5 c 128,-1,52
 727 1049 727 1049 642 1049 c 2,53,-1
 501 1049 l 1,54,-1
 501 411 l 1,55,-1
 610 411 l 2,56,57
 718 411 718 411 785 445 c 128,-1,58
 852 479 852 479 886 529 c 256,44,45
EndSplineSet
EndChar

StartChar: germandbls
Encoding: 223 223 159
Width: 1123
GlyphClass: 2
Flags: W
LayerCount: 2
Fore
SplineSet
928 806 m 0,0,1
 978 754 978 754 1011 677.5 c 128,-1,2
 1044 601 1044 601 1044 498 c 0,3,4
 1044 273 1044 273 919 131 c 128,-1,5
 794 -11 794 -11 610 -11 c 0,6,7
 578 -11 578 -11 545 -8 c 128,-1,8
 512 -5 512 -5 489 0 c 1,9,-1
 489 81 l 1,10,11
 512 76 512 76 535 73.5 c 128,-1,12
 558 71 558 71 578 71 c 0,13,14
 647 71 647 71 698 105 c 128,-1,15
 749 139 749 139 777 196 c 0,16,17
 807 255 807 255 821 330.5 c 128,-1,18
 835 406 835 406 835 504 c 0,19,20
 835 677 835 677 760.5 784 c 128,-1,21
 686 891 686 891 549 891 c 2,22,-1
 529 891 l 1,23,-1
 529 976 l 1,24,-1
 565 976 l 2,25,26
 604 976 604 976 645.5 991 c 128,-1,27
 687 1006 687 1006 720 1037 c 0,28,29
 755 1071 755 1071 775.5 1121 c 128,-1,30
 796 1171 796 1171 796 1240 c 0,31,32
 796 1353 796 1353 746 1413.5 c 128,-1,33
 696 1474 696 1474 613 1474 c 0,34,35
 496 1474 496 1474 440.5 1366.5 c 128,-1,36
 385 1259 385 1259 385 1060 c 2,37,-1
 385 0 l 1,38,-1
 59 0 l 1,39,-1
 59 66 l 1,40,41
 80 68 80 68 106 70.5 c 128,-1,42
 132 73 132 73 149 79 c 0,43,44
 174 88 174 88 186 111.5 c 128,-1,45
 198 135 198 135 198 173 c 2,46,-1
 198 1006 l 2,47,48
 198 1143 198 1143 219 1238.5 c 128,-1,49
 240 1334 240 1334 322 1422 c 0,50,51
 389 1494 389 1494 468 1522 c 128,-1,52
 547 1550 547 1550 623 1550 c 0,53,54
 694 1550 694 1550 752.5 1533.5 c 128,-1,55
 811 1517 811 1517 863 1478 c 0,56,57
 912 1441 912 1441 941 1385 c 128,-1,58
 970 1329 970 1329 970 1246 c 0,59,60
 970 1171 970 1171 942.5 1114.5 c 128,-1,61
 915 1058 915 1058 875 1022 c 256,62,63
 835 986 835 986 788.5 965 c 128,-1,64
 742 944 742 944 703 940 c 1,65,-1
 703 931 l 1,66,67
 756 920 756 920 816.5 889 c 128,-1,68
 877 858 877 858 928 806 c 0,0,1
EndSplineSet
EndChar

StartChar: ae
Encoding: 230 230 166
Width: 1509
GlyphClass: 2
Flags: W
LayerCount: 2
Fore
SplineSet
1468 233 m 1,0,1
 1410 110 1410 110 1308.5 42 c 128,-1,2
 1207 -26 1207 -26 1084 -26 c 0,3,4
 957 -26 957 -26 869 19.5 c 128,-1,5
 781 65 781 65 712 162 c 1,6,-1
 706 162 l 1,7,8
 629 62 629 62 542.5 18 c 128,-1,9
 456 -26 456 -26 339 -26 c 0,10,11
 226 -26 226 -26 153.5 40.5 c 128,-1,12
 81 107 81 107 81 220 c 0,13,14
 81 281 81 281 98 327.5 c 128,-1,15
 115 374 115 374 144 409 c 0,16,17
 172 442 172 442 208.5 464 c 128,-1,18
 245 486 245 486 283 502 c 0,19,20
 421 557 421 557 497 579 c 128,-1,21
 573 601 573 601 642 622 c 1,22,-1
 642 729 l 2,23,24
 642 743 642 743 636.5 778 c 128,-1,25
 631 813 631 813 613 850 c 0,26,27
 595 886 595 886 560.5 913.5 c 128,-1,28
 526 941 526 941 468 941 c 0,29,30
 418 941 418 941 378.5 925.5 c 128,-1,31
 339 910 339 910 323 893 c 1,32,33
 323 873 323 873 332.5 834 c 128,-1,34
 342 795 342 795 342 762 c 0,35,36
 342 727 342 727 310.5 698 c 128,-1,37
 279 669 279 669 223 669 c 0,38,39
 173 669 173 669 149.5 704.5 c 128,-1,40
 126 740 126 740 126 784 c 0,41,42
 126 832 126 832 158 872.5 c 128,-1,43
 190 913 190 913 241 946 c 0,44,45
 287 976 287 976 352.5 995 c 128,-1,46
 418 1014 418 1014 472 1014 c 0,47,48
 572 1014 572 1014 653 989 c 128,-1,49
 734 964 734 964 783 893 c 1,50,51
 834 946 834 946 908.5 980 c 128,-1,52
 983 1014 983 1014 1063 1014 c 0,53,54
 1167 1014 1167 1014 1239 980.5 c 128,-1,55
 1311 947 1311 947 1355 892 c 0,56,57
 1401 836 1401 836 1422 763.5 c 128,-1,58
 1443 691 1443 691 1443 607 c 2,59,-1
 1443 549 l 1,60,-1
 825 549 l 1,61,62
 825 321 825 321 899.5 202.5 c 128,-1,63
 974 84 974 84 1131 84 c 0,64,65
 1235 84 1235 84 1295 135.5 c 128,-1,66
 1355 187 1355 187 1398 276 c 1,67,-1
 1468 233 l 1,0,1
1246 631 m 1,68,69
 1246 671 1246 671 1238 733 c 128,-1,70
 1230 795 1230 795 1213 833 c 0,71,72
 1192 879 1192 879 1153.5 909 c 128,-1,73
 1115 939 1115 939 1051 939 c 0,74,75
 951 939 951 939 888.5 848.5 c 128,-1,76
 826 758 826 758 825 631 c 1,77,-1
 1246 631 l 1,68,69
644 194 m 1,78,-1
 644 537 l 1,79,80
 564 521 564 521 503 500 c 128,-1,81
 442 479 442 479 388 442 c 0,82,83
 337 407 337 407 309 359 c 128,-1,84
 281 311 281 311 281 248 c 0,85,86
 281 165 281 165 320.5 125.5 c 128,-1,87
 360 86 360 86 425 86 c 0,88,89
 501 86 501 86 555 118.5 c 128,-1,90
 609 151 609 151 644 194 c 1,78,-1
EndSplineSet
EndChar

StartChar: ccedilla
Encoding: 231 231 167
Width: 930
GlyphClass: 2
Flags: W
LayerCount: 2
Fore
SplineSet
459 -22 m 1,0,1
 277 1 277 1 174.5 140 c 128,-1,2
 72 279 72 279 72 497 c 0,3,4
 72 601 72 601 104.5 691.5 c 128,-1,5
 137 782 137 782 199 856 c 0,6,7
 258 927 258 927 347 970.5 c 128,-1,8
 436 1014 436 1014 541 1014 c 0,9,10
 686 1014 686 1014 777 944.5 c 128,-1,11
 868 875 868 875 868 755 c 0,12,13
 868 705 868 705 844 666.5 c 128,-1,14
 820 628 820 628 765 628 c 0,15,16
 706 628 706 628 673.5 658 c 128,-1,17
 641 688 641 688 641 725 c 0,18,19
 641 770 641 770 653 817.5 c 128,-1,20
 665 865 665 865 667 887 c 1,21,22
 649 918 649 918 613.5 928.5 c 128,-1,23
 578 939 578 939 537 939 c 0,24,25
 489 939 489 939 445.5 918.5 c 128,-1,26
 402 898 402 898 361 843 c 0,27,28
 324 793 324 793 301 708 c 128,-1,29
 278 623 278 623 278 505 c 0,30,31
 278 319 278 319 360.5 201.5 c 128,-1,32
 443 84 443 84 577 84 c 0,33,34
 674 84 674 84 739.5 131 c 128,-1,35
 805 178 805 178 861 272 c 1,36,-1
 925 230 l 1,37,38
 861 115 861 115 755.5 46 c 128,-1,39
 650 -23 650 -23 538 -26 c 1,40,-1
 538 -99 l 1,41,42
 583 -99 583 -99 619 -104.5 c 128,-1,43
 655 -110 655 -110 692 -129 c 0,44,45
 726 -145 726 -145 747 -174.5 c 128,-1,46
 768 -204 768 -204 768 -248 c 0,47,48
 768 -306 768 -306 736 -346 c 128,-1,49
 704 -386 704 -386 647 -408 c 0,50,51
 592 -428 592 -428 525 -436 c 128,-1,52
 458 -444 458 -444 369 -444 c 1,53,-1
 369 -372 l 1,54,55
 410 -372 410 -372 458 -371 c 128,-1,56
 506 -370 506 -370 540 -362 c 0,57,58
 580 -353 580 -353 602 -334.5 c 128,-1,59
 624 -316 624 -316 624 -282 c 0,60,61
 624 -258 624 -258 609 -242.5 c 128,-1,62
 594 -227 594 -227 569 -219 c 0,63,64
 549 -212 549 -212 515.5 -209.5 c 128,-1,65
 482 -207 482 -207 459 -207 c 1,66,-1
 459 -22 l 1,0,1
EndSplineSet
EndChar

StartChar: icircumflex
Encoding: 238 238 174
Width: 600
GlyphClass: 2
Flags: W
LayerCount: 2
Fore
SplineSet
551 0 m 1,0,-1
 74 0 l 1,1,-1
 74 66 l 1,2,3
 97 68 97 68 121.5 70 c 128,-1,4
 146 72 146 72 164 78 c 0,5,6
 192 87 192 87 205.5 109.5 c 128,-1,7
 219 132 219 132 219 168 c 2,8,-1
 219 777 l 2,9,10
 219 809 219 809 204.5 835.5 c 128,-1,11
 190 862 190 862 164 880 c 0,12,13
 145 892 145 892 109 900.5 c 128,-1,14
 73 909 73 909 43 911 c 1,15,-1
 43 976 l 1,16,-1
 391 998 l 1,17,-1
 405 984 l 1,18,-1
 405 180 l 2,19,20
 405 145 405 145 418.5 122 c 128,-1,21
 432 99 432 99 461 88 c 0,22,23
 483 79 483 79 504 73.5 c 128,-1,24
 525 68 525 68 551 66 c 1,25,-1
 551 0 l 1,0,-1
560 1150 m 1,26,-1
 512 1121 l 1,27,-1
 268 1391 l 1,28,-1
 28 1121 l 1,29,-1
 -20 1150 l 1,30,-1
 182 1493 l 2,31,32
 193 1513 193 1513 212 1527.5 c 128,-1,33
 231 1542 231 1542 272 1542 c 0,34,35
 316 1542 316 1542 332.5 1526 c 128,-1,36
 349 1510 349 1510 356 1497 c 2,37,-1
 560 1150 l 1,26,-1
EndSplineSet
EndChar

StartChar: idieresis
Encoding: 239 239 175
Width: 600
GlyphClass: 2
Flags: W
LayerCount: 2
Fore
SplineSet
551 0 m 1,0,-1
 74 0 l 1,1,-1
 74 66 l 1,2,3
 97 68 97 68 121.5 70 c 128,-1,4
 146 72 146 72 164 78 c 0,5,6
 192 87 192 87 205.5 109.5 c 128,-1,7
 219 132 219 132 219 168 c 2,8,-1
 219 777 l 2,9,10
 219 809 219 809 204.5 835.5 c 128,-1,11
 190 862 190 862 164 880 c 0,12,13
 145 892 145 892 109 900.5 c 128,-1,14
 73 909 73 909 43 911 c 1,15,-1
 43 976 l 1,16,-1
 391 998 l 1,17,-1
 405 984 l 1,18,-1
 405 180 l 2,19,20
 405 145 405 145 418.5 122 c 128,-1,21
 432 99 432 99 461 88 c 0,22,23
 483 79 483 79 504 73.5 c 128,-1,24
 525 68 525 68 551 66 c 1,25,-1
 551 0 l 1,0,-1
566 1364 m 256,26,27
 566 1313 566 1313 533 1277 c 128,-1,28
 500 1241 500 1241 451 1241 c 256,29,30
 402 1241 402 1241 369 1277 c 128,-1,31
 336 1313 336 1313 336 1364 c 256,32,33
 336 1415 336 1415 369 1451 c 128,-1,34
 402 1487 402 1487 451 1487 c 256,35,36
 500 1487 500 1487 533 1451 c 128,-1,37
 566 1415 566 1415 566 1364 c 256,26,27
216 1364 m 256,38,39
 216 1313 216 1313 183 1277 c 128,-1,40
 150 1241 150 1241 101 1241 c 256,41,42
 52 1241 52 1241 19 1277 c 128,-1,43
 -14 1313 -14 1313 -14 1364 c 256,44,45
 -14 1415 -14 1415 19 1451 c 128,-1,46
 52 1487 52 1487 101 1487 c 256,47,48
 150 1487 150 1487 183 1451 c 128,-1,49
 216 1415 216 1415 216 1364 c 256,38,39
EndSplineSet
EndChar

StartChar: eth
Encoding: 240 240 176
Width: 1089
GlyphClass: 2
Flags: W
LayerCount: 2
Fore
SplineSet
1014 611 m 0,0,1
 1014 317 1014 317 886 143 c 128,-1,2
 758 -31 758 -31 532 -31 c 0,3,4
 443 -31 443 -31 360.5 2.5 c 128,-1,5
 278 36 278 36 212 103 c 0,6,7
 147 169 147 169 108.5 266 c 128,-1,8
 70 363 70 363 70 486 c 0,9,10
 70 707 70 707 197 846 c 128,-1,11
 324 985 324 985 524 985 c 0,12,13
 618 985 618 985 689.5 942.5 c 128,-1,14
 761 900 761 900 795 846 c 1,15,-1
 803 848 l 1,16,17
 788 976 788 976 738.5 1086 c 128,-1,18
 689 1196 689 1196 629 1283 c 1,19,-1
 398 1145 l 1,20,-1
 348 1223 l 1,21,-1
 576 1354 l 1,22,23
 545 1394 545 1394 500.5 1431.5 c 128,-1,24
 456 1469 456 1469 410 1500 c 1,25,-1
 460 1556 l 1,26,27
 506 1533 506 1533 570 1489 c 128,-1,28
 634 1445 634 1445 673 1408 c 1,29,-1
 876 1531 l 1,30,-1
 927 1453 l 1,31,-1
 737 1343 l 1,32,33
 874 1197 874 1197 944 1020 c 128,-1,34
 1014 843 1014 843 1014 611 c 0,0,1
746 190 m 0,35,36
 776 253 776 253 790.5 336 c 128,-1,37
 805 419 805 419 805 512 c 0,38,39
 805 689 805 689 735 797.5 c 128,-1,40
 665 906 665 906 545 906 c 0,41,42
 468 906 468 906 416.5 870.5 c 128,-1,43
 365 835 365 835 333 777 c 0,44,45
 305 726 305 726 291 651 c 128,-1,46
 277 576 277 576 277 499 c 0,47,48
 277 271 277 271 347 158 c 128,-1,49
 417 45 417 45 543 45 c 0,50,51
 614 45 614 45 665 85 c 128,-1,52
 716 125 716 125 746 190 c 0,35,36
EndSplineSet
EndChar

StartChar: divide
Encoding: 247 247 183
Width: 1317
GlyphClass: 2
Flags: W
LayerCount: 2
Fore
SplineSet
788 966 m 256,0,1
 788 913 788 913 750 875 c 128,-1,2
 712 837 712 837 659 837 c 256,3,4
 606 837 606 837 568 875 c 128,-1,5
 530 913 530 913 530 966 c 256,6,7
 530 1019 530 1019 568 1056 c 128,-1,8
 606 1093 606 1093 659 1093 c 256,9,10
 712 1093 712 1093 750 1056 c 128,-1,11
 788 1019 788 1019 788 966 c 256,0,1
1173 497 m 1,12,-1
 144 497 l 1,13,-1
 144 622 l 1,14,-1
 1173 622 l 1,15,-1
 1173 497 l 1,12,-1
788 153 m 256,16,17
 788 100 788 100 750 63 c 128,-1,18
 712 26 712 26 659 26 c 256,19,20
 606 26 606 26 568 63 c 128,-1,21
 530 100 530 100 530 153 c 256,22,23
 530 206 530 206 568 244 c 128,-1,24
 606 282 606 282 659 282 c 256,25,26
 712 282 712 282 750 244 c 128,-1,27
 788 206 788 206 788 153 c 256,16,17
EndSplineSet
EndChar

StartChar: oslash
Encoding: 248 248 184
Width: 1104
GlyphClass: 2
Flags: W
LayerCount: 2
Fore
SplineSet
1033 503 m 0,0,1
 1033 399 1033 399 1000 298.5 c 128,-1,2
 967 198 967 198 906 128 c 0,3,4
 837 48 837 48 746 9 c 128,-1,5
 655 -30 655 -30 542 -30 c 0,6,7
 463 -30 463 -30 390 -3 c 128,-1,8
 317 24 317 24 255 75 c 1,9,10
 212 23 212 23 170.5 -29 c 128,-1,11
 129 -81 129 -81 129 -81 c 1,12,-1
 71 -38 l 1,13,-1
 204 125 l 1,14,15
 143 193 143 193 106.5 283.5 c 128,-1,16
 70 374 70 374 70 489 c 0,17,18
 70 720 70 720 204.5 867 c 128,-1,19
 339 1014 339 1014 557 1014 c 0,20,21
 645 1014 645 1014 716 989 c 128,-1,22
 787 964 787 964 846 917 c 1,23,-1
 957 1058 l 1,24,-1
 1015 1014 l 1,25,-1
 897 869 l 1,26,27
 961 800 961 800 997 706.5 c 128,-1,28
 1033 613 1033 613 1033 503 c 0,0,1
763 815 m 1,29,30
 730 873 730 873 681.5 905.5 c 128,-1,31
 633 938 633 938 555 938 c 0,32,33
 474 938 474 938 419.5 898.5 c 128,-1,34
 365 859 365 859 332 796 c 0,35,36
 300 735 300 735 286.5 657 c 128,-1,37
 273 579 273 579 273 506 c 0,38,39
 273 437 273 437 281.5 370 c 128,-1,40
 290 303 290 303 307 248 c 1,41,-1
 763 815 l 1,29,30
763 180 m 0,42,43
 798 247 798 247 814 324 c 128,-1,44
 830 401 830 401 830 501 c 0,45,46
 830 564 830 564 822 629 c 128,-1,47
 814 694 814 694 796 748 c 1,48,-1
 340 179 l 1,49,50
 374 117 374 117 425 81.5 c 128,-1,51
 476 46 476 46 555 46 c 0,52,53
 625 46 625 46 677.5 82.5 c 128,-1,54
 730 119 730 119 763 180 c 0,42,43
EndSplineSet
EndChar

StartChar: thorn
Encoding: 254 254 190
Width: 1145
GlyphClass: 2
Flags: W
LayerCount: 2
Fore
SplineSet
948 869 m 0,0,1
 1007 799 1007 799 1039.5 706.5 c 128,-1,2
 1072 614 1072 614 1072 495 c 0,3,4
 1072 378 1072 378 1033.5 281 c 128,-1,5
 995 184 995 184 930 117 c 0,6,7
 863 48 863 48 781 11 c 128,-1,8
 699 -26 699 -26 607 -26 c 0,9,10
 518 -26 518 -26 461 -6 c 128,-1,11
 404 14 404 14 368 41 c 1,12,-1
 360 41 l 1,13,-1
 360 -255 l 2,14,15
 360 -291 360 -291 374 -315 c 128,-1,16
 388 -339 388 -339 417 -350 c 0,17,18
 440 -359 440 -359 485 -367.5 c 128,-1,19
 530 -376 530 -376 559 -377 c 1,20,-1
 559 -444 l 1,21,-1
 8 -444 l 1,22,-1
 8 -377 l 1,23,24
 39 -375 39 -375 68 -372.5 c 128,-1,25
 97 -370 97 -370 120 -362 c 0,26,27
 150 -352 150 -352 162 -327 c 128,-1,28
 174 -302 174 -302 174 -268 c 2,29,-1
 174 1316 l 2,30,31
 171 1348 171 1348 157 1383 c 128,-1,32
 143 1418 143 1418 118 1435 c 0,33,34
 100 1447 100 1447 54.5 1453 c 128,-1,35
 9 1459 9 1459 -19 1461 c 1,36,-1
 -19 1525 l 1,37,-1
 346 1548 l 1,38,-1
 360 1533 l 1,39,-1
 360 877 l 1,40,-1
 366 873 l 1,41,42
 418 933 418 933 495 973 c 128,-1,43
 572 1013 572 1013 648 1013 c 0,44,45
 740 1013 740 1013 816.5 973.5 c 128,-1,46
 893 934 893 934 948 869 c 0,0,1
863 487 m 0,47,48
 863 561 863 561 847 638 c 128,-1,49
 831 715 831 715 797 772 c 0,50,51
 763 830 763 830 708 866 c 128,-1,52
 653 902 653 902 576 902 c 0,53,54
 502 902 502 902 450 869.5 c 128,-1,55
 398 837 398 837 360 792 c 1,56,-1
 360 209 l 1,57,58
 369 182 369 182 389.5 153 c 128,-1,59
 410 124 410 124 435 103 c 0,60,61
 466 78 466 78 502 62.5 c 128,-1,62
 538 47 538 47 590 47 c 0,63,64
 646 47 646 47 698 76.5 c 128,-1,65
 750 106 750 106 785 160 c 0,66,67
 825 222 825 222 844 304 c 128,-1,68
 863 386 863 386 863 487 c 0,47,48
EndSplineSet
EndChar

StartChar: Aogonek
Encoding: 260 260 196
Width: 1374
GlyphClass: 2
Flags: W
LayerCount: 2
Fore
SplineSet
1114 0 m 1,0,-1
 830 0 l 1,1,-1
 830 71 l 1,2,3
 908 76 908 76 959.5 91 c 128,-1,4
 1011 106 1011 106 1011 128 c 0,5,6
 1011 137 1011 137 1009 150 c 128,-1,7
 1007 163 1007 163 1003 173 c 2,8,-1
 885 491 l 1,9,-1
 388 491 l 1,10,11
 360 421 360 421 342.5 369 c 128,-1,12
 325 317 325 317 311 273 c 0,13,14
 298 230 298 230 293 203 c 128,-1,15
 288 176 288 176 288 159 c 0,16,17
 288 119 288 119 351 97 c 128,-1,18
 414 75 414 75 493 71 c 1,19,-1
 493 0 l 1,20,-1
 -41 0 l 1,21,-1
 -41 71 l 1,22,23
 -15 73 -15 73 24 82.5 c 128,-1,24
 63 92 63 92 88 108 c 0,25,26
 128 135 128 135 150 164.5 c 128,-1,27
 172 194 172 194 193 246 c 0,28,29
 300 513 300 513 429 846 c 128,-1,30
 558 1179 558 1179 659 1439 c 1,31,-1
 739 1439 l 1,32,-1
 1212 215 l 2,33,34
 1227 176 1227 176 1246 152 c 128,-1,35
 1265 128 1265 128 1299 105 c 0,36,37
 1322 91 1322 91 1359 81.5 c 128,-1,38
 1396 72 1396 72 1421 71 c 1,39,-1
 1421 0 l 1,40,-1
 1191 0 l 1,41,42
 1145 -44 1145 -44 1121.5 -96 c 128,-1,43
 1098 -148 1098 -148 1098 -217 c 0,44,45
 1098 -253 1098 -253 1107.5 -280.5 c 128,-1,46
 1117 -308 1117 -308 1143 -329 c 0,47,48
 1169 -351 1169 -351 1213.5 -362 c 128,-1,49
 1258 -373 1258 -373 1322 -372 c 1,50,-1
 1322 -444 l 1,51,-1
 1207 -444 l 2,52,53
 1079 -444 1079 -444 1009.5 -391.5 c 128,-1,54
 940 -339 940 -339 940 -250 c 0,55,56
 940 -188 940 -188 983 -124.5 c 128,-1,57
 1026 -61 1026 -61 1114 0 c 1,0,-1
849 580 m 1,58,-1
 634 1130 l 1,59,-1
 423 580 l 1,60,-1
 849 580 l 1,58,-1
EndSplineSet
EndChar

StartChar: aogonek
Encoding: 261 261 197
Width: 1032
GlyphClass: 2
Flags: W
LayerCount: 2
Fore
SplineSet
548 -250 m 0,0,1
 548 -186 548 -186 593 -121.5 c 128,-1,2
 638 -57 638 -57 732 7 c 1,3,4
 701 27 701 27 684 54 c 128,-1,5
 667 81 667 81 659 123 c 1,6,-1
 653 123 l 1,7,8
 588 51 588 51 513.5 13 c 128,-1,9
 439 -25 439 -25 334 -25 c 0,10,11
 223 -25 223 -25 151.5 43 c 128,-1,12
 80 111 80 111 80 221 c 0,13,14
 80 278 80 278 96 323 c 128,-1,15
 112 368 112 368 144 404 c 0,16,17
 169 434 169 434 210 457.5 c 128,-1,18
 251 481 251 481 287 495 c 0,19,20
 332 512 332 512 469.5 558 c 128,-1,21
 607 604 607 604 655 630 c 1,22,-1
 655 729 l 2,23,24
 655 742 655 742 649.5 779 c 128,-1,25
 644 816 644 816 626 849 c 0,26,27
 606 886 606 886 569.5 913.5 c 128,-1,28
 533 941 533 941 466 941 c 0,29,30
 420 941 420 941 380.5 925.5 c 128,-1,31
 341 910 341 910 325 893 c 1,32,33
 325 873 325 873 334.5 834 c 128,-1,34
 344 795 344 795 344 762 c 0,35,36
 344 727 344 727 312.5 698 c 128,-1,37
 281 669 281 669 225 669 c 0,38,39
 175 669 175 669 151.5 704.5 c 128,-1,40
 128 740 128 740 128 784 c 0,41,42
 128 830 128 830 160.5 872 c 128,-1,43
 193 914 193 914 245 947 c 0,44,45
 290 975 290 975 354 994.5 c 128,-1,46
 418 1014 418 1014 479 1014 c 0,47,48
 563 1014 563 1014 625.5 1002.5 c 128,-1,49
 688 991 688 991 739 953 c 0,50,51
 790 916 790 916 816.5 852.5 c 128,-1,52
 843 789 843 789 843 689 c 0,53,54
 843 546 843 546 840 435.5 c 128,-1,55
 837 325 837 325 837 194 c 0,56,57
 837 155 837 155 850.5 132 c 128,-1,58
 864 109 864 109 892 93 c 0,59,60
 907 84 907 84 939.5 83 c 128,-1,61
 972 82 972 82 1006 82 c 1,62,-1
 1006 18 l 1,63,64
 959 1 959 1 923.5 -9.5 c 128,-1,65
 888 -20 888 -20 843 -20 c 0,66,67
 828 -20 828 -20 813.5 -18.5 c 128,-1,68
 799 -17 799 -17 787 -14 c 1,69,70
 748 -56 748 -56 727 -103 c 128,-1,71
 706 -150 706 -150 706 -217 c 0,72,73
 706 -253 706 -253 715.5 -280.5 c 128,-1,74
 725 -308 725 -308 751 -329 c 0,75,76
 777 -351 777 -351 821.5 -362 c 128,-1,77
 866 -373 866 -373 930 -372 c 1,78,-1
 930 -444 l 1,79,-1
 815 -444 l 2,80,81
 687 -444 687 -444 617.5 -391.5 c 128,-1,82
 548 -339 548 -339 548 -250 c 0,0,1
657 546 m 1,83,84
 572 521 572 521 508 497 c 128,-1,85
 444 473 444 473 389 437 c 0,86,87
 339 403 339 403 310 356.5 c 128,-1,88
 281 310 281 310 281 246 c 0,89,90
 281 163 281 163 324.5 124 c 128,-1,91
 368 85 368 85 435 85 c 0,92,93
 506 85 506 85 560 119.5 c 128,-1,94
 614 154 614 154 651 201 c 1,95,-1
 657 546 l 1,83,84
EndSplineSet
EndChar

StartChar: dcroat
Encoding: 273 273 209
Width: 1176
GlyphClass: 2
Flags: W
LayerCount: 2
Fore
SplineSet
1152 18 m 1,0,-1
 808 -4 l 1,1,-1
 793 10 l 1,2,-1
 793 102 l 1,3,-1
 785 104 l 1,4,5
 733 46 733 46 656.5 9 c 128,-1,6
 580 -28 580 -28 499 -28 c 0,7,8
 415 -28 415 -28 336.5 9.5 c 128,-1,9
 258 47 258 47 200 115 c 0,10,11
 141 184 141 184 106.5 281 c 128,-1,12
 72 378 72 378 72 495 c 0,13,14
 72 602 72 602 109 698 c 128,-1,15
 146 794 146 794 211 866 c 0,16,17
 272 933 272 933 360.5 973 c 128,-1,18
 449 1013 449 1013 541 1013 c 0,19,20
 610 1013 610 1013 676.5 995.5 c 128,-1,21
 743 978 743 978 791 951 c 1,22,-1
 791 1170 l 1,23,-1
 430 1170 l 1,24,-1
 430 1255 l 1,25,-1
 792 1255 l 1,26,-1
 792 1294 l 2,27,28
 792 1349 792 1349 777.5 1377 c 128,-1,29
 763 1405 763 1405 738 1423 c 0,30,31
 710 1442 710 1442 662.5 1450.5 c 128,-1,32
 615 1459 615 1459 560 1463 c 1,33,-1
 560 1525 l 1,34,-1
 963 1548 l 1,35,-1
 978 1533 l 1,36,-1
 978 1255 l 1,37,-1
 1195 1255 l 1,38,-1
 1195 1170 l 1,39,-1
 978 1170 l 1,40,-1
 978 203 l 2,41,42
 978 168 978 168 991.5 143.5 c 128,-1,43
 1005 119 1005 119 1031 102 c 0,44,45
 1050 90 1050 90 1086 87 c 128,-1,46
 1122 84 1122 84 1152 83 c 1,47,-1
 1152 18 l 1,0,-1
791 191 m 1,48,-1
 791 768 l 1,49,50
 783 794 783 794 765 824 c 128,-1,51
 747 854 747 854 720 879 c 0,52,53
 691 904 691 904 652 920.5 c 128,-1,54
 613 937 613 937 561 937 c 0,55,56
 501 937 501 937 450.5 906 c 128,-1,57
 400 875 400 875 361 817 c 0,58,59
 324 761 324 761 302.5 674.5 c 128,-1,60
 281 588 281 588 281 483 c 0,61,62
 281 399 281 399 297 330.5 c 128,-1,63
 313 262 313 262 351 203 c 0,64,65
 386 147 386 147 440.5 113 c 128,-1,66
 495 79 495 79 570 79 c 0,67,68
 650 79 650 79 702.5 114 c 128,-1,69
 755 149 755 149 791 191 c 1,48,-1
EndSplineSet
EndChar

StartChar: Eogonek
Encoding: 280 280 216
Width: 1338
GlyphClass: 2
Flags: W
LayerCount: 2
Fore
SplineSet
994 0 m 1,1,-1
 86 0 l 1,2,-1
 86 71 l 1,3,4
 116 73 116 73 166 79.5 c 128,-1,5
 216 86 216 86 231 93 c 0,6,7
 263 108 263 108 275.5 132 c 128,-1,8
 288 156 288 156 288 193 c 2,9,-1
 288 1213 l 2,10,11
 288 1246 288 1246 277 1271.5 c 128,-1,12
 266 1297 266 1297 231 1313 c 0,13,14
 204 1326 204 1326 158.5 1336 c 128,-1,15
 113 1346 113 1346 86 1348 c 1,16,-1
 86 1419 l 1,17,-1
 1184 1419 l 1,18,-1
 1184 1077 l 1,19,-1
 1109 1077 l 1,20,21
 1089 1153 1089 1153 1022.5 1238.5 c 128,-1,22
 956 1324 956 1324 896 1332 c 0,23,24
 865 1336 865 1336 822 1338 c 128,-1,25
 779 1340 779 1340 724 1340 c 2,26,-1
 501 1340 l 1,27,-1
 501 776 l 1,28,-1
 661 776 l 2,29,30
 738 776 738 776 773.5 790.5 c 128,-1,31
 809 805 809 805 836 839 c 0,32,33
 858 868 858 868 873.5 916.5 c 128,-1,34
 889 965 889 965 894 1008 c 1,35,-1
 969 1008 l 1,36,-1
 969 453 l 1,37,-1
 894 453 l 1,38,39
 890 501 890 501 872.5 554.5 c 128,-1,40
 855 608 855 608 836 632 c 0,41,42
 805 671 805 671 765.5 683 c 128,-1,43
 726 695 726 695 661 695 c 2,44,-1
 501 695 l 1,45,-1
 501 269 l 2,46,47
 501 205 501 205 510 168 c 128,-1,48
 519 131 519 131 545 112 c 256,49,50
 571 93 571 93 616 87.5 c 128,-1,51
 661 82 661 82 744 82 c 0,52,53
 777 82 777 82 831 82 c 128,-1,54
 885 82 885 82 922 86 c 0,55,56
 960 90 960 90 1000.5 100.5 c 128,-1,57
 1041 111 1041 111 1058 129 c 0,58,59
 1104 177 1104 177 1154.5 274.5 c 128,-1,60
 1205 372 1205 372 1219 418 c 1,61,-1
 1291 418 l 1,62,-1
 1264 0 l 1,63,-1
 1071 0 l 1,64,65
 1025 -44 1025 -44 1001.5 -96 c 128,-1,66
 978 -148 978 -148 978 -217 c 0,67,68
 978 -253 978 -253 987.5 -280.5 c 128,-1,69
 997 -308 997 -308 1023 -329 c 0,70,71
 1049 -351 1049 -351 1093.5 -362 c 128,-1,72
 1138 -373 1138 -373 1202 -372 c 1,73,-1
 1202 -444 l 1,74,-1
 1087 -444 l 2,75,76
 959 -444 959 -444 889.5 -391.5 c 128,-1,77
 820 -339 820 -339 820 -250 c 0,78,79
 820 -188 820 -188 863 -124.5 c 128,-1,0
 906 -61 906 -61 994 0 c 1,1,-1
EndSplineSet
EndChar

StartChar: eogonek
Encoding: 281 281 217
Width: 990
GlyphClass: 2
Flags: W
LayerCount: 2
Fore
SplineSet
615 -20 m 1,0,1
 598 -23 598 -23 579.5 -24 c 128,-1,2
 561 -25 561 -25 543 -25 c 0,3,4
 424 -25 424 -25 334.5 16.5 c 128,-1,5
 245 58 245 58 187 130 c 256,6,7
 129 202 129 202 100.5 298 c 128,-1,8
 72 394 72 394 72 501 c 0,9,10
 72 597 72 597 102.5 689.5 c 128,-1,11
 133 782 133 782 192 856 c 0,12,13
 249 927 249 927 333.5 970.5 c 128,-1,14
 418 1014 418 1014 523 1014 c 0,15,16
 631 1014 631 1014 708 980 c 128,-1,17
 785 946 785 946 833 887 c 0,18,19
 879 831 879 831 901.5 755 c 128,-1,20
 924 679 924 679 924 590 c 2,21,-1
 924 524 l 1,22,-1
 271 524 l 1,23,24
 271 427 271 427 289.5 348 c 128,-1,25
 308 269 308 269 348 209 c 0,26,27
 387 151 387 151 450 117.5 c 128,-1,28
 513 84 513 84 600 84 c 0,29,30
 689 84 689 84 753.5 125.5 c 128,-1,31
 818 167 818 167 878 275 c 1,32,-1
 948 232 l 1,33,34
 913 165 913 165 862.5 111.5 c 128,-1,35
 812 58 812 58 750 25 c 1,36,37
 692 -23 692 -23 659.5 -80.5 c 128,-1,38
 627 -138 627 -138 627 -217 c 0,39,40
 627 -253 627 -253 636.5 -280.5 c 128,-1,41
 646 -308 646 -308 672 -329 c 0,42,43
 698 -351 698 -351 742.5 -362 c 128,-1,44
 787 -373 787 -373 851 -372 c 1,45,-1
 851 -444 l 1,46,-1
 736 -444 l 2,47,48
 608 -444 608 -444 538.5 -391.5 c 128,-1,49
 469 -339 469 -339 469 -250 c 0,50,51
 469 -196 469 -196 504 -138 c 128,-1,52
 539 -80 539 -80 615 -20 c 1,0,1
727 608 m 1,53,54
 727 664 727 664 717.5 728 c 128,-1,55
 708 792 708 792 687 835 c 0,56,57
 664 881 664 881 624 910 c 128,-1,58
 584 939 584 939 521 939 c 0,59,60
 416 939 416 939 346.5 851.5 c 128,-1,61
 277 764 277 764 271 608 c 1,62,-1
 727 608 l 1,53,54
EndSplineSet
EndChar

StartChar: gcommaaccent
Encoding: 291 291 227
Width: 1043
GlyphClass: 2
Flags: W
LayerCount: 2
Fore
SplineSet
917 102 m 0,0,1
 957 64 957 64 980 16 c 128,-1,2
 1003 -32 1003 -32 1003 -103 c 256,3,4
 1003 -174 1003 -174 972 -236.5 c 128,-1,5
 941 -299 941 -299 878 -345 c 0,6,7
 811 -392 811 -392 718 -418 c 128,-1,8
 625 -444 625 -444 488 -444 c 0,9,10
 264 -444 264 -444 153 -378.5 c 128,-1,11
 42 -313 42 -313 42 -187 c 0,12,13
 42 -85 42 -85 122 -26 c 128,-1,14
 202 33 202 33 326 38 c 1,15,-1
 326 52 l 1,16,17
 296 61 296 61 264 74.5 c 128,-1,18
 232 88 232 88 209 106 c 0,19,20
 183 127 183 127 167 155.5 c 128,-1,21
 151 184 151 184 151 226 c 0,22,23
 151 279 151 279 188.5 323.5 c 128,-1,24
 226 368 226 368 302 400 c 1,25,-1
 302 415 l 1,26,27
 206 460 206 460 153 530.5 c 128,-1,28
 100 601 100 601 100 694 c 0,29,30
 100 834 100 834 204.5 924 c 128,-1,31
 309 1014 309 1014 472 1014 c 0,32,33
 517 1014 517 1014 561.5 1005 c 128,-1,34
 606 996 606 996 652 982 c 1,35,-1
 996 982 l 1,36,-1
 996 886 l 1,37,-1
 764 886 l 1,38,-1
 764 880 l 1,39,40
 801 837 801 837 819 785 c 128,-1,41
 837 733 837 733 837 683 c 0,42,43
 837 553 837 553 731.5 463 c 128,-1,44
 626 373 626 373 486 373 c 2,45,-1
 365 373 l 1,46,47
 342 365 342 365 317 344 c 128,-1,48
 292 323 292 323 292 287 c 0,49,50
 292 250 292 250 313 230.5 c 128,-1,51
 334 211 334 211 364 204 c 0,52,53
 393 196 393 196 431.5 194 c 128,-1,54
 470 192 470 192 511 191 c 0,55,56
 555 190 555 190 631.5 185 c 128,-1,57
 708 180 708 180 740 179 c 0,58,59
 786 177 786 177 832.5 157 c 128,-1,60
 879 137 879 137 917 102 c 0,0,1
647 687 m 0,61,62
 647 804 647 804 599.5 873.5 c 128,-1,63
 552 943 552 943 466 943 c 0,64,65
 419 943 419 943 385.5 923.5 c 128,-1,66
 352 904 352 904 331 868 c 0,67,68
 311 835 311 835 302.5 788.5 c 128,-1,69
 294 742 294 742 294 693 c 0,70,71
 294 582 294 582 342.5 512 c 128,-1,72
 391 442 391 442 468 442 c 0,73,74
 554 442 554 442 600.5 511.5 c 128,-1,75
 647 581 647 581 647 687 c 0,61,62
839 -140 m 0,76,77
 839 -84 839 -84 813 -48 c 128,-1,78
 787 -12 787 -12 734 1 c 0,79,80
 706 5 706 5 619 10 c 128,-1,81
 532 15 532 15 417 15 c 1,82,83
 309 -6 309 -6 263.5 -55.5 c 128,-1,84
 218 -105 218 -105 218 -183 c 0,85,86
 218 -218 218 -218 233 -250 c 128,-1,87
 248 -282 248 -282 285 -309 c 0,88,89
 320 -335 320 -335 379 -351.5 c 128,-1,90
 438 -368 438 -368 523 -368 c 0,91,92
 670 -368 670 -368 754.5 -311.5 c 128,-1,93
 839 -255 839 -255 839 -140 c 0,76,77
629 1538 m 1,94,95
 596 1521 596 1521 558 1499 c 128,-1,96
 520 1477 520 1477 499 1458 c 0,97,98
 474 1437 474 1437 457.5 1406.5 c 128,-1,99
 441 1376 441 1376 434 1332 c 1,100,-1
 479 1332 l 2,101,102
 542 1332 542 1332 577 1302.5 c 128,-1,103
 612 1273 612 1273 612 1222 c 0,104,105
 612 1185 612 1185 580 1149.5 c 128,-1,106
 548 1114 548 1114 493 1114 c 0,107,108
 415 1114 415 1114 374.5 1162 c 128,-1,109
 334 1210 334 1210 334 1302 c 0,110,111
 334 1359 334 1359 361.5 1406.5 c 128,-1,112
 389 1454 389 1454 429 1493 c 0,113,114
 468 1529 468 1529 514.5 1555 c 128,-1,115
 561 1581 561 1581 595 1597 c 1,116,-1
 629 1538 l 1,94,95
EndSplineSet
EndChar

StartChar: hcircumflex
Encoding: 293 293 229
Width: 1192
GlyphClass: 2
Flags: W
LayerCount: 2
Fore
SplineSet
1143 0 m 1,0,-1
 659 0 l 1,1,-1
 659 66 l 1,2,3
 682 68 682 68 710 70 c 128,-1,4
 738 72 738 72 756 78 c 0,5,6
 784 87 784 87 797.5 109.5 c 128,-1,7
 811 132 811 132 811 168 c 2,8,-1
 811 675 l 2,9,10
 811 780 811 780 761.5 837 c 128,-1,11
 712 894 712 894 641 894 c 0,12,13
 589 894 589 894 544.5 877.5 c 128,-1,14
 500 861 500 861 465 837 c 0,15,16
 431 812 431 812 413 787 c 128,-1,17
 395 762 395 762 385 745 c 1,18,-1
 385 178 l 2,19,20
 385 144 385 144 398.5 122 c 128,-1,21
 412 100 412 100 440 88 c 0,22,23
 462 78 462 78 485.5 73 c 128,-1,24
 509 68 509 68 537 66 c 1,25,-1
 537 0 l 1,26,-1
 53 0 l 1,27,-1
 53 66 l 1,28,29
 76 68 76 68 101 70.5 c 128,-1,30
 126 73 126 73 143 78 c 0,31,32
 171 87 171 87 185 109.5 c 128,-1,33
 199 132 199 132 199 168 c 2,34,-1
 199 1187 l 2,35,36
 199 1221 199 1221 183.5 1255 c 128,-1,37
 168 1289 168 1289 143 1306 c 0,38,39
 125 1318 125 1318 79.5 1324 c 128,-1,40
 34 1330 34 1330 6 1332 c 1,41,-1
 6 1396 l 1,42,-1
 371 1419 l 1,43,-1
 385 1404 l 1,44,-1
 385 845 l 1,45,-1
 389 845 l 1,46,47
 422 878 422 878 449 903.5 c 128,-1,48
 476 929 476 929 520 957 c 0,49,50
 558 981 558 981 609.5 997 c 128,-1,51
 661 1013 661 1013 725 1013 c 0,52,53
 857 1013 857 1013 928 929.5 c 128,-1,54
 999 846 999 846 999 689 c 2,55,-1
 999 176 l 2,56,57
 999 141 999 141 1011.5 119.5 c 128,-1,58
 1024 98 1024 98 1053 86 c 0,59,60
 1076 77 1076 77 1094.5 72.5 c 128,-1,61
 1113 68 1113 68 1143 66 c 1,62,-1
 1143 0 l 1,0,-1
930 1539 m 1,63,-1
 882 1507 l 1,64,-1
 603 1719 l 1,65,-1
 328 1507 l 1,66,-1
 280 1539 l 1,67,-1
 514 1823 l 2,68,69
 532 1845 532 1845 549.5 1856.5 c 128,-1,70
 567 1868 567 1868 607 1868 c 0,71,72
 648 1868 648 1868 663.5 1857 c 128,-1,73
 679 1846 679 1846 694 1827 c 2,74,-1
 930 1539 l 1,63,-1
EndSplineSet
EndChar

StartChar: Hbar
Encoding: 294 294 230
Width: 1669
GlyphClass: 2
Flags: W
LayerCount: 2
Fore
SplineSet
1567 0 m 1,0,-1
 978 0 l 1,1,-1
 978 71 l 1,2,3
 1002 73 1002 73 1047.5 77 c 128,-1,4
 1093 81 1093 81 1110 89 c 0,5,6
 1140 101 1140 101 1154 125.5 c 128,-1,7
 1168 150 1168 150 1168 189 c 2,8,-1
 1168 694 l 1,9,-1
 501 694 l 1,10,-1
 501 200 l 2,11,12
 501 165 501 165 512.5 141 c 128,-1,13
 524 117 524 117 558 99 c 0,14,15
 575 90 575 90 618.5 81 c 128,-1,16
 662 72 662 72 687 71 c 1,17,-1
 687 0 l 1,18,-1
 98 0 l 1,19,-1
 98 71 l 1,20,21
 122 73 122 73 167.5 77 c 128,-1,22
 213 81 213 81 230 89 c 0,23,24
 260 101 260 101 274 125.5 c 128,-1,25
 288 150 288 150 288 189 c 2,26,-1
 288 1011 l 1,27,-1
 102 1011 l 1,28,-1
 102 1100 l 1,29,-1
 288 1100 l 1,30,-1
 288 1213 l 2,31,32
 288 1245 288 1245 275 1271.5 c 128,-1,33
 262 1298 262 1298 230 1313 c 0,34,35
 203 1326 203 1326 164.5 1336 c 128,-1,36
 126 1346 126 1346 98 1348 c 1,37,-1
 98 1419 l 1,38,-1
 687 1419 l 1,39,-1
 687 1348 l 1,40,41
 659 1347 659 1347 618.5 1339 c 128,-1,42
 578 1331 578 1331 558 1324 c 0,43,44
 524 1312 524 1312 512.5 1284 c 128,-1,45
 501 1256 501 1256 501 1223 c 2,46,-1
 501 1100 l 1,47,-1
 1168 1100 l 1,48,-1
 1168 1213 l 2,49,50
 1168 1245 1168 1245 1155 1271.5 c 128,-1,51
 1142 1298 1142 1298 1110 1313 c 0,52,53
 1083 1326 1083 1326 1044.5 1336 c 128,-1,54
 1006 1346 1006 1346 978 1348 c 1,55,-1
 978 1419 l 1,56,-1
 1567 1419 l 1,57,-1
 1567 1348 l 1,58,59
 1539 1347 1539 1347 1498.5 1339 c 128,-1,60
 1458 1331 1458 1331 1438 1324 c 0,61,62
 1404 1312 1404 1312 1392.5 1284 c 128,-1,63
 1381 1256 1381 1256 1381 1223 c 2,64,-1
 1381 1100 l 1,65,-1
 1567 1100 l 1,66,-1
 1567 1011 l 1,67,-1
 1381 1011 l 1,68,-1
 1381 200 l 2,69,70
 1381 165 1381 165 1392.5 141 c 128,-1,71
 1404 117 1404 117 1438 99 c 0,72,73
 1455 90 1455 90 1498.5 81 c 128,-1,74
 1542 72 1542 72 1567 71 c 1,75,-1
 1567 0 l 1,0,-1
1168 783 m 1,76,-1
 1168 1011 l 1,77,-1
 501 1011 l 1,78,-1
 501 783 l 1,79,-1
 1168 783 l 1,76,-1
EndSplineSet
EndChar

StartChar: hbar
Encoding: 295 295 231
Width: 1192
GlyphClass: 2
Flags: W
LayerCount: 2
Fore
SplineSet
1143 0 m 1,0,-1
 659 0 l 1,1,-1
 659 66 l 1,2,3
 682 68 682 68 710 70 c 128,-1,4
 738 72 738 72 756 78 c 0,5,6
 784 87 784 87 797.5 109.5 c 128,-1,7
 811 132 811 132 811 168 c 2,8,-1
 811 675 l 2,9,10
 811 780 811 780 761.5 837 c 128,-1,11
 712 894 712 894 641 894 c 0,12,13
 589 894 589 894 544.5 877.5 c 128,-1,14
 500 861 500 861 465 837 c 0,15,16
 431 812 431 812 413 787 c 128,-1,17
 395 762 395 762 385 745 c 1,18,-1
 385 178 l 2,19,20
 385 144 385 144 398.5 122 c 128,-1,21
 412 100 412 100 440 88 c 0,22,23
 462 78 462 78 485.5 73 c 128,-1,24
 509 68 509 68 537 66 c 1,25,-1
 537 0 l 1,26,-1
 53 0 l 1,27,-1
 53 66 l 1,28,29
 76 68 76 68 101 70.5 c 128,-1,30
 126 73 126 73 143 78 c 0,31,32
 171 87 171 87 185 109.5 c 128,-1,33
 199 132 199 132 199 168 c 2,34,-1
 199 1170 l 1,35,-1
 -29 1170 l 1,36,-1
 -29 1255 l 1,37,-1
 199 1255 l 1,38,-1
 199 1316 l 2,39,40
 199 1350 199 1350 183.5 1384 c 128,-1,41
 168 1418 168 1418 143 1435 c 0,42,43
 125 1448 125 1448 79.5 1453.5 c 128,-1,44
 34 1459 34 1459 6 1461 c 1,45,-1
 6 1525 l 1,46,-1
 371 1548 l 1,47,-1
 385 1533 l 1,48,-1
 385 1255 l 1,49,-1
 736 1255 l 1,50,-1
 736 1170 l 1,51,-1
 385 1170 l 1,52,-1
 385 845 l 1,53,-1
 389 845 l 1,54,55
 422 878 422 878 449 903.5 c 128,-1,56
 476 929 476 929 520 957 c 0,57,58
 558 981 558 981 609.5 997 c 128,-1,59
 661 1013 661 1013 725 1013 c 0,60,61
 857 1013 857 1013 928 929.5 c 128,-1,62
 999 846 999 846 999 689 c 2,63,-1
 999 176 l 2,64,65
 999 141 999 141 1011.5 119.5 c 128,-1,66
 1024 98 1024 98 1053 86 c 0,67,68
 1076 77 1076 77 1094.5 72.5 c 128,-1,69
 1113 68 1113 68 1143 66 c 1,70,-1
 1143 0 l 1,0,-1
EndSplineSet
EndChar

StartChar: Itilde
Encoding: 296 296 232
Width: 798
GlyphClass: 2
Flags: W
LayerCount: 2
Fore
SplineSet
718 0 m 1,0,-1
 79 0 l 1,1,-1
 79 71 l 1,2,3
 106 73 106 73 157 77 c 128,-1,4
 208 81 208 81 229 89 c 0,5,6
 262 102 262 102 277 124.5 c 128,-1,7
 292 147 292 147 292 187 c 2,8,-1
 292 1215 l 2,9,10
 292 1250 292 1250 281 1273.5 c 128,-1,11
 270 1297 270 1297 229 1313 c 0,12,13
 199 1325 199 1325 153.5 1335.5 c 128,-1,14
 108 1346 108 1346 79 1348 c 1,15,-1
 79 1419 l 1,16,-1
 718 1419 l 1,17,-1
 718 1348 l 1,18,19
 687 1347 687 1347 644 1340.5 c 128,-1,20
 601 1334 601 1334 569 1324 c 0,21,22
 531 1312 531 1312 518 1285 c 128,-1,23
 505 1258 505 1258 505 1225 c 2,24,-1
 505 198 l 2,25,26
 505 165 505 165 519.5 139.5 c 128,-1,27
 534 114 534 114 569 99 c 0,28,29
 590 91 590 91 637.5 81.5 c 128,-1,30
 685 72 685 72 718 71 c 1,31,-1
 718 0 l 1,0,-1
774 1835 m 1,32,33
 764 1797 764 1797 744 1757 c 128,-1,34
 724 1717 724 1717 689 1678 c 0,35,36
 653 1639 653 1639 613.5 1615.5 c 128,-1,37
 574 1592 574 1592 519 1592 c 0,38,39
 462 1592 462 1592 423.5 1608 c 128,-1,40
 385 1624 385 1624 355 1643 c 0,41,42
 329 1660 329 1660 295.5 1677.5 c 128,-1,43
 262 1695 262 1695 229 1695 c 0,44,45
 198 1695 198 1695 182.5 1687 c 128,-1,46
 167 1679 167 1679 150 1660 c 0,47,48
 134 1642 134 1642 118 1612.5 c 128,-1,49
 102 1583 102 1583 88 1559 c 1,50,-1
 30 1584 l 1,51,52
 40 1616 40 1616 64 1661 c 128,-1,53
 88 1706 88 1706 116 1740 c 0,54,55
 146 1776 146 1776 189 1801.5 c 128,-1,56
 232 1827 232 1827 279 1827 c 0,57,58
 333 1827 333 1827 371 1811 c 128,-1,59
 409 1795 409 1795 440 1775 c 0,60,61
 468 1757 468 1757 497 1740.5 c 128,-1,62
 526 1724 526 1724 558 1724 c 0,63,64
 598 1724 598 1724 622.5 1733.5 c 128,-1,65
 647 1743 647 1743 661 1760 c 0,66,67
 677 1779 677 1779 687.5 1801 c 128,-1,68
 698 1823 698 1823 713 1858 c 1,69,-1
 774 1835 l 1,32,33
EndSplineSet
EndChar

StartChar: itilde
Encoding: 297 297 233
Width: 600
GlyphClass: 2
Flags: W
LayerCount: 2
Fore
SplineSet
551 0 m 1,0,-1
 74 0 l 1,1,-1
 74 66 l 1,2,3
 97 68 97 68 121.5 70 c 128,-1,4
 146 72 146 72 164 78 c 0,5,6
 192 87 192 87 205.5 109.5 c 128,-1,7
 219 132 219 132 219 168 c 2,8,-1
 219 777 l 2,9,10
 219 809 219 809 204.5 835.5 c 128,-1,11
 190 862 190 862 164 880 c 0,12,13
 145 892 145 892 109 900.5 c 128,-1,14
 73 909 73 909 43 911 c 1,15,-1
 43 976 l 1,16,-1
 391 998 l 1,17,-1
 405 984 l 1,18,-1
 405 180 l 2,19,20
 405 145 405 145 418.5 122 c 128,-1,21
 432 99 432 99 461 88 c 0,22,23
 483 79 483 79 504 73.5 c 128,-1,24
 525 68 525 68 551 66 c 1,25,-1
 551 0 l 1,0,-1
620 1467 m 1,26,27
 609 1423 609 1423 590 1383 c 128,-1,28
 571 1343 571 1343 543 1310 c 0,29,30
 512 1272 512 1272 476 1248 c 128,-1,31
 440 1224 440 1224 391 1224 c 0,32,33
 339 1224 339 1224 305 1240 c 128,-1,34
 271 1256 271 1256 244 1275 c 0,35,36
 221 1292 221 1292 191.5 1309.5 c 128,-1,37
 162 1327 162 1327 132 1327 c 0,38,39
 104 1327 104 1327 90 1319 c 128,-1,40
 76 1311 76 1311 61 1292 c 256,41,42
 46 1273 46 1273 35 1249.5 c 128,-1,43
 24 1226 24 1226 6 1191 c 1,44,-1
 -47 1216 l 1,45,46
 -36 1252 -36 1252 -17.5 1292 c 128,-1,47
 1 1332 1 1332 31 1372 c 0,48,49
 57 1408 57 1408 95.5 1433.5 c 128,-1,50
 134 1459 134 1459 177 1459 c 0,51,52
 225 1459 225 1459 259.5 1443 c 128,-1,53
 294 1427 294 1427 321 1407 c 0,54,55
 346 1389 346 1389 371.5 1372.5 c 128,-1,56
 397 1356 397 1356 426 1356 c 0,57,58
 462 1356 462 1356 483.5 1365.5 c 128,-1,59
 505 1375 505 1375 518 1392 c 0,60,61
 533 1412 533 1412 541.5 1433 c 128,-1,62
 550 1454 550 1454 564 1490 c 1,63,-1
 620 1467 l 1,26,27
EndSplineSet
EndChar

StartChar: Imacron
Encoding: 298 298 234
Width: 798
GlyphClass: 2
Flags: W
LayerCount: 2
Fore
SplineSet
718 0 m 1,0,-1
 79 0 l 1,1,-1
 79 71 l 1,2,3
 106 73 106 73 157 77 c 128,-1,4
 208 81 208 81 229 89 c 0,5,6
 262 102 262 102 277 124.5 c 128,-1,7
 292 147 292 147 292 187 c 2,8,-1
 292 1215 l 2,9,10
 292 1250 292 1250 281 1273.5 c 128,-1,11
 270 1297 270 1297 229 1313 c 0,12,13
 199 1325 199 1325 153.5 1335.5 c 128,-1,14
 108 1346 108 1346 79 1348 c 1,15,-1
 79 1419 l 1,16,-1
 718 1419 l 1,17,-1
 718 1348 l 1,18,19
 687 1347 687 1347 644 1340.5 c 128,-1,20
 601 1334 601 1334 569 1324 c 0,21,22
 531 1312 531 1312 518 1285 c 128,-1,23
 505 1258 505 1258 505 1225 c 2,24,-1
 505 198 l 2,25,26
 505 165 505 165 519.5 139.5 c 128,-1,27
 534 114 534 114 569 99 c 0,28,29
 590 91 590 91 637.5 81.5 c 128,-1,30
 685 72 685 72 718 71 c 1,31,-1
 718 0 l 1,0,-1
721 1657 m 1,32,-1
 77 1657 l 1,33,-1
 77 1785 l 1,34,-1
 721 1785 l 1,35,-1
 721 1657 l 1,32,-1
EndSplineSet
EndChar

StartChar: imacron
Encoding: 299 299 235
Width: 600
GlyphClass: 2
Flags: W
LayerCount: 2
Fore
SplineSet
551 0 m 1,0,-1
 74 0 l 1,1,-1
 74 66 l 1,2,3
 97 68 97 68 121.5 70 c 128,-1,4
 146 72 146 72 164 78 c 0,5,6
 192 87 192 87 205.5 109.5 c 128,-1,7
 219 132 219 132 219 168 c 2,8,-1
 219 777 l 2,9,10
 219 809 219 809 204.5 835.5 c 128,-1,11
 190 862 190 862 164 880 c 0,12,13
 145 892 145 892 109 900.5 c 128,-1,14
 73 909 73 909 43 911 c 1,15,-1
 43 976 l 1,16,-1
 391 998 l 1,17,-1
 405 984 l 1,18,-1
 405 180 l 2,19,20
 405 145 405 145 418.5 122 c 128,-1,21
 432 99 432 99 461 88 c 0,22,23
 483 79 483 79 504 73.5 c 128,-1,24
 525 68 525 68 551 66 c 1,25,-1
 551 0 l 1,0,-1
560 1291 m 1,26,-1
 -26 1291 l 1,27,-1
 -26 1419 l 1,28,-1
 560 1419 l 1,29,-1
 560 1291 l 1,26,-1
EndSplineSet
EndChar

StartChar: ibreve
Encoding: 301 301 237
Width: 600
GlyphClass: 2
Flags: W
LayerCount: 2
Fore
SplineSet
551 0 m 1,0,-1
 74 0 l 1,1,-1
 74 66 l 1,2,3
 97 68 97 68 121.5 70 c 128,-1,4
 146 72 146 72 164 78 c 0,5,6
 192 87 192 87 205.5 109.5 c 128,-1,7
 219 132 219 132 219 168 c 2,8,-1
 219 777 l 2,9,10
 219 809 219 809 204.5 835.5 c 128,-1,11
 190 862 190 862 164 880 c 0,12,13
 145 892 145 892 109 900.5 c 128,-1,14
 73 909 73 909 43 911 c 1,15,-1
 43 976 l 1,16,-1
 391 998 l 1,17,-1
 405 984 l 1,18,-1
 405 180 l 2,19,20
 405 145 405 145 418.5 122 c 128,-1,21
 432 99 432 99 461 88 c 0,22,23
 483 79 483 79 504 73.5 c 128,-1,24
 525 68 525 68 551 66 c 1,25,-1
 551 0 l 1,0,-1
551 1495 m 1,26,27
 531 1312 531 1312 466 1219.5 c 128,-1,28
 401 1127 401 1127 279 1127 c 256,29,30
 157 1127 157 1127 90.5 1219.5 c 128,-1,31
 24 1312 24 1312 7 1495 c 1,32,-1
 57 1507 l 1,33,34
 70 1459 70 1459 85 1417.5 c 128,-1,35
 100 1376 100 1376 123 1344 c 0,36,37
 147 1313 147 1313 183 1295 c 128,-1,38
 219 1277 219 1277 279 1277 c 0,39,40
 333 1277 333 1277 371.5 1293.5 c 128,-1,41
 410 1310 410 1310 434 1342 c 0,42,43
 457 1373 457 1373 473.5 1419 c 128,-1,44
 490 1465 490 1465 501 1507 c 1,45,-1
 551 1495 l 1,26,27
EndSplineSet
EndChar

StartChar: Iogonek
Encoding: 302 302 238
Width: 798
GlyphClass: 2
Flags: W
LayerCount: 2
Fore
SplineSet
398 0 m 1,0,-1
 79 0 l 1,1,-1
 79 71 l 1,2,3
 106 73 106 73 157 77 c 128,-1,4
 208 81 208 81 229 89 c 0,5,6
 262 102 262 102 277 124.5 c 128,-1,7
 292 147 292 147 292 187 c 2,8,-1
 292 1215 l 2,9,10
 292 1250 292 1250 281 1273.5 c 128,-1,11
 270 1297 270 1297 229 1313 c 0,12,13
 199 1325 199 1325 153.5 1335.5 c 128,-1,14
 108 1346 108 1346 79 1348 c 1,15,-1
 79 1419 l 1,16,-1
 718 1419 l 1,17,-1
 718 1348 l 1,18,19
 687 1347 687 1347 644 1340.5 c 128,-1,20
 601 1334 601 1334 569 1324 c 0,21,22
 531 1312 531 1312 518 1285 c 128,-1,23
 505 1258 505 1258 505 1225 c 2,24,-1
 505 198 l 2,25,26
 505 165 505 165 519.5 139.5 c 128,-1,27
 534 114 534 114 569 99 c 0,28,29
 590 91 590 91 637.5 81.5 c 128,-1,30
 685 72 685 72 718 71 c 1,31,-1
 718 0 l 1,32,-1
 475 0 l 1,33,34
 429 -44 429 -44 405.5 -96 c 128,-1,35
 382 -148 382 -148 382 -217 c 0,36,37
 382 -253 382 -253 392.5 -281 c 128,-1,38
 403 -309 403 -309 427 -329 c 0,39,40
 453 -351 453 -351 497.5 -362 c 128,-1,41
 542 -373 542 -373 606 -372 c 1,42,-1
 606 -444 l 1,43,-1
 491 -444 l 2,44,45
 363 -444 363 -444 293.5 -391.5 c 128,-1,46
 224 -339 224 -339 224 -250 c 0,47,48
 224 -188 224 -188 267 -124.5 c 128,-1,49
 310 -61 310 -61 398 0 c 1,0,-1
EndSplineSet
EndChar

StartChar: iogonek
Encoding: 303 303 239
Width: 600
GlyphClass: 2
Flags: W
LayerCount: 2
Fore
SplineSet
308 0 m 1,0,-1
 74 0 l 1,1,-1
 74 66 l 1,2,3
 97 68 97 68 121.5 70 c 128,-1,4
 146 72 146 72 164 78 c 0,5,6
 192 87 192 87 205.5 109.5 c 128,-1,7
 219 132 219 132 219 168 c 2,8,-1
 219 777 l 2,9,10
 219 809 219 809 204.5 835.5 c 128,-1,11
 190 862 190 862 164 880 c 0,12,13
 145 892 145 892 109 900.5 c 128,-1,14
 73 909 73 909 43 911 c 1,15,-1
 43 976 l 1,16,-1
 391 998 l 1,17,-1
 405 984 l 1,18,-1
 405 180 l 2,19,20
 405 145 405 145 418.5 122 c 128,-1,21
 432 99 432 99 461 88 c 0,22,23
 483 79 483 79 504 73.5 c 128,-1,24
 525 68 525 68 551 66 c 1,25,-1
 551 0 l 1,26,-1
 385 0 l 1,27,28
 339 -44 339 -44 315.5 -96 c 128,-1,29
 292 -148 292 -148 292 -217 c 0,30,31
 292 -253 292 -253 302.5 -281 c 128,-1,32
 313 -309 313 -309 337 -329 c 0,33,34
 363 -351 363 -351 407.5 -362 c 128,-1,35
 452 -373 452 -373 516 -372 c 1,36,-1
 516 -444 l 1,37,-1
 401 -444 l 2,38,39
 273 -444 273 -444 203.5 -391.5 c 128,-1,40
 134 -339 134 -339 134 -250 c 0,41,42
 134 -188 134 -188 177 -124.5 c 128,-1,43
 220 -61 220 -61 308 0 c 1,0,-1
425 1387 m 0,44,45
 425 1330 425 1330 387.5 1287.5 c 128,-1,46
 350 1245 350 1245 295 1245 c 0,47,48
 244 1245 244 1245 206.5 1285.5 c 128,-1,49
 169 1326 169 1326 169 1378 c 0,50,51
 169 1433 169 1433 206.5 1474 c 128,-1,52
 244 1515 244 1515 295 1515 c 0,53,54
 352 1515 352 1515 388.5 1476.5 c 128,-1,55
 425 1438 425 1438 425 1387 c 0,44,45
EndSplineSet
EndChar

